<?xml version="1.0" encoding="UTF-8"?>
<!DOCTYPE svg PUBLIC "-//W3C//DTD SVG 1.0//EN" "http://www.w3.org/TR/2001/REC-SVG-20010904/DTD/svg10.dtd">
<!-- Creator: CorelDRAW X8 -->
<svg xmlns="http://www.w3.org/2000/svg" xml:space="preserve" width="100%" height="100%" version="1.0" style="shape-rendering:geometricPrecision; text-rendering:geometricPrecision; image-rendering:optimizeQuality; fill-rule:evenodd; clip-rule:evenodd"
viewBox="0 0 8268 2947"
 xmlns:xlink="http://www.w3.org/1999/xlink">
 <defs>
  <style type="text/css">
   <![CDATA[
    .str0 {stroke:#F8C301;stroke-width:6.94094}
    .str1 {stroke:#F8C301;stroke-width:6.94488}
    .fil2 {fill:none}
    .fil0 {fill:#0F1215}
    .fil3 {fill:#0F1215}
    .fil1 {fill:#F8C301}
    .fil4 {fill:#FEFEFE;fill-rule:nonzero}
   ]]>
  </style>
   <clipPath id="id0">
    <path d="M0 0l8268 0 0 2947 -8268 0 0 -2947z"/>
   </clipPath>
 </defs>
 <g id="Layer_x0020_1">
  <metadata id="CorelCorpID_0Corel-Layer"/>
  <polygon class="fil0" points="0,0 8268,0 8268,2947 0,2947 "/>
  <g style="clip-path:url(#id0)">
   <g id="_1208687824">
    <polygon id="1" class="fil1" points="7849,-188 7368,646 6887,1479 7368,2312 7849,3146 8811,3146 9774,3146 10255,2312 10736,1479 10255,646 9774,-188 8811,-188 "/>
    <polygon class="fil1" points="-2073,113 -2467,796 -2862,1479 -2467,2162 -2073,2845 -1284,2845 -495,2845 -101,2162 294,1479 -101,796 -495,113 -1284,113 "/>
    <polygon class="fil2 str0" points="-1885,113 -2280,796 -2674,1479 -2280,2162 -1885,2845 -1096,2845 -308,2845 87,2162 481,1479 87,796 -308,113 -1096,113 "/>
    <path class="fil3" d="M8604 -188l-481 834 -481 833 481 833 481 834 319 0 -481 -834 -481 -833 481 -833 481 -834 -319 0zm1924 0l-962 0 320 0 642 0z"/>
   </g>
  </g>
  <polygon class="fil2" points="0,0 8268,0 8268,2947 0,2947 "/>
  <path class="fil4" d="M2125 655c2,26 4,47 6,62 5,42 10,67 16,74 5,7 9,2 11,-16 1,-8 2,-17 3,-28 3,-13 3,-38 2,-75 0,-48 -2,-93 -5,-135l0 -8 0 -2c0,-1 -1,-2 -2,-4 -1,-2 -1,-4 -2,-4 -4,-5 -10,-9 -19,-10 -8,-2 -15,-1 -22,2 -8,3 -13,7 -14,13 0,0 0,1 0,1 0,0 0,0 0,1l0 1 -1 3 -1 4c-2,15 -4,27 -5,34 -3,22 -6,43 -9,63 -1,7 -2,14 -3,20 -2,9 -3,17 -4,21l-1 7 0 0 0 0c0,-1 -1,-1 -1,-1l-2 -6 -3 -10c-4,-10 -6,-17 -7,-21 -9,-31 -15,-59 -19,-84 -2,-8 -3,-15 -4,-22 -1,-1 -1,-3 -2,-5l-1 -3c-1,-3 -3,-5 -5,-8 -6,-5 -14,-7 -23,-6 -5,0 -9,1 -12,2 -4,2 -7,4 -9,7 -1,1 -1,3 -1,4 0,0 0,1 -1,1 0,1 0,1 0,1l0 41c0,39 3,78 8,116 6,43 12,71 20,85 5,9 8,7 9,-7 1,-6 1,-14 1,-25 -1,-37 -2,-68 -2,-91 3,10 6,21 10,32 0,1 0,1 0,2 0,1 0,1 1,2 1,3 1,4 2,5 2,7 4,12 4,14 1,3 3,8 5,14 2,6 4,9 4,10 1,1 1,1 1,2 0,1 0,1 0,1l1 2c1,0 1,0 2,1 1,1 1,1 1,1 1,1 2,2 3,3 1,2 2,2 3,3l1 1 1 1c0,0 1,0 1,0 0,0 0,0 1,0 1,1 2,1 3,2l1 0c1,0 1,1 2,1l3 1c4,0 7,0 11,0 0,0 1,0 2,-1 1,0 2,0 2,0 1,0 1,0 2,-1l1 0c3,-1 5,-1 6,-2 1,0 2,-1 3,-2 2,-1 3,-2 4,-3 1,-1 2,-2 3,-3 0,0 0,-1 1,-2 1,-2 1,-3 1,-3 2,-5 4,-9 4,-13 2,-7 4,-12 5,-14 0,-2 1,-4 2,-8 0,-3 1,-6 2,-8 0,-3 1,-6 1,-9 2,-7 3,-13 3,-17 0,-1 0,-3 1,-4z"/>
  <path id="1" class="fil4" d="M2256 653l0 1c-1,8 -6,17 -15,28l1 -1c0,-3 1,-6 3,-9 2,-7 5,-12 9,-17 0,-1 1,-1 2,-2zm-23 58c8,-2 16,-6 24,-11 13,-9 24,-20 31,-32 4,-9 6,-17 6,-24 0,-1 -1,-4 -2,-8 0,-1 -1,-3 -3,-5 -1,0 -2,-1 -2,-2 -1,-1 -2,-2 -3,-3 -2,-2 -6,-4 -13,-6 -3,-1 -5,-1 -8,-1 -1,0 -2,0 -3,-1 -2,0 -3,0 -4,0l-3 0 -4 1c-8,2 -14,5 -19,8 -2,2 -5,5 -10,9 -4,5 -8,10 -12,16 -3,5 -6,13 -10,23 -6,21 -10,35 -11,40 -2,10 -2,20 -1,29l1 2c0,3 1,4 1,5l1 3c0,1 0,1 1,2l0 1 1 3c1,1 1,2 2,3 0,1 0,2 1,3 0,1 1,2 2,3 1,1 1,2 1,2 4,3 8,6 13,8 2,1 5,2 7,2 2,1 5,1 8,2 7,0 12,0 16,-1 9,-2 17,-6 25,-13 0,-1 2,-3 6,-7 1,-1 1,-2 2,-3 1,-1 1,-2 2,-3 1,-1 1,-2 2,-3 0,-1 1,-2 1,-4 1,-1 2,-3 2,-3 2,-7 3,-13 2,-18 0,-5 -2,-8 -4,-9 -6,-2 -12,1 -20,10 -1,1 -2,2 -2,2 -2,1 -3,3 -5,5 -2,1 -4,4 -6,7 -2,2 -5,5 -7,7 -1,2 -2,3 -3,3l-4 0c0,0 -1,0 -1,-1l0 -1 0 -2c-1,-1 -1,-3 -1,-5 0,-2 -1,-5 -1,-9 0,-6 1,-12 2,-18 1,-2 2,-4 2,-6z"/>
  <path id="2" class="fil4" d="M2492 738c5,-11 5,-26 0,-45 0,-3 -1,-6 -2,-12 -1,-2 -1,-4 -2,-6 -1,-1 -1,-2 -2,-4 -1,-3 -2,-5 -2,-5 -1,-1 -1,-3 -2,-6 -1,-2 -2,-4 -3,-5l-1 -1 0 -1 -2 -3c-1,-2 -2,-3 -3,-4l-2 -3 0 0c-1,0 -1,0 -1,0l-1 -1 -4 -2c0,0 -1,0 -2,-1 -1,0 -2,-1 -2,-1 -3,0 -5,-1 -7,-1 -4,0 -8,1 -12,2 -2,1 -4,1 -6,2 0,0 -2,1 -3,2 -1,0 -2,1 -3,1l-5 4c-2,1 -3,2 -6,5l-5 5 -4 6c-3,-7 -7,-12 -13,-16 -2,-1 -5,-3 -10,-5 -3,-1 -7,-1 -12,-1 -4,0 -8,1 -12,2 -2,0 -4,1 -5,2 -2,1 -4,2 -5,3 -9,6 -15,13 -19,19 -2,4 -4,6 -4,6 0,0 0,-2 -1,-6 -1,-3 -1,-6 -2,-8 0,-3 -1,-4 -2,-6 -3,-7 -7,-6 -12,4 0,2 0,3 -1,5 -5,15 -7,35 -7,58 0,12 1,26 3,40l1 5 0 2 0 1c1,3 3,5 6,8 2,2 6,4 10,5 3,0 6,0 11,0 4,0 7,-2 11,-4 3,-1 5,-4 6,-7 1,0 1,-1 1,-2l0 -1 0 -3 2 -5c2,-8 3,-15 4,-20 1,-5 2,-12 4,-21 1,-4 1,-10 2,-20 1,-2 1,-5 2,-8 0,0 0,-1 0,-2 0,0 1,-1 1,-1 0,0 0,-1 0,-1 1,-1 1,-1 1,-1l0 -1 0 0c1,0 1,0 1,0 0,0 0,0 0,0 0,1 0,3 1,5 0,3 1,5 1,7 1,1 2,6 3,15 3,11 5,18 5,22 -1,5 2,10 8,17 6,6 14,6 23,2 10,-5 17,-22 21,-52 2,-4 4,-8 6,-11 1,-1 1,-2 2,-3 1,-1 1,-2 2,-2l1 -3 0 -1c0,0 0,-1 0,-1 1,0 1,0 2,0l0 1 1 2c1,1 1,3 2,5 1,2 1,3 2,4 4,11 7,22 9,33 1,4 2,8 3,13 1,6 2,10 2,12 0,3 1,6 2,8 0,3 1,4 3,6 3,3 6,3 10,-2 6,-5 10,-13 12,-24z"/>
  <path id="3" class="fil4" d="M2574 782c12,1 22,-2 31,-9 5,-5 9,-9 11,-13l3 -3 1 -2c1,-2 1,-3 2,-4 2,-6 3,-12 3,-17 0,0 0,-1 0,-2 1,-1 1,-2 1,-3 1,-6 0,-13 -1,-20 -1,-9 -3,-16 -5,-21 -2,-8 -6,-15 -11,-20 -1,-2 -3,-4 -4,-5l-2 -2 -1 0 -1 -1 -1 -2c-5,-5 -10,-8 -16,-10 -4,-1 -8,-2 -13,-2 -5,0 -9,0 -13,1 -8,3 -14,8 -19,15 -2,-4 -4,-7 -7,-8 -6,-2 -10,0 -13,7 -3,6 -4,16 -4,29 0,16 2,35 4,58 1,2 1,10 2,24 1,14 2,24 2,32 4,27 10,41 19,44 8,0 14,-3 18,-10 3,-3 4,-8 4,-16 2,-11 3,-25 2,-41 3,1 6,1 8,1zm-21 -88c-2,-4 -3,-8 -4,-11 2,-1 3,-2 5,-4 2,-2 3,-3 4,-4 1,0 2,-1 3,-2l1 0 1 -1c2,0 3,0 4,0l1 1 0 0c3,5 5,9 6,14 3,6 4,13 6,22 0,9 0,18 0,25 -1,5 -2,9 -4,12l0 1c0,1 -1,1 -2,1l-1 0c-1,0 -1,0 -2,0l0 0 -1 -1 -1 -1c-2,-2 -4,-3 -6,-5 -2,-15 -5,-31 -10,-47z"/>
  <path id="4" class="fil4" d="M2745 732c6,-13 10,-26 13,-41 4,-18 4,-36 2,-55l-45 0c-3,26 -6,49 -6,69 -1,3 -2,7 -4,11 -1,2 -3,7 -6,15l-3 7 -4 7c0,1 0,2 0,3l-1 2 -1 1c-1,0 -2,0 -3,-1 0,-1 -1,-2 -3,-5l0 -3c0,-1 0,-2 0,-4 0,-1 0,-2 0,-2 0,-2 0,-4 0,-7 -1,-3 -1,-5 -1,-6 0,-7 0,-16 0,-28 0,-22 -1,-35 -4,-39 -4,-7 -10,-4 -16,11 -2,4 -4,9 -5,15 -4,13 -7,27 -9,43 0,1 0,3 0,6 0,3 0,5 -1,6 0,3 0,5 0,7l0 10c1,13 2,21 2,23 2,6 4,11 8,17 2,4 7,8 13,10 1,0 2,1 5,1 1,1 3,1 6,1 2,0 3,0 4,-1 1,0 1,0 2,0 1,0 1,-1 2,-1 1,0 2,0 3,-1 2,0 3,0 4,-1 0,0 0,0 0,0l2 -1 2 -2c1,-1 2,-2 4,-3 1,-1 2,-2 4,-3 1,-1 1,-1 2,-3l2 -2c1,-2 3,-5 7,-10 0,0 1,-2 3,-6 0,0 1,1 1,1 5,1 7,0 8,-4 1,-1 2,-3 2,-7 1,-4 2,-7 3,-10 2,-3 4,-8 5,-14 1,-2 2,-4 3,-6z"/>
  <path id="5" class="fil4" d="M2778 743c0,5 0,11 0,16l0 20 2 0c0,0 1,1 1,1l38 -1 0 -2 3 0c-2,-8 -1,-19 0,-32 1,-4 1,-8 2,-14 1,-5 2,-8 2,-10 0,-1 0,-3 1,-6 1,-3 1,-5 1,-7l3 -10 1 0 6 26c0,1 1,4 2,7 5,23 10,37 14,39 6,4 11,0 15,-10 1,-2 2,-5 2,-8 3,-6 4,-16 3,-30 0,-4 0,-11 -1,-20 0,-1 0,-2 0,-3 0,-2 0,-2 0,-3l0 -2 -1 -2 -1 -5c0,-1 0,-3 -1,-5 0,-3 0,-4 0,-5l0 -6 -1 -2 -1 -3 -1 -5c0,-1 -1,-3 -1,-4 -2,-2 -3,-5 -5,-7 -2,-3 -5,-6 -10,-10 -3,-2 -7,-4 -12,-5 -2,0 -5,0 -9,0 -3,0 -4,1 -5,1 -2,0 -3,0 -4,1 -2,0 -3,1 -4,1l-2 2 -2 1 -1 2c-2,2 -3,4 -5,6 -2,2 -3,5 -5,7 0,1 -1,2 -2,3 -12,-11 -19,17 -22,84z"/>
  <path id="6" class="fil4" d="M2920 778c-6,17 -11,30 -14,40 -12,33 -14,52 -6,56 5,4 12,2 21,-7 4,-3 9,-9 13,-18 12,-19 22,-41 31,-67 0,-1 1,-3 2,-5 12,-31 19,-61 23,-90 5,-31 4,-49 0,-53 -6,-6 -13,-1 -21,14 -4,6 -8,15 -12,26 0,1 -3,10 -10,29 -7,-19 -14,-35 -22,-49 -1,0 -2,-2 -4,-6 -2,-3 -3,-5 -4,-7 -1,-2 -3,-4 -5,-6 -2,-3 -4,-5 -6,-6 -1,-1 -3,-2 -5,-3 -6,-1 -10,1 -12,6 -2,5 -3,13 -2,23 3,15 7,30 13,43 1,2 2,5 4,11 2,6 4,11 6,17 2,5 4,10 7,15 3,7 7,13 11,17 -2,5 -5,12 -8,20z"/>
  <path id="7" class="fil4" d="M3114 660l-21 -2c-1,4 -4,13 -9,25 -4,12 -7,21 -9,27 -1,0 -1,1 -2,2 0,1 -1,2 -1,3 -1,1 -1,2 -1,3 -4,8 -7,14 -10,17 -1,1 -1,3 -2,5 -1,1 -2,3 -3,3l-1 2c0,0 0,1 -1,1l-1 0 -1 -1 0 -7c0,-3 1,-9 3,-18 2,-11 6,-23 11,-35 4,-8 8,-15 13,-23 1,-2 2,-3 4,-5 2,-3 3,-4 4,-6 3,-3 5,-5 8,-5 4,-1 7,-1 10,1 2,1 4,3 5,5 1,2 2,3 3,4 0,1 0,3 1,4zm14 -18c-2,-5 -6,-8 -11,-11 -6,-4 -12,-6 -19,-7 -8,0 -16,2 -22,5 -4,2 -7,4 -10,6 0,1 -2,2 -4,4 -2,2 -3,3 -4,4 -7,6 -13,14 -19,22 -11,15 -20,32 -25,51 -2,11 -4,20 -4,26l0 8c0,1 0,2 1,3 0,1 0,2 0,2 0,1 0,2 0,3 0,1 1,2 1,3 2,6 5,12 9,16 4,5 9,8 14,9 4,1 7,2 9,2 4,0 7,0 8,-1 3,0 6,-1 7,-1 2,-1 3,-1 4,-1 0,0 1,-1 2,-1 0,-1 1,-1 1,-1 1,0 3,-2 6,-4 2,-1 3,-2 5,-3 5,-3 10,-8 16,-15l1 -1 2 -2c1,-1 2,-2 2,-3 0,0 1,-1 2,-2 1,-2 2,-3 2,-3 1,-2 2,-4 4,-6 3,10 8,19 13,26 6,7 11,11 16,12 5,1 7,0 7,-4 1,-3 0,-10 -1,-19 0,-2 0,-5 0,-8 -1,-3 -1,-7 -2,-12 -1,-5 -1,-9 -2,-13 -1,-8 -1,-27 -1,-57 0,-1 1,-2 1,-3l-1 0 0 -4 -9 -1c3,-7 4,-14 1,-19z"/>
  <path id="8" class="fil4" d="M3206 775c3,-2 5,-6 5,-12 4,-13 5,-27 3,-42 1,-1 1,-2 1,-3 -1,-20 -4,-38 -9,-55 0,-1 -1,-2 -1,-4 -1,-2 -1,-3 -2,-4 0,-1 -1,-2 -1,-4 -1,-2 -1,-3 -2,-4 -1,-2 -1,-3 -2,-4 -1,-2 -2,-3 -2,-4 -1,-1 -2,-2 -3,-3 0,-2 -1,-2 -2,-3 -1,-1 -2,-1 -3,-1 -6,-3 -11,-2 -13,4 -3,5 -5,12 -6,23 0,7 0,13 0,18 0,4 0,10 0,16 0,6 0,9 0,11 1,2 1,7 1,14 0,8 0,15 1,21 0,5 1,12 2,18 1,7 3,13 6,17 2,5 6,7 10,8 7,2 13,-1 17,-7zm-14 -176c3,0 5,-1 5,-2 4,-2 6,-5 7,-10 0,0 0,-1 0,-1 2,-5 0,-10 -3,-15 0,0 0,0 -1,-1 -1,-1 -1,-2 -1,-2 -1,-1 -1,-1 -2,-2 -1,-1 -2,-1 -3,-2 0,0 -1,-1 -3,-1 -1,-1 -2,-1 -4,-1 -15,-3 -24,2 -25,15 0,0 0,1 -1,1 0,0 0,1 0,3 -1,2 -1,3 -1,4 -1,1 -1,2 0,4 0,2 0,4 1,5 1,1 3,2 5,3 2,1 5,2 9,3 6,0 12,0 17,-1z"/>
  <path id="9" class="fil4" d="M3497 738c5,-11 5,-26 0,-45 0,-3 -1,-6 -2,-12 -1,-2 -1,-4 -2,-6 -1,-1 -1,-2 -2,-4 -1,-3 -2,-5 -2,-5 -1,-1 -1,-3 -2,-6 -1,-2 -2,-4 -3,-5l-1 -1 0 -1 -2 -3c-1,-2 -2,-3 -3,-4l-2 -3 0 0c-1,0 -1,0 -1,0l-1 -1 -4 -2c0,0 -1,0 -2,-1 -1,0 -2,-1 -2,-1 -3,0 -5,-1 -7,-1 -4,0 -8,1 -12,2 -2,1 -4,1 -6,2 0,0 -2,1 -3,2 -1,0 -2,1 -3,1l-5 4c-2,1 -3,2 -6,5l-5 5 -4 6c-3,-7 -7,-12 -13,-16 -2,-1 -5,-3 -10,-5 -3,-1 -7,-1 -12,-1 -4,0 -8,1 -12,2 -2,0 -4,1 -5,2 -2,1 -4,2 -5,3 -9,6 -15,13 -19,19 -2,4 -4,6 -4,6 0,0 0,-2 -1,-6 -1,-3 -1,-6 -2,-8 0,-3 -1,-4 -2,-6 -3,-7 -7,-6 -12,4 0,2 0,3 -1,5 -5,15 -7,35 -7,58 0,12 1,26 3,40l1 5 0 2 0 1c1,3 3,5 6,8 2,2 6,4 10,5 3,0 6,0 11,0 4,0 7,-2 11,-4 3,-1 5,-4 6,-7 1,0 1,-1 1,-2l0 -1 0 -3 2 -5c2,-8 3,-15 4,-20 1,-5 2,-12 4,-21 1,-4 1,-10 2,-20 1,-2 1,-5 2,-8 0,0 0,-1 0,-2 0,0 1,-1 1,-1 0,0 0,-1 0,-1 1,-1 1,-1 1,-1l0 -1 0 0c1,0 1,0 1,0 0,0 0,0 0,0 0,1 0,3 1,5 0,3 1,5 1,7 1,1 2,6 3,15 3,11 5,18 5,22 -1,5 2,10 8,17 6,6 14,6 23,2 10,-5 17,-22 21,-52 2,-4 4,-8 6,-11 1,-1 1,-2 2,-3 1,-1 1,-2 2,-2l1 -3 0 -1c0,0 0,-1 1,-1 0,0 0,0 1,0l0 1 1 2c1,1 1,3 2,5 1,2 2,3 2,4 4,11 7,22 9,33 1,4 2,8 3,13 1,6 2,10 2,12 0,3 1,6 2,8 0,3 1,4 3,6 3,3 6,3 10,-2 6,-5 10,-13 12,-24z"/>
  <path id="10" class="fil4" d="M3571 669c0,1 1,2 1,3 1,4 2,7 2,9 0,7 0,12 -1,16 -1,8 -3,13 -4,17 -2,7 -4,13 -6,17 0,0 -1,1 -1,2 0,1 -1,1 -1,2l-1 1 0 0 0 0 -1 0 0 -7c0,-1 0,-3 0,-6 0,-2 0,-4 0,-5 1,-8 2,-15 4,-23 1,-6 4,-15 8,-26zm13 -18c1,0 2,0 4,0 3,-1 3,-3 1,-6 -2,-1 -4,-3 -7,-3 -4,-1 -8,-1 -13,0 -5,2 -7,3 -8,3 -1,0 -2,1 -2,1 -1,1 -2,2 -3,2 -1,1 -1,1 -2,2 -2,2 -4,3 -5,4 -1,2 -2,3 -3,5 -4,4 -9,11 -15,21 -9,15 -14,31 -16,49l0 15c1,7 3,13 5,17 2,4 5,8 9,11 0,1 1,2 2,2 1,1 2,2 2,2 1,1 2,2 3,3 4,2 8,4 11,4 3,1 6,1 8,1 2,0 5,0 8,-1 0,0 2,0 3,-1 2,0 3,-1 4,-1 3,-1 5,-3 7,-4 1,-1 2,-2 4,-3 1,-2 2,-3 3,-4 1,0 2,-2 4,-3 2,-2 3,-4 4,-5 0,0 1,-1 2,-2 0,-1 1,-2 1,-2 2,-2 3,-4 3,-5 2,-2 3,-4 3,-5l2 -4c3,-7 5,-11 5,-12 3,-8 5,-16 5,-24 1,-9 0,-17 -1,-24 -2,-8 -5,-15 -11,-21 -5,-5 -11,-9 -17,-12z"/>
  <path id="11" class="fil4" d="M3740 769c6,2 10,-1 13,-9 0,-1 0,-3 1,-5 2,-4 2,-11 1,-21 0,-5 -1,-30 -2,-75 1,-1 1,-3 1,-5 1,-37 0,-69 -1,-98 0,-2 0,-6 0,-12 -1,-6 -1,-11 -1,-15 0,-3 -1,-7 -1,-12 -1,-5 -2,-9 -3,-12 -1,-3 -3,-6 -4,-7 -8,-7 -16,4 -23,33 -1,4 -2,9 -3,13 -6,30 -9,57 -9,83l0 2c-3,0 -7,1 -10,3 -4,1 -9,3 -14,6 -1,1 -2,2 -3,3 -2,1 -3,2 -4,2 0,0 0,1 -1,2 -1,0 -1,1 -1,1 -11,8 -18,16 -24,25 -9,13 -15,26 -17,41 -1,8 -1,14 -1,17 0,1 0,2 0,5 0,2 1,4 1,5 0,5 1,9 2,12 3,6 5,10 7,13 5,6 10,10 15,13 4,2 8,4 13,6 5,1 10,2 15,2 9,1 18,-1 27,-5 6,-3 12,-6 17,-10 1,-2 2,-3 3,-4 2,2 4,2 6,3zm-28 -29c-5,6 -9,9 -13,12 -3,1 -5,2 -7,3 -1,0 -2,0 -2,0l0 -1 -2 0c-1,0 -2,-1 -3,-2 -2,-3 -4,-7 -5,-11 0,-1 0,-3 0,-4 -2,-14 -1,-28 4,-41 3,-7 6,-14 11,-20l3 -5 4 -4c0,-1 1,-1 2,-2 1,-1 2,-2 2,-2 1,-1 1,-2 2,-2l0 -1c1,0 1,-1 1,-1 0,21 1,37 3,49 1,10 3,19 6,27 -2,2 -4,3 -6,5z"/>
  <path id="12" class="fil4" d="M3880 660l-21 -2c-1,4 -5,13 -9,25 -4,12 -8,21 -10,27 0,0 0,1 -1,2 -1,1 -1,2 -1,3 -1,1 -1,2 -2,3 -4,8 -7,14 -9,17 -1,1 -2,3 -3,5 -1,1 -2,3 -2,3l-1 2c0,0 -1,1 -1,1l-1 0 -1 -1 0 -7c0,-3 1,-9 3,-18 2,-11 6,-23 11,-35 3,-8 8,-15 13,-23 1,-2 2,-3 4,-5 2,-3 3,-4 4,-6 2,-3 5,-5 8,-5 3,-1 7,-1 10,1 2,1 4,3 5,5 1,2 2,3 2,4 1,1 1,3 2,4zm14 -18c-2,-5 -6,-8 -11,-11 -6,-4 -12,-6 -19,-7 -8,0 -16,2 -22,5 -4,2 -7,4 -10,6 -1,1 -2,2 -4,4 -2,2 -3,3 -5,4 -6,6 -12,14 -18,22 -12,15 -20,32 -25,51 -3,11 -4,20 -4,26l0 8c0,1 0,2 0,3 1,1 1,2 1,2 0,1 0,2 0,3 0,1 0,2 1,3 1,6 4,12 9,16 3,5 8,8 14,9 4,1 7,2 9,2 4,0 7,0 8,-1 3,0 6,-1 7,-1 1,-1 3,-1 4,-1 0,0 1,-1 1,-1 1,-1 2,-1 2,-1 1,0 3,-2 6,-4 2,-1 3,-2 5,-3 4,-3 10,-8 16,-15l1 -1 1 -2c2,-1 2,-2 3,-3 0,0 1,-1 2,-2 1,-2 1,-3 2,-3 1,-2 2,-4 3,-6 4,10 8,19 14,26 6,7 11,11 16,12 4,1 7,0 7,-4 1,-3 0,-10 -2,-19 1,-2 1,-5 0,-8 0,-3 -1,-7 -1,-12 -1,-5 -2,-9 -2,-13 -1,-8 -1,-27 -1,-57 0,-1 1,-2 1,-3l-1 0 0 -4 -10 -1c4,-7 4,-14 2,-19z"/>
  <path id="13" class="fil4" d="M3960 767c4,-4 6,-10 6,-19 4,-17 7,-40 7,-68 0,-1 0,-3 0,-6 1,-30 -2,-60 -9,-88 -6,-30 -12,-47 -19,-51 -6,-4 -11,0 -13,9 -3,8 -4,19 -4,35 0,11 0,20 0,28 0,8 0,17 0,26 1,9 1,15 1,18 0,1 -1,11 -1,29 0,18 0,32 0,42 0,34 5,52 14,56 7,2 13,-1 18,-11z"/>
  <path id="14" class="fil4" d="M4106 778c-7,17 -12,30 -15,40 -11,33 -13,52 -6,56 6,4 13,2 22,-7 4,-3 8,-9 13,-18 11,-19 21,-41 30,-67 1,-1 2,-3 3,-5 11,-31 19,-61 23,-90 4,-31 4,-49 -1,-53 -5,-6 -12,-1 -21,14 -3,6 -7,15 -11,26 0,1 -4,10 -10,29 -7,-19 -14,-35 -22,-49 -1,0 -2,-2 -4,-6 -2,-3 -3,-5 -5,-7 -1,-2 -2,-4 -4,-6 -2,-3 -4,-5 -6,-6 -2,-1 -3,-2 -5,-3 -7,-1 -11,1 -13,6 -2,5 -2,13 -1,23 3,15 7,30 13,43 0,2 2,5 4,11 1,6 4,11 6,17 2,5 4,10 6,15 4,7 8,13 11,17 -1,5 -4,12 -7,20z"/>
  <path id="15" class="fil4" d="M4299 660l-20 -2c-2,4 -5,13 -9,25 -4,12 -8,21 -10,27 0,0 -1,1 -1,2 -1,1 -1,2 -2,3 0,1 0,2 -1,3 -4,8 -7,14 -9,17 -1,1 -2,3 -3,5 -1,1 -2,3 -2,3l-2 2c0,0 0,1 0,1l-1 0 -1 -1 0 -7c0,-3 1,-9 2,-18 3,-11 7,-23 12,-35 3,-8 8,-15 13,-23 1,-2 2,-3 4,-5 2,-3 3,-4 4,-6 2,-3 5,-5 8,-5 3,-1 7,-1 10,1 2,1 4,3 5,5 1,2 2,3 2,4 1,1 1,3 1,4zm15 -18c-2,-5 -6,-8 -11,-11 -6,-4 -12,-6 -19,-7 -9,0 -16,2 -22,5 -4,2 -8,4 -10,6 -1,1 -2,2 -5,4 -1,2 -2,3 -4,4 -6,6 -13,14 -18,22 -12,15 -20,32 -25,51 -3,11 -4,20 -4,26l0 8c0,1 0,2 0,3 0,1 1,2 1,2 0,1 0,2 0,3 0,1 0,2 1,3 1,6 4,12 9,16 3,5 8,8 14,9 4,1 7,2 9,2 4,0 7,0 8,-1 3,0 6,-1 7,-1 1,-1 2,-1 4,-1 0,0 1,-1 1,-1 1,-1 2,-1 2,-1 1,0 3,-2 6,-4 2,-1 3,-2 5,-3 4,-3 10,-8 15,-15l2 -1 1 -2c2,-1 2,-2 3,-3 0,0 1,-1 2,-2 1,-2 1,-3 2,-3 1,-2 2,-4 3,-6 4,10 8,19 14,26 6,7 11,11 16,12 4,1 7,0 7,-4 0,-3 0,-10 -2,-19 1,-2 1,-5 0,-8 0,-3 -1,-7 -1,-12 -1,-5 -2,-9 -2,-13 -1,-8 -1,-27 -1,-57 0,-1 1,-2 1,-3l-1 0 0 -4 -10 -1c4,-7 4,-14 2,-19z"/>
  <path id="16" class="fil4" d="M4343 743c-1,5 -1,11 -1,16l0 20 2 0c1,0 1,1 1,1l39 -1 0 -2 2 0c-1,-8 -1,-19 1,-32 0,-4 1,-8 2,-14 1,-5 1,-8 1,-10 0,-1 0,-3 1,-6 1,-3 1,-5 1,-7l3 -10 1 0 6 26c1,1 1,4 2,7 6,23 11,37 15,39 5,4 10,0 14,-10 1,-2 2,-5 3,-8 3,-6 4,-16 3,-30 0,-4 -1,-11 -2,-20 0,-1 0,-2 0,-3 0,-2 0,-2 0,-3l0 -2 -1 -2 0 -5c-1,-1 -1,-3 -1,-5 -1,-3 -1,-4 -1,-5l0 -6 -1 -2 0 -3 -1 -5c-1,-1 -2,-3 -2,-4 -1,-2 -3,-5 -4,-7 -3,-3 -6,-6 -10,-10 -4,-2 -8,-4 -13,-5 -2,0 -5,0 -9,0 -2,0 -4,1 -5,1 -1,0 -2,0 -4,1 -1,0 -2,1 -3,1l-2 2 -2 1 -1 2c-2,2 -4,4 -6,6 -2,2 -3,5 -4,7 -1,1 -2,2 -3,3 -11,-11 -19,17 -21,84z"/>
  <path id="17" class="fil4" d="M4543 678l-37 1c0,13 -1,24 -2,34 0,3 -1,6 -1,9l-2 8 0 2c0,1 -1,2 -2,2 -1,0 -2,0 -3,-1 0,0 0,0 0,-1l-1 0 0 -1 0 0 0 0 -1 -1c-1,-4 -2,-9 -3,-16 -1,-10 0,-20 3,-31 2,-7 4,-13 6,-16 0,-1 2,-3 4,-7 2,-3 4,-4 4,-4 2,-1 4,-1 7,-1 2,0 4,0 7,1 6,3 10,6 13,10 2,1 4,3 5,6 1,2 2,4 3,6zm-24 96c1,5 1,10 1,15 1,4 1,8 2,15 0,6 1,11 1,14 0,2 0,4 1,7 0,4 0,6 0,8l0 0 1 1 0 4 -1 0c0,0 -2,0 -3,-1 -1,-1 -1,-1 -1,-1 -1,-1 -1,-1 -2,-2 -1,-1 -2,-3 -4,-6 -2,-2 -3,-4 -4,-6 -11,-16 -19,-25 -23,-27 -4,-3 -7,-2 -8,4 -1,4 -1,11 2,23 0,2 1,5 2,8 1,3 1,4 2,6 0,0 0,0 0,1 1,1 1,1 1,2 0,0 0,0 1,1 0,1 0,1 0,2 1,0 2,2 3,4 1,3 2,4 3,6 1,2 3,6 6,11 5,7 9,14 15,21 9,13 17,22 23,30l3 -2 3 -2 1 -1c1,0 1,0 2,0 0,-1 1,-1 1,-2 0,0 1,-1 2,-2 1,0 1,-1 2,-2 6,-6 11,-11 13,-14l1 -2c0,-1 1,-2 1,-3l0 0c0,-1 1,-1 1,-2l0 -2c1,-5 1,-10 2,-15 0,0 -1,-12 -2,-35 -1,-24 -3,-47 -6,-70 0,-2 0,-3 0,-6 0,-3 0,-5 0,-7 -3,-25 -6,-45 -9,-60 1,0 1,-1 2,-1 4,-6 4,-12 1,-21 -2,-6 -6,-12 -11,-17 -5,-4 -10,-6 -14,-8 -8,-3 -15,-4 -23,-4 -8,0 -15,3 -22,7 -1,1 -1,1 -2,2 -1,1 -2,1 -3,2 0,0 -1,1 -2,2l-2 1c-2,3 -4,5 -4,6 -6,7 -10,15 -13,24 -6,17 -8,34 -4,52l0 2 0 1 1 2 2 6c0,1 1,3 2,6 1,2 1,4 2,5l1 2 2 3 3 5c2,2 5,4 8,7 6,4 13,6 21,7 4,0 8,0 13,-1 2,-1 6,-2 9,-3z"/>
  <path id="18" class="fil4" d="M4719 749l-4 0c-1,0 -2,0 -2,0 -1,0 -2,-1 -4,-1 -1,-1 -1,-2 -1,-3l-1 -2c-1,-3 -1,-4 -1,-5 -2,-9 -3,-17 -2,-23 0,-1 0,-2 0,-4 3,-20 11,-39 26,-58 3,-4 5,-6 7,-7 1,-1 2,-2 4,-3 0,-1 2,-1 4,-2 2,0 5,0 8,1 2,1 3,2 4,4 3,1 6,0 9,-2 1,-1 2,-3 3,-5 0,-2 0,-4 -3,-7 -2,-3 -5,-5 -9,-7 -5,-2 -10,-3 -16,-3 -2,0 -5,0 -10,0 -2,1 -5,2 -9,2 -5,2 -9,5 -14,7 -2,2 -6,4 -10,8 -1,1 -4,4 -8,7 -7,8 -11,13 -14,17 -5,7 -9,16 -13,26 -3,10 -5,19 -5,27 0,6 1,12 2,18 0,1 1,3 1,5 1,2 1,3 1,4 2,5 4,9 5,10 2,3 4,5 4,5 2,3 4,5 6,6 5,4 11,7 17,8 11,3 22,2 32,-3 3,-1 5,-2 6,-3 1,-1 1,-1 2,-2 0,0 1,-1 1,-1 2,-2 3,-4 4,-5 1,-3 1,-5 0,-7 -3,-4 -10,-4 -20,-2z"/>
  <path id="19" class="fil4" d="M4886 732c6,-13 10,-26 13,-41 4,-18 4,-36 2,-55l-44 0c-4,26 -7,49 -7,69 -1,3 -2,7 -4,11 -1,2 -3,7 -6,15l-3 7 -4 7c0,1 0,2 0,3l-1 2 -1 1c-1,0 -2,0 -2,-1 -1,-1 -2,-2 -3,-5l0 -3c0,-1 -1,-2 -1,-4 0,-1 0,-2 0,-2 0,-2 0,-4 0,-7 0,-3 -1,-5 -1,-6 0,-7 0,-16 0,-28 0,-22 -1,-35 -4,-39 -4,-7 -9,-4 -16,11 -2,4 -4,9 -5,15 -4,13 -7,27 -8,43 -1,1 -1,3 -1,6 0,3 0,5 -1,6 0,3 0,5 0,7l0 10c1,13 2,21 2,23 2,6 4,11 8,17 2,4 7,8 13,10 1,0 2,1 5,1 1,1 3,1 6,1 2,0 4,0 4,-1 1,0 1,0 2,0 1,0 1,-1 2,-1 1,0 2,0 3,-1 2,0 3,0 4,-1 0,0 0,0 0,0l2 -1 2 -2c1,-1 2,-2 4,-3 1,-1 2,-2 4,-3 1,-1 2,-1 2,-3l2 -2c1,-2 4,-5 7,-10 0,0 1,-2 3,-6 1,0 1,1 1,1 5,1 7,0 9,-4 0,-1 1,-3 2,-7 1,-4 1,-7 2,-10 2,-3 4,-8 6,-14 0,-2 1,-4 2,-6z"/>
  <path id="20" class="fil4" d="M4978 760c2,1 5,3 9,6 4,3 7,5 10,7 3,2 5,4 7,5 9,5 16,8 21,7 8,-1 10,-6 8,-14 1,-4 -2,-9 -8,-15 -9,-11 -24,-25 -47,-41 -1,-1 -2,-2 -4,-3l0 -1 0 0 0 -1 2 -1 4 -3c6,-6 15,-16 27,-28 0,0 1,-2 3,-4 2,-1 3,-3 4,-4 0,0 2,-2 3,-4 2,-2 4,-4 4,-5 1,-1 2,-2 4,-4 1,-2 2,-4 3,-5 0,-1 1,-2 2,-4 1,-2 2,-3 1,-3 0,-1 0,-2 0,-3 -4,-4 -9,-5 -16,-2 -8,3 -18,9 -30,17 -3,3 -9,7 -18,14 0,-35 -4,-67 -9,-95 -7,-34 -14,-52 -20,-56 -11,-8 -17,8 -17,48 -1,12 -1,28 0,49 0,20 1,31 1,32 0,2 0,13 0,32 0,20 1,36 2,47 1,37 7,57 16,61 6,3 11,0 16,-10 0,-1 1,-2 1,-2 3,-4 5,-11 6,-22 0,-1 0,-3 0,-5 6,4 11,7 15,10z"/>
  <path id="21" class="fil4" d="M5148 732c6,-13 11,-26 14,-41 3,-18 4,-36 2,-55l-45 0c-4,26 -6,49 -7,69 -1,3 -2,7 -3,11 -1,2 -3,7 -7,15l-3 7 -3 7c0,1 0,2 -1,3l0 2 -2 1c-1,0 -1,0 -2,-1 -1,-1 -2,-2 -3,-5l0 -3c0,-1 0,-2 0,-4 0,-1 0,-2 0,-2 0,-2 0,-4 -1,-7 0,-3 0,-5 0,-6 0,-7 -1,-16 -1,-28 0,-22 -1,-35 -3,-39 -4,-7 -10,-4 -16,11 -2,4 -4,9 -6,15 -4,13 -6,27 -8,43 0,1 0,3 0,6 0,3 -1,5 -1,6 0,3 0,5 -1,7l0 10c2,13 2,21 3,23 1,6 4,11 7,17 3,4 8,8 14,10 1,0 2,1 5,1 1,1 3,1 6,1 2,0 3,0 4,-1 0,0 1,0 2,0 0,0 1,-1 1,-1 1,0 2,0 4,-1 2,0 3,0 3,-1 0,0 1,0 1,0l1 -1 3 -2c0,-1 2,-2 4,-3 0,-1 2,-2 4,-3 1,-1 1,-1 2,-3l1 -2c2,-2 4,-5 7,-10 1,0 2,-2 4,-6 0,0 1,1 1,1 4,1 7,0 8,-4 1,-1 1,-3 2,-7 1,-4 2,-7 3,-10 2,-3 4,-8 5,-14 1,-2 2,-4 2,-6z"/>
  <path id="22" class="fil4" d="M5246 782c12,1 22,-2 31,-9 6,-5 9,-9 12,-13l2 -3 1 -2c1,-2 1,-3 2,-4 2,-6 3,-12 3,-17 0,0 0,-1 1,-2 0,-1 0,-2 0,-3 1,-6 0,-13 -1,-20 -1,-9 -3,-16 -4,-21 -3,-8 -7,-15 -11,-20 -2,-2 -3,-4 -5,-5l-2 -2 0 0 -2 -1 -1 -2c-5,-5 -10,-8 -16,-10 -4,-1 -8,-2 -13,-2 -5,0 -9,0 -12,1 -9,3 -15,8 -20,15 -2,-4 -4,-7 -7,-8 -6,-2 -10,0 -13,7 -2,6 -4,16 -4,29 0,16 2,35 4,58 1,2 1,10 2,24 1,14 2,24 3,32 3,27 9,41 18,44 8,0 14,-3 18,-10 3,-3 5,-8 5,-16 1,-11 2,-25 1,-41 3,1 6,1 8,1zm-21 -88c-1,-4 -3,-8 -4,-11 2,-1 4,-2 6,-4 1,-2 2,-3 4,-4 0,0 1,-1 2,-2l1 0 1 -1c2,0 3,0 4,0l1 1 0 0c3,5 5,9 6,14 3,6 4,13 6,22 0,9 0,18 0,25 -1,5 -2,9 -4,12l0 1c0,1 0,1 -2,1l-1 0c-1,0 -1,0 -2,0l0 0 -1 -1 -1 -1c-2,-2 -4,-3 -6,-5 -2,-15 -5,-31 -10,-47z"/>
  <path class="fil4" d="M1930 1163c0,42 0,69 1,83 0,13 1,27 3,40 1,12 4,20 8,23 6,3 13,0 19,-11 0,0 0,-1 0,-1 4,-4 7,-12 8,-22 3,-11 4,-24 5,-40 1,-14 1,-27 0,-39 0,-1 0,-3 0,-6 0,-36 -2,-70 -7,-102 0,-1 -1,-3 -1,-8 -1,-5 -1,-8 -2,-10 0,-3 -1,-6 -1,-10 -1,-4 -2,-8 -3,-10 0,-1 0,-2 -1,-4l23 0c28,0 44,-4 48,-10 3,-5 1,-9 -8,-12 -2,-2 -8,-4 -17,-4 -16,-3 -36,-5 -59,-5 -1,0 -3,0 -5,0 -26,-1 -52,1 -78,6 -26,4 -41,9 -44,13 -2,4 0,7 7,9 7,1 18,3 32,3 10,0 18,0 24,0 7,0 15,0 23,0 8,0 14,0 16,0l14 0c-5,21 -6,60 -5,117z"/>
  <path id="1" class="fil4" d="M2113 1185l0 0c-1,9 -5,18 -14,29l0 -2c1,-2 2,-5 3,-8 2,-7 6,-12 9,-17 1,-1 1,-2 2,-2zm-23 57c8,-1 16,-5 24,-11 14,-8 24,-19 31,-31 5,-9 7,-17 6,-24 0,-1 0,-4 -2,-8 0,-1 -1,-3 -2,-5 -1,-1 -2,-2 -3,-3 -1,-1 -2,-1 -2,-2 -2,-2 -7,-4 -14,-6 -2,-1 -5,-2 -8,-2 0,0 -2,0 -3,0 -1,0 -2,0 -3,0l-4 0 -4 1c-8,2 -14,4 -19,8 -1,1 -5,4 -9,9 -5,4 -9,9 -12,15 -3,6 -7,14 -11,23 -6,22 -10,36 -11,41 -2,10 -2,19 0,28l0 3c1,2 1,4 1,5l2 3c0,0 0,1 0,1l1 2 1 3c0,0 1,1 1,3 0,1 1,2 1,3 1,0 1,1 2,2 1,2 2,2 2,3 4,3 8,6 12,7 2,2 5,2 8,3 1,0 4,1 8,1 6,1 11,1 16,0 9,-2 17,-6 24,-13 1,-1 3,-3 7,-8 0,0 1,-1 1,-2 1,-1 2,-2 2,-3 1,-1 2,-2 2,-3 1,-2 1,-3 2,-4 1,-2 1,-3 1,-4 2,-6 3,-12 3,-17 -1,-5 -2,-8 -5,-9 -5,-2 -12,1 -20,10 -1,1 -1,1 -2,2 -1,1 -3,2 -5,4 -1,2 -3,4 -6,7 -2,3 -4,6 -6,8 -2,1 -3,2 -4,3l-3 0c-1,0 -1,-1 -1,-1l0 -1 -1 -2c0,-2 -1,-3 -1,-5 0,-2 0,-6 0,-10 0,-6 0,-12 2,-18 0,-1 1,-3 1,-6z"/>
  <path id="2" class="fil4" d="M2350 1270c4,-11 4,-26 0,-46 -1,-2 -1,-6 -3,-11 0,-2 -1,-4 -2,-6 0,-1 -1,-2 -2,-4 0,-3 -1,-5 -2,-6 0,-1 -1,-3 -2,-5 -1,-2 -2,-4 -3,-6l0 0 -1 -2 -2 -2c-1,-2 -2,-4 -2,-4l-2 -3 -1 0c0,0 0,0 0,-1l-2 0 -4 -2c0,0 -1,-1 -2,-1 -1,0 -1,-1 -2,-1 -2,-1 -4,-1 -6,-1 -5,0 -9,1 -12,2 -2,0 -4,1 -6,2 -1,0 -2,1 -3,1 -2,1 -3,2 -3,2l-6 4c-1,0 -3,2 -5,5l-6 5 -4 5c-3,-6 -7,-12 -13,-15 -1,-2 -5,-3 -9,-5 -4,-1 -8,-1 -13,-1 -4,0 -8,0 -11,2 -3,0 -5,1 -6,2 -2,1 -4,2 -5,2 -9,7 -15,13 -19,20 -2,4 -3,6 -3,6 -1,-1 -1,-2 -2,-6 0,-3 -1,-6 -1,-9 -1,-2 -2,-4 -2,-5 -4,-7 -8,-6 -12,4 -1,1 -1,3 -1,4 -5,16 -8,35 -8,59 0,12 1,25 4,39l0 5 1 3 0 1c0,3 2,5 5,8 3,2 6,4 10,4 3,1 7,1 11,1 4,-1 8,-2 11,-4 3,-2 5,-4 7,-7 0,-1 0,-1 0,-2l0 -2 1 -2 1 -5c2,-9 4,-15 5,-21 0,-4 2,-11 3,-20 1,-4 2,-11 3,-20 0,-3 0,-5 1,-8 0,0 0,-1 1,-2 0,-1 0,-1 0,-2 0,0 1,0 1,-1 0,0 0,0 0,0l1 -1 0 -1c0,0 0,0 0,0 0,0 0,0 0,1 0,1 0,3 1,5 1,3 1,5 2,6 0,2 1,7 2,16 4,10 5,18 5,22 0,5 3,10 9,16 5,6 13,7 23,3 9,-5 16,-22 21,-52 2,-5 4,-8 6,-11 0,-1 1,-2 1,-3 1,-1 2,-2 2,-3l1 -3 0 0c0,-1 1,-1 1,-1 0,0 1,0 1,0l1 1 1 2c0,1 1,2 2,4 0,2 1,4 1,5 5,11 8,22 10,33 0,3 1,8 2,13 1,5 2,9 2,12 1,3 1,5 2,8 1,2 2,4 3,5 3,4 6,3 10,-1 6,-5 11,-13 13,-24z"/>
  <path id="3" class="fil4" d="M2432 1314c11,1 22,-3 31,-10 5,-4 8,-8 11,-12l2 -3 1 -2c1,-2 2,-4 2,-4 2,-6 4,-12 4,-17 0,0 0,-1 0,-2 0,-1 0,-2 1,-3 0,-6 0,-13 -1,-20 -2,-9 -4,-16 -5,-21 -3,-8 -7,-15 -11,-20 -2,-2 -3,-4 -4,-5l-3 -2 0 -1 -1 -1 -2 -1c-5,-5 -10,-8 -16,-11 -3,-1 -8,-1 -12,-2 -6,0 -10,1 -13,2 -8,3 -15,7 -19,14 -3,-4 -5,-6 -7,-7 -7,-2 -11,0 -14,6 -2,7 -3,17 -3,29 0,17 1,36 4,58 0,3 1,11 1,25 1,13 2,24 3,32 3,27 10,41 19,43 7,1 13,-2 17,-9 3,-3 5,-8 5,-16 2,-11 2,-25 1,-41 3,1 6,1 9,1zm-22 -88c-1,-4 -2,-8 -3,-11 1,-1 3,-3 5,-5 1,-1 3,-2 4,-3 0,-1 1,-1 2,-2l1 -1 2 0c1,-1 2,-1 4,0l0 0 0 1c3,4 5,9 7,13 2,7 4,14 5,23 1,9 1,17 0,24 -1,6 -2,10 -4,13l0 1c0,0 0,1 -1,1l-2 0c0,0 -1,0 -1,-1l-1 0 0 0 -2 -1c-2,-2 -3,-4 -5,-5 -2,-16 -6,-31 -11,-47z"/>
  <path id="4" class="fil4" d="M2604 1192l-20 -2c-2,4 -5,12 -9,24 -5,13 -8,22 -10,28 0,0 -1,1 -1,2 -1,1 -2,2 -2,3 0,1 -1,2 -1,3 -4,8 -7,14 -9,17 -1,1 -2,3 -3,4 -1,2 -2,3 -3,4l-1 2c0,0 0,0 0,0l-2 0 0 0 0 -7c0,-4 1,-10 2,-18 2,-11 6,-23 12,-35 3,-8 7,-16 13,-24 1,-1 2,-2 3,-5 2,-2 3,-4 4,-5 3,-3 6,-5 8,-5 4,-1 7,-1 10,1 3,1 5,3 6,5 0,1 1,3 2,4 0,1 1,2 1,4zm14 -18c-2,-5 -5,-9 -10,-12 -6,-3 -13,-5 -20,-6 -8,0 -15,2 -22,5 -4,2 -7,4 -9,6 -1,1 -3,2 -5,4 -1,2 -3,3 -4,4 -7,6 -13,13 -19,22 -11,15 -19,32 -24,50 -3,12 -4,20 -4,26l0 9c0,1 0,1 0,3 0,1 0,2 0,2 0,1 0,2 1,3 0,1 0,2 0,2 2,7 5,13 9,17 4,4 9,7 15,9 4,1 7,1 9,1 3,0 6,0 8,0 3,-1 5,-1 7,-2 1,0 2,0 3,-1 1,0 1,0 2,0 1,-1 1,-1 2,-1 1,-1 3,-2 6,-4 1,-1 3,-2 4,-3 5,-4 10,-9 16,-15l2 -2 1 -1c1,-2 2,-3 2,-3 1,0 1,-1 2,-3 1,-1 2,-2 2,-2 2,-2 3,-4 4,-7 4,11 8,19 13,26 6,8 12,12 16,13 5,1 7,0 8,-5 0,-3 0,-9 -2,-19 0,-1 0,-4 0,-7 0,-3 -1,-7 -2,-12 0,-5 -1,-9 -1,-13 -1,-8 -2,-27 -2,-57 1,-1 1,-2 2,-3l-2 0 0 -5 -9 -1c4,-6 4,-13 1,-18z"/>
  <path id="5" class="fil4" d="M2691 1141c0,-1 -1,-4 -3,-9 -1,-5 -2,-9 -3,-12 -1,-2 -2,-6 -3,-10 -1,-3 -3,-7 -5,-9 -1,-2 -3,-4 -5,-5 -6,-4 -11,-1 -14,9 -2,7 -4,17 -4,30l0 24c-1,1 -2,2 -2,4 0,2 1,4 2,6 1,10 2,21 3,32 3,34 5,55 7,65 5,30 13,46 23,48 7,2 12,-2 16,-11 2,-3 3,-8 3,-17 2,-17 1,-37 -2,-61l0 -5c-1,-16 -3,-31 -5,-45 6,0 11,0 12,0 11,-2 17,-6 18,-12 1,-5 0,-9 -2,-12 -1,-2 -4,-3 -7,-4 -5,-2 -12,-3 -23,-3 0,0 -1,0 -1,0l-4 0c0,-1 -1,-2 -1,-3z"/>
  <path id="6" class="fil4" d="M2835 1340c6,-4 13,-12 21,-25 19,-24 39,-55 63,-92 1,-2 3,-5 5,-8 27,-42 50,-83 70,-123 1,-2 3,-5 5,-9 2,-5 4,-8 5,-11 1,-2 3,-6 6,-11 2,-5 4,-8 5,-11 1,-2 2,-6 4,-10 2,-5 3,-8 4,-10 0,-2 0,-4 1,-7 1,-4 1,-6 0,-6 -5,-18 -43,28 -112,139 -5,9 -9,14 -9,15 -2,3 -6,9 -12,19 -12,19 -22,34 -30,46 -7,12 -16,27 -27,46 -11,19 -18,34 -23,46 -4,11 -5,19 -2,22 3,3 7,4 11,2 4,-2 9,-6 15,-12z"/>
  <path id="7" class="fil4" d="M3136 1298c4,-3 6,-10 6,-18 4,-17 6,-40 6,-69 1,-1 1,-2 1,-5 1,-30 -2,-60 -9,-89 -6,-30 -12,-47 -19,-50 -6,-4 -11,-1 -13,9 -3,7 -4,19 -4,34 0,11 0,21 0,29 0,8 0,16 0,26 0,9 1,15 1,18 0,1 -1,11 -1,29 0,17 0,32 0,42 0,33 5,52 13,55 8,3 14,-1 19,-11z"/>
  <path id="8" class="fil4" d="M3217 1201c0,1 1,2 1,3 1,3 2,6 2,9 0,7 0,12 -1,16 -1,7 -3,13 -4,17 -2,7 -4,13 -6,16 0,1 -1,2 -1,2 0,1 -1,2 -1,2l-1 1 0 1 0 -1 -1 1 0 -8c0,-1 0,-3 0,-5 0,-3 0,-4 0,-6 1,-7 2,-15 4,-22 1,-7 4,-15 8,-26zm13 -18c1,0 2,0 4,0 3,-1 3,-3 1,-6 -2,-2 -4,-3 -7,-4 -4,0 -8,0 -13,1 -5,1 -7,2 -8,3 -1,0 -2,1 -2,1 -1,1 -2,1 -3,2 -1,1 -1,1 -2,1 -2,3 -4,4 -5,5 -1,2 -2,3 -3,4 -4,4 -9,11 -15,21 -9,16 -14,32 -16,49l0 16c1,6 3,12 5,17 2,4 5,8 9,11 0,0 1,1 2,2 1,1 2,2 2,2 1,1 2,2 3,3 4,2 8,3 11,4 3,1 6,1 8,1 2,0 5,0 8,-1 0,0 2,0 3,-1 2,-1 3,-1 4,-1 3,-1 5,-3 7,-4 1,-1 2,-2 4,-4 1,-1 2,-2 3,-3 1,-1 2,-2 4,-4 2,-2 3,-3 4,-4 0,-1 1,-1 2,-2 0,-1 1,-2 1,-3 2,-2 3,-3 3,-4 2,-3 3,-4 3,-5l2 -4c3,-7 5,-11 5,-12 3,-8 5,-17 5,-25 1,-9 0,-17 -1,-23 -2,-8 -5,-16 -11,-22 -5,-5 -11,-8 -17,-11z"/>
  <path id="9" class="fil4" d="M3335 1292c2,1 5,3 9,6 3,2 7,5 10,7 3,2 5,3 7,5 9,5 16,8 21,7 7,-1 10,-6 8,-14 0,-4 -2,-9 -8,-15 -9,-12 -25,-25 -47,-42 -1,0 -2,-1 -4,-3l0 0 0 -1 0 0 2 -2 3 -3c7,-6 16,-15 27,-27 1,-1 2,-2 4,-4 1,-2 3,-3 3,-4 1,-1 2,-2 4,-4 2,-2 3,-4 4,-5 1,-1 2,-2 3,-5 2,-2 3,-3 3,-4 1,-1 1,-2 3,-4 1,-2 1,-3 1,-4 -1,0 -1,-1 -1,-2 -3,-5 -9,-5 -16,-2 -7,2 -17,8 -29,17 -3,2 -10,7 -18,14 -1,-35 -4,-67 -10,-96 -6,-33 -13,-52 -19,-56 -11,-7 -17,9 -18,49 0,12 0,28 1,48 0,21 0,31 0,32 0,3 1,13 1,33 0,20 0,35 1,47 2,37 8,57 17,61 6,3 11,-1 15,-10 1,-1 1,-2 2,-2 3,-4 5,-11 5,-22 1,-2 1,-4 1,-5 6,3 10,7 15,10z"/>
  <path id="10" class="fil4" d="M3507 1192l-20 -2c-2,4 -5,12 -9,24 -5,13 -8,22 -10,28 0,0 -1,1 -1,2 -1,1 -2,2 -2,3 0,1 -1,2 -1,3 -4,8 -7,14 -9,17 -1,1 -2,3 -3,4 -1,2 -2,3 -3,4l-1 2c0,0 0,0 0,0l-2 0 0 0 0 -7c0,-4 1,-10 2,-18 2,-11 6,-23 12,-35 3,-8 7,-16 13,-24 1,-1 2,-2 4,-5 1,-2 3,-4 3,-5 3,-3 6,-5 9,-5 3,-1 6,-1 9,1 3,1 5,3 6,5 0,1 1,3 2,4 0,1 1,2 1,4zm14 -18c-2,-5 -5,-9 -10,-12 -6,-3 -13,-5 -20,-6 -8,0 -15,2 -22,5 -4,2 -7,4 -9,6 -1,1 -3,2 -5,4 -1,2 -3,3 -4,4 -7,6 -13,13 -19,22 -11,15 -19,32 -24,50 -3,12 -4,20 -4,26l0 9c0,1 0,1 0,3 0,1 0,2 0,2 0,1 0,2 1,3 0,1 0,2 0,2 2,7 5,13 9,17 4,4 9,7 15,9 4,1 7,1 9,1 3,0 6,0 8,0 3,-1 5,-1 7,-2 1,0 2,0 3,-1 1,0 1,0 2,0 1,-1 1,-1 2,-1 1,-1 3,-2 6,-4 1,-1 3,-2 4,-3 5,-4 10,-9 16,-15l2 -2 1 -1c1,-2 2,-3 2,-3 1,0 1,-1 2,-3 1,-1 2,-2 2,-2 2,-2 3,-4 4,-7 4,11 8,19 13,26 6,8 12,12 16,13 5,1 8,0 8,-5 0,-3 0,-9 -2,-19 1,-1 1,-4 0,-7 0,-3 -1,-7 -2,-12 0,-5 -1,-9 -1,-13 -1,-8 -2,-27 -2,-57 1,-1 1,-2 2,-3l-2 0 0 -5 -9 -1c4,-6 4,-13 1,-18z"/>
  <path id="11" class="fil4" d="M3557 1290c1,3 3,6 8,10 4,4 10,7 18,10 9,4 21,6 34,6 15,-1 27,-4 38,-10 11,-6 18,-14 22,-24 3,-7 3,-15 1,-23 0,-3 -1,-5 -2,-8 -4,-9 -11,-18 -20,-26 -2,-2 -6,-6 -13,-10 -1,-1 -3,-3 -5,-4 -3,-2 -4,-4 -6,-4 -6,-6 -9,-10 -10,-14 -1,-4 0,-10 3,-15 0,0 0,-1 1,-1 0,0 0,0 0,-1l0 0c0,0 0,0 0,0 0,-1 1,-1 1,-1 0,-1 1,-2 2,-3 3,-2 6,-3 10,-2 4,0 7,2 10,6 0,1 1,2 1,4 1,3 2,4 3,5 1,2 3,3 5,3 1,0 2,-1 4,-2 0,0 1,0 1,-1 1,0 1,0 2,-1 0,-1 1,-1 1,-1 4,-5 5,-10 5,-16 -1,-8 -6,-14 -15,-19 -9,-3 -19,-4 -29,-2 -12,2 -22,7 -30,15 -7,5 -11,11 -13,17 -4,7 -4,14 -3,21 2,6 5,12 10,18 4,4 8,8 13,11 2,2 5,5 8,7 4,3 6,5 7,6 10,9 15,17 16,24 0,4 0,8 -3,12 -2,3 -6,6 -11,7 -5,2 -11,2 -18,2 -5,0 -11,-2 -16,-4 -2,-1 -6,-3 -11,-6 -5,-2 -9,-4 -12,-4 -4,-1 -7,0 -8,3 -2,5 -1,10 1,15z"/>
  <path id="12" class="fil4" d="M3740 1307c3,-2 5,-6 6,-12 3,-13 4,-27 2,-43 1,0 1,-1 1,-3 -1,-19 -4,-37 -9,-55 0,0 -1,-1 -1,-3 -1,-2 -1,-3 -2,-4 0,-1 -1,-2 -1,-4 -1,-2 -1,-3 -2,-5 0,-1 -1,-2 -2,-4 -1,-1 -2,-2 -2,-3 -1,-2 -2,-3 -3,-4 0,-1 -1,-2 -2,-2 -1,-1 -2,-2 -3,-2 -6,-2 -11,-1 -13,4 -3,5 -5,13 -6,23 0,7 0,13 0,18 0,5 0,10 0,16 0,6 0,10 0,11 1,3 1,7 1,15 0,8 0,14 1,20 0,6 1,12 2,19 1,7 3,13 6,17 2,4 6,7 10,8 7,1 13,-1 17,-7zm-14 -176c3,0 5,-1 5,-2 4,-2 6,-6 7,-11 0,0 0,0 0,0 2,-6 0,-11 -3,-15 0,0 0,-1 -1,-2 0,-1 -1,-1 -1,-2 -1,0 -1,-1 -2,-1 -1,-1 -2,-2 -2,-2 -1,-1 -2,-1 -4,-2 -1,0 -2,0 -4,0 -15,-4 -24,1 -25,15 0,0 0,0 0,1 -1,0 -1,1 -1,3 -1,1 -1,3 -1,4 0,1 0,2 0,4 0,2 1,3 2,4 1,1 2,3 4,4 2,1 5,2 9,2 6,1 12,1 17,0z"/>
  <path id="13" class="fil4" d="M3883 1310c-7,16 -12,30 -15,39 -12,33 -14,52 -6,57 5,4 12,2 21,-8 5,-2 9,-8 14,-18 11,-18 21,-40 30,-66 1,-1 2,-3 2,-5 12,-31 20,-61 24,-90 4,-31 4,-49 -1,-54 -6,-5 -13,0 -21,15 -3,6 -7,15 -11,26 0,0 -4,10 -10,28 -7,-18 -14,-34 -23,-48 0,0 -1,-2 -3,-6 -2,-3 -4,-6 -5,-7 -1,-2 -3,-4 -5,-7 -2,-2 -3,-4 -5,-5 -2,-2 -4,-3 -6,-3 -6,-1 -10,0 -12,6 -2,5 -2,13 -1,22 3,16 7,30 13,44 0,1 1,5 3,11 2,5 4,11 6,17 3,5 5,10 7,15 4,7 7,12 11,17 -2,5 -4,12 -7,20z"/>
  <path id="14" class="fil4" d="M4076 1192l-20 -2c-2,4 -5,12 -9,24 -5,13 -8,22 -10,28 0,0 -1,1 -1,2 -1,1 -2,2 -2,3 0,1 -1,2 -1,3 -4,8 -7,14 -9,17 -1,1 -2,3 -3,4 -1,2 -2,3 -3,4l-1 2c0,0 0,0 0,0l-2 0 0 0 0 -7c0,-4 1,-10 2,-18 3,-11 6,-23 12,-35 3,-8 7,-16 13,-24 1,-1 2,-2 4,-5 1,-2 3,-4 3,-5 3,-3 6,-5 9,-5 3,-1 6,-1 10,1 2,1 4,3 5,5 1,1 1,3 2,4 1,1 1,2 1,4zm14 -18c-2,-5 -5,-9 -10,-12 -6,-3 -12,-5 -20,-6 -8,0 -15,2 -22,5 -4,2 -7,4 -9,6 -1,1 -2,2 -5,4 -1,2 -3,3 -4,4 -6,6 -13,13 -19,22 -11,15 -19,32 -24,50 -3,12 -4,20 -4,26l0 9c0,1 0,1 0,3 0,1 0,2 0,2 0,1 0,2 1,3 0,1 0,2 1,2 1,7 4,13 8,17 4,4 9,7 15,9 4,1 7,1 9,1 4,0 6,0 8,0 3,-1 5,-1 7,-2 1,0 2,0 3,-1 1,0 1,0 2,0 1,-1 2,-1 2,-1 1,-1 3,-2 6,-4 1,-1 3,-2 4,-3 5,-4 10,-9 16,-15l2 -2 1 -1c1,-2 2,-3 2,-3 1,0 2,-1 3,-3 1,-1 1,-2 2,-2 1,-2 2,-4 3,-7 4,11 8,19 14,26 5,8 11,12 15,13 5,1 8,0 8,-5 0,-3 0,-9 -2,-19 1,-1 1,-4 0,-7 0,-3 -1,-7 -2,-12 0,-5 -1,-9 -1,-13 -1,-8 -2,-27 -2,-57 1,-1 1,-2 2,-3l-2 0 0 -5 -9 -1c4,-6 4,-13 1,-18z"/>
  <path id="15" class="fil4" d="M4120 1275c-1,5 -1,11 -1,16l0 19 2 0c1,1 1,1 1,2l38 -2 0 -1 3 0c-1,-8 -1,-19 0,-32 1,-4 1,-9 2,-14 1,-5 2,-9 2,-10 0,-1 0,-3 1,-6 1,-3 1,-5 1,-7l3 -10 1 -1 6 27c1,1 1,4 2,7 5,23 10,36 15,39 5,3 10,0 14,-10 1,-2 2,-5 2,-8 4,-6 5,-16 3,-30 0,-4 0,-11 -1,-21 0,0 0,-1 0,-2 0,-2 0,-3 0,-3l0 -2 -1 -2 -1 -6c0,-1 0,-2 -1,-5 0,-2 0,-4 0,-5l0 -5 -1 -3 0 -2 -2 -5c0,-2 -1,-3 -1,-4 -2,-3 -3,-5 -4,-7 -3,-3 -6,-6 -10,-10 -4,-2 -8,-4 -13,-5 -2,0 -5,-1 -9,-1 -2,1 -4,1 -5,1 -1,1 -3,1 -4,2 -1,0 -3,0 -3,1l-3 2 -1 1 -2 1c-2,3 -3,5 -5,7 -2,2 -3,4 -5,6 0,2 -1,2 -2,3 -12,-11 -19,17 -21,85z"/>
  <path id="16" class="fil4" d="M4320 1210l-37 1c0,13 -1,24 -2,34 -1,3 -1,6 -1,8l-2 8 0 3c0,1 -1,2 -2,2 -2,0 -3,-1 -3,-1 0,0 -1,-1 -1,-1l0 -1 0 0 -1 0 0 -1 0 -1c-1,-3 -2,-9 -3,-16 -1,-10 0,-20 3,-30 2,-7 4,-13 6,-16 0,-1 1,-3 4,-8 2,-2 3,-3 4,-3 2,-1 4,-2 7,-2 1,0 4,1 7,2 5,3 10,6 13,9 2,2 3,4 5,6 1,3 2,5 3,7zm-24 96c0,5 1,10 1,15 0,3 1,8 1,15 1,6 2,11 2,14 0,1 0,4 0,7 0,4 1,6 1,8l0 0 1 0 0 5 -1 0c-1,0 -2,0 -3,-1 -1,-1 -1,-1 -1,-2 -1,0 -1,0 -2,-1 -1,-1 -2,-3 -4,-6 -2,-3 -3,-5 -4,-6 -11,-16 -19,-26 -23,-28 -4,-2 -7,-1 -9,4 -1,4 0,12 3,24 0,2 0,5 2,8 0,2 1,4 1,5 1,1 1,1 1,2 0,0 1,1 1,1 0,0 0,1 0,2 1,0 1,1 1,1 1,1 1,2 3,5 1,2 2,4 3,6 1,2 3,6 6,10 4,7 9,15 15,22 9,12 17,22 22,30l4 -2 3 -2 1 -1c0,0 1,0 1,-1 1,0 1,-1 1,-1 1,0 1,-1 2,-2 1,-1 2,-1 2,-2 7,-7 11,-11 13,-14l2 -2c0,-1 0,-2 1,-3l0 -1c0,0 0,-1 1,-1l0 -3c1,-5 1,-9 2,-14 0,-1 -1,-12 -2,-35 -1,-24 -3,-47 -6,-71 0,-1 0,-3 0,-6 0,-2 -1,-5 -1,-6 -3,-25 -5,-46 -8,-61 1,0 1,0 1,-1 4,-5 5,-12 2,-20 -2,-7 -6,-12 -12,-17 -4,-4 -9,-7 -14,-9 -7,-2 -15,-3 -22,-3 -8,0 -16,3 -23,7 0,0 -1,1 -2,2 -1,1 -2,1 -2,1 -1,1 -2,2 -3,2l-1 2c-3,3 -4,5 -5,6 -5,7 -9,15 -12,23 -6,18 -8,35 -4,53l0 2 0 1 1 2 2 6c0,1 1,3 2,6 1,2 1,4 2,5l1 2 2 2 3 5c2,3 4,5 8,8 6,3 13,6 21,6 4,1 8,1 13,0 2,-1 5,-2 9,-3z"/>
  <path id="17" class="fil4" d="M4620 1270c4,-11 4,-26 0,-46 0,-2 -1,-6 -3,-11 0,-2 -1,-4 -2,-6 0,-1 -1,-2 -1,-4 -1,-3 -2,-5 -3,-6 0,-1 -1,-3 -2,-5 -1,-2 -2,-4 -3,-6l0 0 -1 -2 -1 -2c-2,-2 -3,-4 -3,-4l-2 -3 -1 0c0,0 0,0 0,-1l-1 0 -5 -2c0,0 -1,-1 -2,-1 -1,0 -1,-1 -2,-1 -2,-1 -4,-1 -6,-1 -5,0 -9,1 -12,2 -2,0 -4,1 -6,2 -1,0 -2,1 -3,1 -2,1 -3,2 -3,2l-6 4c-1,0 -3,2 -5,5l-5 5 -5 5c-3,-6 -7,-12 -12,-15 -2,-2 -6,-3 -10,-5 -4,-1 -8,-1 -13,-1 -4,0 -7,0 -11,2 -3,0 -4,1 -6,2 -2,1 -4,2 -5,2 -8,7 -15,13 -19,20 -2,4 -3,6 -3,6 -1,-1 -1,-2 -1,-6 -1,-3 -2,-6 -2,-9 -1,-2 -2,-4 -2,-5 -4,-7 -8,-6 -12,4 0,1 -1,3 -1,4 -5,16 -8,35 -8,59 0,12 1,25 4,39l0 5 1 3 0 1c0,3 2,5 5,8 3,2 6,4 10,4 3,1 7,1 11,1 4,-1 8,-2 11,-4 3,-2 6,-4 7,-7 0,-1 0,-1 0,-2l0 -2 1 -2 1 -5c2,-9 4,-15 5,-21 1,-4 2,-11 3,-20 1,-4 2,-11 3,-20 0,-3 1,-5 1,-8 0,0 0,-1 1,-2 0,-1 0,-1 1,-2 0,0 0,0 0,-1 0,0 0,0 0,0l1 -1 0 -1c0,0 0,0 0,0 0,0 0,0 0,1 0,1 1,3 1,5 1,3 1,5 2,6 0,2 1,7 3,16 3,10 4,18 4,22 0,5 3,10 9,16 5,6 13,7 23,3 9,-5 16,-22 21,-52 2,-5 4,-8 6,-11 0,-1 1,-2 2,-3 0,-1 1,-2 1,-3l1 -3 0 0c0,-1 1,-1 1,-1 0,0 1,0 1,0l1 1 1 2c0,1 1,2 2,4 0,2 1,4 1,5 5,11 8,22 10,33 1,3 1,8 2,13 1,5 2,9 2,12 1,3 1,5 2,8 1,2 2,4 3,5 3,4 7,3 10,-1 6,-5 11,-13 13,-24z"/>
  <path id="18" class="fil4" d="M4707 1185l0 0c0,9 -5,18 -14,29l0 -2c1,-2 2,-5 3,-8 3,-7 6,-12 10,-17 0,-1 1,-2 1,-2zm-22 57c7,-1 15,-5 24,-11 13,-8 23,-19 30,-31 5,-9 7,-17 6,-24 0,-1 0,-4 -1,-8 -1,-1 -2,-3 -3,-5 -1,-1 -2,-2 -3,-3 -1,-1 -2,-1 -2,-2 -2,-2 -7,-4 -14,-6 -2,-1 -5,-2 -8,-2 0,0 -1,0 -3,0 -1,0 -2,0 -3,0l-4 0 -4 1c-7,2 -14,4 -18,8 -2,1 -6,4 -10,9 -5,4 -8,9 -12,15 -3,6 -7,14 -11,23 -6,22 -10,36 -11,41 -2,10 -2,19 0,28l0 3c1,2 1,4 1,5l2 3c0,0 0,1 0,1l1 2 1 3c0,0 1,1 1,3 1,1 1,2 1,3 1,0 1,1 2,2 1,2 2,2 2,3 4,3 8,6 12,7 3,2 5,2 8,3 1,0 4,1 8,1 6,1 11,1 16,0 9,-2 17,-6 24,-13 1,-1 3,-3 7,-8 0,0 1,-1 2,-2 0,-1 1,-2 1,-3 1,-1 2,-2 2,-3 1,-2 1,-3 2,-4 1,-2 1,-3 1,-4 2,-6 3,-12 3,-17 -1,-5 -2,-8 -5,-9 -5,-2 -12,1 -20,10 0,1 -1,1 -1,2 -2,1 -4,2 -5,4 -2,2 -4,4 -7,7 -2,3 -4,6 -6,8 -2,1 -3,2 -4,3l-3 0c-1,0 -1,-1 -1,-1l0 -1 -1 -2c0,-2 0,-3 0,-5 -1,-2 -1,-6 -1,-10 0,-6 1,-12 2,-18 1,-1 1,-3 2,-6z"/>
  <path id="19" class="fil4" d="M4944 1270c4,-11 4,-26 0,-46 0,-2 -1,-6 -3,-11 0,-2 -1,-4 -2,-6 0,-1 -1,-2 -1,-4 -1,-3 -2,-5 -3,-6 0,-1 -1,-3 -2,-5 -1,-2 -2,-4 -3,-6l0 0 -1 -2 -1 -2c-2,-2 -3,-4 -3,-4l-2 -3 -1 0c0,0 0,0 0,-1l-1 0 -5 -2c0,0 -1,-1 -2,-1 -1,0 -1,-1 -2,-1 -2,-1 -4,-1 -6,-1 -5,0 -9,1 -12,2 -2,0 -4,1 -6,2 -1,0 -2,1 -3,1 -2,1 -3,2 -3,2l-6 4c-1,0 -3,2 -5,5l-5 5 -5 5c-3,-6 -7,-12 -12,-15 -2,-2 -6,-3 -10,-5 -4,-1 -8,-1 -13,-1 -4,0 -7,0 -11,2 -3,0 -4,1 -6,2 -2,1 -4,2 -5,2 -8,7 -15,13 -19,20 -2,4 -3,6 -3,6 -1,-1 -1,-2 -1,-6 -1,-3 -2,-6 -2,-9 -1,-2 -2,-4 -2,-5 -4,-7 -8,-6 -12,4 0,1 -1,3 -1,4 -5,16 -8,35 -8,59 0,12 1,25 4,39l0 5 1 3 0 1c0,3 2,5 5,8 3,2 6,4 10,4 3,1 7,1 11,1 4,-1 8,-2 11,-4 3,-2 6,-4 7,-7 0,-1 0,-1 0,-2l0 -2 1 -2 1 -5c2,-9 4,-15 5,-21 1,-4 2,-11 3,-20 1,-4 2,-11 3,-20 0,-3 1,-5 1,-8 0,0 0,-1 1,-2 0,-1 0,-1 1,-2 0,0 0,0 0,-1 0,0 0,0 0,0l1 -1 0 -1c0,0 0,0 0,0 0,0 0,0 0,1 0,1 1,3 1,5 1,3 1,5 2,6 0,2 1,7 3,16 3,10 4,18 4,22 0,5 3,10 9,16 5,6 13,7 23,3 9,-5 16,-22 21,-52 2,-5 4,-8 6,-11 0,-1 1,-2 2,-3 0,-1 1,-2 1,-3l1 -3 0 0c0,-1 1,-1 1,-1 0,0 1,0 1,0l1 1 1 2c0,1 1,2 2,4 0,2 1,4 1,5 5,11 8,22 10,33 1,3 1,8 2,13 1,5 2,9 2,12 1,3 1,5 2,8 1,2 2,4 3,5 3,4 7,3 10,-1 6,-5 11,-13 13,-24z"/>
  <path id="20" class="fil4" d="M5067 1192l-20 -2c-2,4 -5,12 -9,24 -5,13 -8,22 -10,28 -1,0 -1,1 -2,2 0,1 -1,2 -1,3 0,1 -1,2 -1,3 -4,8 -7,14 -10,17 0,1 -1,3 -2,4 -1,2 -2,3 -3,4l-1 2c0,0 0,0 -1,0l-1 0 0 0 0 -7c0,-4 0,-10 2,-18 2,-11 6,-23 12,-35 3,-8 7,-16 13,-24 0,-1 2,-2 3,-5 2,-2 3,-4 4,-5 3,-3 6,-5 8,-5 4,-1 7,-1 10,1 3,1 4,3 5,5 1,1 2,3 3,4 0,1 1,2 1,4zm14 -18c-2,-5 -5,-9 -10,-12 -6,-3 -13,-5 -20,-6 -8,0 -15,2 -22,5 -4,2 -7,4 -9,6 -1,1 -3,2 -5,4 -2,2 -3,3 -4,4 -7,6 -13,13 -19,22 -11,15 -19,32 -24,50 -3,12 -5,20 -5,26l0 9c0,1 1,1 1,3 0,1 0,2 0,2 0,1 0,2 0,3 1,1 1,2 1,2 2,7 5,13 9,17 4,4 9,7 15,9 4,1 7,1 8,1 4,0 7,0 9,0 3,-1 5,-1 7,-2 1,0 2,0 3,-1 1,0 1,0 2,0 1,-1 1,-1 2,-1 0,-1 2,-2 5,-4 2,-1 4,-2 5,-3 5,-4 10,-9 16,-15l2 -2 1 -1c1,-2 2,-3 2,-3 1,0 1,-1 2,-3 1,-1 2,-2 2,-2 1,-2 3,-4 4,-7 3,11 8,19 13,26 6,8 11,12 16,13 5,1 7,0 8,-5 0,-3 0,-9 -2,-19 0,-1 0,-4 0,-7 0,-3 -1,-7 -2,-12 -1,-5 -1,-9 -2,-13 0,-8 -1,-27 -1,-57 1,-1 1,-2 1,-3l-1 0 0 -5 -9 -1c3,-6 4,-13 1,-18z"/>
  <path id="21" class="fil4" d="M5220 1301c6,2 10,-1 13,-9 0,-2 1,-3 1,-5 2,-4 2,-11 1,-21 0,-6 0,-31 -2,-75 1,-1 1,-3 1,-6 1,-36 1,-69 -1,-98 0,-1 0,-5 0,-11 -1,-6 -1,-11 -1,-15 0,-4 -1,-8 -1,-13 -1,-4 -2,-8 -3,-12 -1,-3 -2,-5 -4,-6 -8,-8 -16,3 -23,33 -1,4 -2,9 -3,13 -6,29 -8,57 -8,82l0 3c-4,0 -8,1 -11,2 -4,2 -9,4 -14,7 -1,1 -2,1 -3,3 -2,1 -3,1 -3,2 -1,0 -1,1 -2,1 0,1 -1,1 -1,2 -11,8 -18,16 -24,24 -9,13 -15,27 -17,41 -1,9 -1,14 -1,17 0,1 0,3 0,5 1,3 1,5 1,6 0,4 1,8 3,12 2,5 4,10 7,12 4,6 9,11 14,14 4,2 8,4 13,5 5,2 10,3 15,3 9,0 18,-1 27,-5 6,-3 12,-6 17,-11 1,-1 2,-2 3,-3 2,1 4,2 6,3zm-28 -29c-5,5 -9,9 -13,11 -3,2 -5,3 -6,3 -2,0 -3,1 -3,1l0 -1 -2 0c-1,-1 -2,-1 -2,-2 -3,-4 -5,-7 -6,-11 0,-2 0,-3 0,-5 -2,-13 -1,-27 4,-41 3,-6 6,-13 11,-19l3 -5 4 -4c0,-1 1,-2 2,-2 1,-1 2,-2 2,-3 1,-1 2,-1 2,-2l0 -1c1,0 1,0 1,0 0,20 1,37 3,49 1,10 3,19 6,26 -2,2 -4,4 -6,6z"/>
  <path id="22" class="fil4" d="M5360 1192l-21 -2c-1,4 -4,12 -9,24 -4,13 -8,22 -9,28 -1,0 -1,1 -2,2 -1,1 -1,2 -1,3 -1,1 -1,2 -2,3 -3,8 -7,14 -9,17 -1,1 -2,3 -3,4 -1,2 -1,3 -2,4l-1 2c0,0 -1,0 -1,0l-1 0 -1 0 0 -7c0,-4 1,-10 3,-18 2,-11 6,-23 11,-35 3,-8 8,-16 13,-24 1,-1 2,-2 4,-5 2,-2 3,-4 4,-5 2,-3 5,-5 8,-5 3,-1 7,-1 10,1 2,1 4,3 5,5 1,1 2,3 3,4 0,1 0,2 1,4zm14 -18c-2,-5 -6,-9 -11,-12 -6,-3 -12,-5 -19,-6 -8,0 -16,2 -22,5 -4,2 -7,4 -10,6 0,1 -2,2 -4,4 -2,2 -3,3 -4,4 -7,6 -13,13 -19,22 -12,15 -20,32 -25,50 -2,12 -4,20 -4,26l0 9c0,1 0,1 0,3 1,1 1,2 1,2 0,1 0,2 0,3 0,1 1,2 1,2 2,7 4,13 9,17 4,4 8,7 14,9 4,1 7,1 9,1 4,0 7,0 8,0 3,-1 6,-1 7,-2 1,0 3,0 4,-1 0,0 1,0 2,0 0,-1 1,-1 1,-1 1,-1 3,-2 6,-4 2,-1 3,-2 5,-3 4,-4 10,-9 16,-15l1 -2 2 -1c1,-2 1,-3 2,-3 0,0 1,-1 2,-3 1,-1 2,-2 2,-2 1,-2 2,-4 3,-7 4,11 8,19 14,26 6,8 11,12 16,13 4,1 7,0 7,-5 1,-3 0,-9 -1,-19 0,-1 0,-4 0,-7 -1,-3 -1,-7 -2,-12 -1,-5 -2,-9 -2,-13 -1,-8 -1,-27 -1,-57 0,-1 1,-2 1,-3l-1 0 0 -5 -9 -1c3,-6 3,-13 1,-18z"/>
  <path id="23" class="fil4" d="M5452 1307c3,-2 5,-6 5,-12 4,-13 5,-27 3,-43 1,0 1,-1 1,-3 -1,-19 -4,-37 -10,-55 0,0 0,-1 0,-3 -1,-2 -1,-3 -2,-4 0,-1 -1,-2 -1,-4 -1,-2 -2,-3 -2,-5 -1,-1 -1,-2 -2,-4 -1,-1 -2,-2 -2,-3 -1,-2 -2,-3 -3,-4 -1,-1 -2,-2 -2,-2 -1,-1 -2,-2 -3,-2 -6,-2 -11,-1 -13,4 -3,5 -5,13 -6,23 0,7 0,13 0,18 0,5 0,10 0,16 0,6 0,10 0,11 1,3 1,7 1,15 0,8 0,14 0,20 1,6 2,12 3,19 1,7 3,13 6,17 2,4 6,7 10,8 7,1 13,-1 17,-7zm-14 -176c3,0 5,-1 5,-2 4,-2 6,-6 7,-11 0,0 0,0 0,0 1,-6 0,-11 -3,-15 0,0 -1,-1 -1,-2 -1,-1 -1,-1 -2,-2 0,0 -1,-1 -1,-1 -1,-1 -2,-2 -3,-2 0,-1 -2,-1 -3,-2 -1,0 -3,0 -4,0 -15,-4 -24,1 -25,15 0,0 0,0 -1,1 0,0 0,1 -1,3 0,1 0,3 0,4 -1,1 -1,2 0,4 0,2 0,3 1,4 1,1 3,3 5,4 2,1 5,2 9,2 6,1 12,1 17,0z"/>
  <path class="fil4" d="M1136 1751c20,23 35,38 42,46 37,38 61,57 72,57 7,0 7,-7 1,-19 -1,-6 -6,-14 -15,-24 -17,-23 -39,-49 -66,-79 -1,-2 -2,-3 -5,-6l-5 -6c-1,-1 -1,-1 -2,-2 -1,-1 -2,-2 -2,-3 -1,0 -1,-1 -2,-1l-1 -3c0,0 0,-1 1,-2 0,-1 2,-3 3,-4 1,-2 2,-4 3,-5 1,-1 3,-3 5,-6 2,-3 4,-6 5,-7 9,-13 20,-30 35,-54 1,-1 3,-4 6,-9 3,-4 5,-8 6,-11 2,-2 4,-6 7,-10 2,-5 4,-9 6,-12 1,-3 3,-6 4,-9 2,-4 3,-7 4,-9 0,-2 0,-4 0,-6 -3,-10 -19,0 -47,33 -3,3 -7,7 -11,12 -10,12 -23,28 -40,50 -2,2 -4,6 -8,10 -2,3 -4,5 -6,7 -1,-22 -4,-42 -8,-61 0,-1 0,-3 -1,-7 0,-3 -1,-5 -1,-7 -1,-1 -1,-4 -2,-7 0,-3 -1,-5 -1,-7 -1,-2 -2,-4 -3,-7 0,-3 -1,-5 -2,-7 -1,-1 -1,-3 -2,-5 -1,-2 -2,-3 -3,-5 -1,-1 -2,-2 -3,-3 -6,-3 -11,0 -14,10 -2,8 -4,20 -5,37 0,12 0,22 0,30 0,8 0,18 0,28 1,11 1,17 1,19 0,2 0,13 0,32 0,19 1,34 1,45 2,36 8,55 17,59 8,2 14,-2 18,-12l0 -1c3,-3 5,-10 5,-20 3,-13 4,-29 4,-49 4,5 7,8 9,10z"/>
  <path id="1" class="fil4" d="M1367 1723l-20 -1c-2,4 -5,12 -9,24 -5,12 -8,21 -10,27 0,1 -1,1 -1,2 -1,1 -2,3 -2,4 0,1 -1,2 -1,2 -4,8 -7,14 -9,18 -1,1 -2,2 -3,4 -1,2 -2,3 -3,4l-1 1c0,1 0,1 0,1l-2 0 0 0 0 -7c0,-4 1,-10 2,-18 2,-12 6,-24 12,-36 3,-7 7,-15 13,-23 1,-1 2,-3 4,-5 1,-2 3,-4 3,-5 3,-3 6,-5 9,-6 3,-1 6,0 10,1 2,2 4,3 5,6 1,1 1,2 2,3 0,2 1,3 1,4zm14 -18c-2,-4 -5,-8 -10,-11 -6,-4 -12,-6 -20,-6 -8,0 -15,1 -22,4 -4,2 -7,4 -9,7 -1,0 -3,2 -5,4 -1,1 -3,3 -4,3 -6,7 -13,14 -19,23 -11,15 -19,31 -24,50 -3,11 -4,20 -4,26l0 9c0,0 0,1 0,2 0,2 0,2 0,3 0,0 0,1 1,3 0,1 0,2 0,2 2,7 5,12 9,17 4,4 9,7 15,9 4,1 7,1 9,1 4,0 6,0 8,0 3,-1 5,-1 7,-2 1,0 2,-1 3,-1 1,0 1,0 2,-1 1,0 1,0 2,-1 1,0 3,-1 6,-3 1,-1 3,-2 4,-4 5,-3 10,-8 16,-14l2 -2 1 -1c1,-2 2,-3 2,-3 1,-1 2,-2 3,-3 1,-1 1,-2 2,-3 1,-2 2,-4 3,-6 4,10 8,19 13,26 6,7 12,11 16,13 5,1 8,-1 8,-5 0,-3 0,-9 -2,-19 1,-2 1,-4 0,-7 0,-3 -1,-7 -2,-12 0,-5 -1,-10 -1,-13 -1,-8 -2,-27 -2,-57 1,-1 1,-3 2,-4l-2 0 0 -4 -9 -1c4,-7 4,-13 1,-19z"/>
  <path id="2" class="fil4" d="M1503 1731c-1,-3 -2,-5 -4,-7 -3,-4 -5,-7 -6,-8 -3,-2 -5,-3 -9,-5 0,0 0,0 -1,0 -1,0 -1,-1 -2,-1 0,0 -1,0 -2,0 -2,0 -4,0 -7,0 -6,1 -11,3 -16,7 -5,4 -10,8 -13,13 -2,4 -4,7 -5,9 0,-3 -3,-6 -11,-11 -6,-3 -10,-1 -12,8 -2,7 0,43 4,109l42 -7c-1,-32 0,-56 3,-72 3,-15 10,-22 20,-22 0,0 1,0 1,1 1,0 1,0 2,0 0,0 1,0 1,0 1,1 1,1 2,1 4,2 8,4 11,4 5,0 7,-2 8,-5 0,-2 0,-4 -1,-6 0,0 0,-1 0,-1 0,-1 0,-2 -1,-2 -1,-1 -3,-3 -4,-5z"/>
  <path id="3" class="fil4" d="M1560 1841c-7,17 -12,30 -15,40 -11,33 -13,52 -6,57 6,4 13,1 22,-8 4,-2 8,-8 13,-18 11,-19 21,-41 30,-66 1,-2 2,-3 3,-5 11,-31 19,-61 23,-90 4,-31 4,-49 0,-54 -6,-5 -13,-1 -22,15 -3,6 -7,14 -11,25 0,1 -4,11 -10,29 -7,-18 -14,-34 -22,-48 -1,-1 -2,-3 -4,-6 -2,-3 -3,-6 -5,-8 -1,-1 -2,-3 -4,-6 -2,-2 -4,-4 -6,-6 -2,-1 -3,-2 -5,-2 -7,-2 -11,0 -13,6 -2,5 -2,12 -1,22 3,15 7,30 13,44 0,1 2,5 4,10 1,6 4,12 6,17 2,6 4,11 6,15 4,7 8,13 12,17 -2,6 -5,12 -8,20z"/>
  <path id="4" class="fil4" d="M1753 1723l-20 -1c-1,4 -5,12 -9,24 -4,12 -8,21 -10,27 0,1 -1,1 -1,2 -1,1 -1,3 -2,4 0,1 0,2 -1,2 -4,8 -7,14 -9,18 -1,1 -2,2 -3,4 -1,2 -2,3 -2,4l-2 1c0,1 0,1 0,1l-1 0 -1 0 0 -7c0,-4 1,-10 2,-18 3,-12 7,-24 12,-36 3,-7 8,-15 13,-23 1,-1 2,-3 4,-5 2,-2 3,-4 4,-5 2,-3 5,-5 8,-6 3,-1 7,0 10,1 2,2 4,3 5,6 1,1 2,2 2,3 1,2 1,3 1,4zm15 -18c-2,-4 -6,-8 -11,-11 -6,-4 -12,-6 -19,-6 -8,0 -16,1 -22,4 -4,2 -8,4 -10,7 -1,0 -2,2 -5,4 -1,1 -2,3 -4,3 -6,7 -12,14 -18,23 -12,15 -20,31 -25,50 -3,11 -4,20 -4,26l0 9c0,0 0,1 0,2 0,2 1,2 1,3 0,0 0,1 0,3 0,1 0,2 1,2 1,7 4,12 9,17 3,4 8,7 14,9 4,1 7,1 9,1 4,0 7,0 8,0 3,-1 6,-1 7,-2 1,0 2,-1 4,-1 0,0 1,0 1,-1 1,0 2,0 2,-1 1,0 3,-1 6,-3 2,-1 3,-2 5,-4 4,-3 10,-8 16,-14l1 -2 1 -1c2,-2 2,-3 3,-3 0,-1 1,-2 2,-3 1,-1 1,-2 2,-3 1,-2 2,-4 3,-6 4,10 8,19 14,26 6,7 11,11 16,13 4,1 7,-1 7,-5 1,-3 0,-9 -2,-19 1,-2 1,-4 0,-7 0,-3 -1,-7 -1,-12 -1,-5 -2,-10 -2,-13 -1,-8 -1,-27 -1,-57 0,-1 1,-3 1,-4l-1 0 0 -4 -10 -1c4,-7 4,-13 2,-19z"/>
  <path id="5" class="fil4" d="M1839 1781c-2,-5 -3,-12 -5,-19 -7,-23 -12,-37 -16,-42 -5,-6 -9,-3 -11,8 -3,17 -2,42 3,77 0,5 1,12 3,21l0 2c0,1 1,3 1,4 3,3 5,6 9,7 3,2 7,3 11,4 5,0 9,0 12,-1 5,-1 8,-2 11,-5 3,-2 5,-5 6,-7l0 -1 1 -2c0,-2 1,-4 2,-5 0,0 0,-1 0,-2 0,-1 1,-2 1,-2l0 2 2 11c0,2 1,4 1,6l1 1 1 2c1,4 3,6 5,8 3,2 7,3 12,5 8,1 15,0 22,-2 5,-2 8,-5 9,-7 1,-1 1,-2 3,-4 0,-1 0,-2 0,-3l1 -5c0,-3 0,-6 1,-10 0,-5 1,-8 1,-10 3,-26 4,-50 3,-71 -1,-21 -4,-33 -9,-37 -7,-5 -13,2 -19,20l0 1c-2,5 -5,15 -7,31 -2,-4 -3,-10 -5,-16 -4,-11 -7,-20 -9,-25l-1 -3 0 -2 0 -1 -1 0c-1,0 -3,0 -7,0l-5 1 -1 0 -1 1 0 0 -1 1 -2 7c-2,5 -4,9 -6,14 -2,7 -7,23 -16,48z"/>
  <path id="6" class="fil4" d="M2051 1723l-20 -1c-2,4 -5,12 -9,24 -5,12 -8,21 -10,27 0,1 -1,1 -2,2 0,1 -1,3 -1,4 0,1 -1,2 -1,2 -4,8 -7,14 -9,18 -1,1 -2,2 -3,4 -1,2 -2,3 -3,4l-1 1c0,1 0,1 0,1l-2 0 0 0 0 -7c0,-4 1,-10 2,-18 2,-12 6,-24 12,-36 3,-7 7,-15 13,-23 0,-1 2,-3 3,-5 2,-2 3,-4 4,-5 3,-3 6,-5 8,-6 4,-1 7,0 10,1 3,2 5,3 6,6 0,1 1,2 2,3 0,2 1,3 1,4zm14 -18c-2,-4 -5,-8 -10,-11 -6,-4 -13,-6 -20,-6 -8,0 -15,1 -22,4 -4,2 -7,4 -9,7 -1,0 -3,2 -5,4 -1,1 -3,3 -4,3 -7,7 -13,14 -19,23 -11,15 -19,31 -24,50 -3,11 -4,20 -4,26l0 9c0,0 0,1 0,2 0,2 0,2 0,3 0,0 0,1 1,3 0,1 0,2 0,2 2,7 5,12 9,17 4,4 9,7 15,9 4,1 7,1 9,1 3,0 6,0 8,0 3,-1 5,-1 7,-2 1,0 2,-1 3,-1 1,0 1,0 2,-1 1,0 1,0 2,-1 1,0 3,-1 6,-3 1,-1 3,-2 4,-4 5,-3 10,-8 16,-14l2 -2 1 -1c1,-2 2,-3 2,-3 1,-1 1,-2 2,-3 1,-1 2,-2 2,-3 2,-2 3,-4 4,-6 4,10 8,19 13,26 6,7 12,11 16,13 5,1 7,-1 8,-5 0,-3 0,-9 -2,-19 0,-2 0,-4 0,-7 0,-3 -1,-7 -2,-12 0,-5 -1,-10 -1,-13 -1,-8 -2,-27 -2,-57 1,-1 1,-3 2,-4l-2 0 0 -4 -9 -1c4,-7 4,-13 1,-19z"/>
  <path id="7" class="fil4" d="M2094 1806c0,6 0,11 0,16l0 20 2 0c1,1 1,1 1,2l38 -2 0 -2 3 0c-1,-8 -1,-18 0,-32 1,-4 1,-8 2,-13 1,-6 2,-9 2,-11 0,0 0,-2 1,-5 1,-3 1,-6 1,-7l3 -11 1 0 6 26c0,2 1,4 2,8 5,23 10,36 14,39 6,3 11,0 15,-10 1,-2 2,-5 2,-8 4,-7 4,-17 3,-30 0,-5 0,-11 -1,-21 0,0 0,-1 0,-3 0,-1 0,-2 0,-3l0 -1 -1 -3 -1 -5c0,-1 0,-3 -1,-5 0,-2 0,-4 0,-5l0 -5 -1 -3 -1 -2 -1 -5c0,-2 -1,-3 -1,-4 -2,-3 -3,-5 -5,-7 -2,-3 -5,-7 -9,-10 -4,-3 -8,-4 -13,-5 -2,-1 -5,-1 -9,-1 -2,1 -4,1 -5,1 -2,0 -3,1 -4,1 -1,1 -3,1 -3,1l-3 2 -2 2 -1 1c-2,2 -3,4 -5,6 -2,3 -3,5 -5,7 0,1 -1,2 -2,3 -12,-11 -19,17 -22,84z"/>
  <path id="8" class="fil4" d="M2292 1871c6,-3 13,-11 22,-24 18,-24 39,-55 62,-93 2,-2 3,-4 5,-7 27,-42 51,-83 71,-123 0,-2 2,-5 4,-10 3,-4 4,-8 5,-10 2,-2 3,-6 6,-11 3,-5 4,-9 5,-11 1,-3 3,-6 5,-11 2,-4 3,-7 3,-9 0,-2 1,-4 2,-8 1,-3 1,-5 -1,-5 -5,-18 -42,28 -111,138 -6,10 -9,15 -10,15 -2,4 -6,10 -11,19 -13,19 -23,35 -30,47 -8,12 -17,27 -28,46 -11,19 -18,34 -22,46 -5,11 -6,19 -3,22 3,3 7,3 11,1 4,-2 9,-5 15,-12z"/>
  <path id="9" class="fil4" d="M2612 1732c0,2 1,3 1,4 1,3 2,6 2,9 0,6 0,11 -1,15 -1,8 -3,14 -4,18 -2,7 -4,12 -6,16 0,1 -1,1 -1,2 0,1 -1,2 -1,2l-1 1 0 0 0 0 -2 0 0 -7c0,-1 1,-3 1,-5 0,-3 0,-5 0,-6 1,-7 2,-15 4,-22 1,-7 4,-16 8,-27zm13 -17c1,-1 2,-1 4,-1 3,-1 3,-3 1,-5 -2,-2 -4,-3 -7,-4 -4,-1 -8,-1 -14,0 -4,2 -6,3 -7,3 -1,1 -2,1 -3,2 0,0 -1,1 -2,2 -1,0 -1,1 -2,1 -2,2 -4,4 -5,5 -1,1 -2,3 -3,4 -4,4 -9,11 -15,21 -9,15 -14,32 -16,49l0 15c1,7 3,13 5,18 2,4 5,7 9,11 0,0 1,1 2,2 1,1 2,1 2,2 1,0 2,1 3,2 4,3 8,4 11,5 3,0 6,1 8,1 2,0 4,-1 8,-1 0,0 2,-1 3,-1 2,-1 3,-1 4,-1 3,-2 5,-3 7,-5 1,0 2,-2 4,-3 1,-1 2,-3 3,-3 1,-1 2,-2 4,-4 2,-2 3,-3 4,-4 0,-1 1,-2 2,-3 0,-1 1,-1 1,-2 2,-2 3,-4 3,-5 2,-2 3,-4 3,-5l2 -3c3,-7 5,-11 5,-12 3,-9 4,-17 5,-25 1,-9 0,-17 -1,-24 -2,-8 -5,-15 -11,-21 -5,-5 -11,-9 -17,-11z"/>
  <path id="10" class="fil4" d="M2763 1731c-1,-3 -2,-5 -3,-7 -3,-4 -5,-7 -7,-8 -2,-2 -5,-3 -8,-5 0,0 -1,0 -1,0 -1,0 -1,-1 -2,-1 -1,0 -1,0 -2,0 -2,0 -5,0 -8,0 -6,1 -11,3 -15,7 -6,4 -10,8 -13,13 -3,4 -4,7 -6,9 1,-3 -3,-6 -10,-11 -6,-3 -11,-1 -12,8 -2,7 -1,43 4,109l42 -7c-2,-32 -1,-56 2,-72 3,-15 10,-22 21,-22 0,0 0,0 1,1 1,0 1,0 1,0 1,0 1,0 2,0 0,1 1,1 1,1 5,2 9,4 12,4 4,0 7,-2 8,-5 0,-2 -1,-4 -1,-6 0,0 -1,-1 -1,-1 0,-1 0,-2 0,-2 -2,-1 -3,-3 -5,-5z"/>
  <path id="11" class="fil4" d="M2890 1723l-21 -1c-1,4 -4,12 -9,24 -4,12 -8,21 -10,27 0,1 0,1 -1,2 -1,1 -1,3 -1,4 -1,1 -1,2 -2,2 -4,8 -7,14 -9,18 -1,1 -2,2 -3,4 -1,2 -2,3 -2,4l-1 1c0,1 -1,1 -1,1l-1 0 -1 0 0 -7c0,-4 1,-10 3,-18 2,-12 6,-24 11,-36 3,-7 8,-15 13,-23 1,-1 2,-3 4,-5 2,-2 3,-4 4,-5 2,-3 5,-5 8,-6 3,-1 7,0 10,1 2,2 4,3 5,6 1,1 2,2 2,3 1,2 1,3 2,4zm14 -18c-2,-4 -6,-8 -11,-11 -6,-4 -12,-6 -19,-6 -8,0 -16,1 -22,4 -4,2 -7,4 -10,7 -1,0 -2,2 -4,4 -2,1 -3,3 -5,3 -6,7 -12,14 -18,23 -12,15 -20,31 -25,50 -3,11 -4,20 -4,26l0 9c0,0 0,1 0,2 1,2 1,2 1,3 0,0 0,1 0,3 0,1 0,2 1,2 1,7 4,12 9,17 4,4 8,7 14,9 4,1 7,1 9,1 4,0 7,0 8,0 3,-1 6,-1 7,-2 1,0 3,-1 4,-1 0,0 1,0 1,-1 1,0 2,0 2,-1 1,0 3,-1 6,-3 2,-1 3,-2 5,-4 4,-3 10,-8 16,-14l1 -2 1 -1c2,-2 2,-3 3,-3 0,-1 1,-2 2,-3 1,-1 1,-2 2,-3 1,-2 2,-4 3,-6 4,10 8,19 14,26 6,7 11,11 16,13 4,1 7,-1 7,-5 1,-3 0,-9 -1,-19 0,-2 0,-4 0,-7 -1,-3 -1,-7 -2,-12 -1,-5 -2,-10 -2,-13 -1,-8 -1,-27 -1,-57 0,-1 1,-3 1,-4l-1 0 0 -4 -10 -1c4,-7 4,-13 2,-19z"/>
  <path id="12" class="fil4" d="M2933 1806c-1,6 -1,11 -1,16l0 20 3 0c0,1 0,1 0,2l39 -2 0 -2 2 0c-1,-8 -1,-18 1,-32 0,-4 1,-8 2,-13 1,-6 1,-9 1,-11 0,0 1,-2 1,-5 1,-3 2,-6 2,-7l2 -11 1 0 6 26c1,2 1,4 2,8 6,23 11,36 15,39 5,3 10,0 15,-10 0,-2 1,-5 2,-8 3,-7 4,-17 3,-30 0,-5 -1,-11 -1,-21 0,0 0,-1 -1,-3 0,-1 0,-2 0,-3l0 -1 -1 -3 0 -5c0,-1 -1,-3 -1,-5 -1,-2 -1,-4 -1,-5l0 -5 0 -3 -1 -2 -1 -5c-1,-2 -2,-3 -2,-4 -1,-3 -3,-5 -4,-7 -2,-3 -6,-7 -10,-10 -4,-3 -8,-4 -13,-5 -1,-1 -4,-1 -9,-1 -2,1 -4,1 -5,1 -1,0 -2,1 -3,1 -2,1 -3,1 -4,1l-2 2 -2 2 -1 1c-2,2 -4,4 -5,6 -2,3 -4,5 -5,7 -1,1 -2,2 -2,3 -12,-11 -19,17 -22,84z"/>
  <path id="13" class="fil4" d="M3133 1741l-37 2c0,13 0,24 -2,34 0,3 -1,5 -1,8l-2 8 0 2c0,2 -1,2 -2,3 -1,0 -2,-1 -3,-2 0,0 0,0 0,-1l-1 0 0 -1 0 0 0 0 -1 -1c-1,-4 -2,-9 -3,-16 -1,-10 0,-20 3,-30 2,-8 5,-13 6,-17 0,0 2,-3 4,-7 2,-2 4,-3 4,-4 2,0 4,-1 7,-1 2,0 4,1 7,2 6,2 10,6 13,9 2,2 4,4 5,6 1,2 2,4 3,6zm-24 97c1,5 1,10 1,15 1,3 1,8 2,14 0,7 1,12 1,15 0,1 0,3 1,7 0,3 0,6 1,7l0 1 0 0 0 5 0 0c-1,0 -2,-1 -4,-2 -1,0 -1,-1 -1,-1 -1,0 -1,-1 -2,-1 -1,-2 -2,-3 -4,-6 -2,-3 -3,-5 -4,-6 -11,-17 -18,-26 -22,-28 -5,-3 -8,-1 -9,4 -1,4 0,12 2,23 0,3 1,6 2,9 1,2 1,4 2,5 0,0 0,1 1,2 0,0 0,1 0,1 0,0 1,1 1,1 0,1 0,2 1,2 0,1 1,2 2,5 1,2 2,4 3,5 1,3 3,6 6,11 5,7 9,14 15,22 9,12 17,22 23,29l3 -2 3 -1 1 -1c1,0 1,0 2,-1 0,0 1,-1 1,-1 0,-1 1,-1 2,-2 1,-1 1,-2 2,-2 6,-7 11,-12 13,-15l1 -1c0,-1 1,-2 1,-3l1 -1c0,0 0,-1 0,-1l0 -3c1,-5 2,-10 2,-14 0,-1 -1,-13 -2,-36 -1,-23 -3,-47 -6,-70 0,-1 0,-3 0,-6 0,-3 0,-5 0,-6 -3,-26 -6,-46 -8,-61 0,0 0,0 1,-1 4,-5 4,-12 1,-20 -1,-7 -5,-13 -11,-18 -5,-3 -10,-6 -14,-8 -8,-3 -15,-4 -23,-3 -8,0 -15,2 -22,7 -1,0 -1,1 -2,1 -1,1 -2,2 -3,2 0,1 -1,1 -2,2l-2 2c-2,2 -4,4 -4,6 -6,7 -10,15 -12,23 -7,17 -9,35 -5,53l0 2 0 1 1 1 2 6c0,2 1,4 2,6 1,3 2,5 2,6l1 2 2 2 3 5c2,2 5,5 8,7 6,4 13,6 22,7 3,1 8,0 12,-1 3,0 6,-1 9,-2z"/>
  <path id="14" class="fil4" d="M3284 1841c-6,17 -11,30 -14,40 -12,33 -14,52 -6,57 5,4 12,1 21,-8 4,-2 9,-8 14,-18 11,-19 21,-41 30,-66 1,-2 1,-3 2,-5 12,-31 20,-61 24,-90 4,-31 4,-49 -1,-54 -6,-5 -13,-1 -21,15 -4,6 -7,14 -12,25 0,1 -3,11 -10,29 -6,-18 -14,-34 -22,-48 0,-1 -1,-3 -3,-6 -2,-3 -4,-6 -5,-8 -1,-1 -3,-3 -5,-6 -2,-2 -4,-4 -5,-6 -2,-1 -4,-2 -6,-2 -6,-2 -10,0 -12,6 -2,5 -3,12 -1,22 2,15 7,30 13,44 0,1 1,5 3,10 2,6 4,12 6,17 2,6 5,11 7,15 3,7 7,13 11,17 -2,6 -4,12 -8,20z"/>
  <path id="15" class="fil4" d="M3478 1723l-20 -1c-2,4 -5,12 -9,24 -5,12 -8,21 -10,27 -1,1 -1,1 -2,2 0,1 -1,3 -1,4 0,1 -1,2 -1,2 -4,8 -7,14 -10,18 0,1 -1,2 -2,4 -1,2 -2,3 -3,4l-1 1c0,1 0,1 -1,1l-1 0 0 0 0 -7c0,-4 0,-10 2,-18 2,-12 6,-24 12,-36 3,-7 7,-15 13,-23 0,-1 2,-3 3,-5 2,-2 3,-4 4,-5 3,-3 6,-5 8,-6 4,-1 7,0 10,1 3,2 4,3 5,6 1,1 2,2 3,3 0,2 1,3 1,4zm14 -18c-2,-4 -5,-8 -10,-11 -6,-4 -13,-6 -20,-6 -8,0 -15,1 -22,4 -4,2 -7,4 -9,7 -1,0 -3,2 -5,4 -2,1 -3,3 -4,3 -7,7 -13,14 -19,23 -11,15 -19,31 -24,50 -3,11 -5,20 -5,26l0 9c0,0 1,1 1,2 0,2 0,2 0,3 0,0 0,1 0,3 1,1 1,2 1,2 2,7 5,12 9,17 4,4 9,7 15,9 4,1 7,1 8,1 4,0 7,0 9,0 3,-1 5,-1 7,-2 1,0 2,-1 3,-1 1,0 1,0 2,-1 1,0 1,0 2,-1 0,0 2,-1 5,-3 2,-1 4,-2 5,-4 5,-3 10,-8 16,-14l2 -2 1 -1c1,-2 2,-3 2,-3 1,-1 1,-2 2,-3 1,-1 2,-2 2,-3 1,-2 3,-4 4,-6 3,10 8,19 13,26 6,7 11,11 16,13 5,1 7,-1 8,-5 0,-3 0,-9 -2,-19 0,-2 0,-4 0,-7 0,-3 -1,-7 -2,-12 -1,-5 -1,-10 -2,-13 0,-8 -1,-27 -1,-57 1,-1 1,-3 1,-4l-1 0 0 -4 -9 -1c3,-7 4,-13 1,-19z"/>
  <path id="16" class="fil4" d="M3521 1806c0,6 0,11 0,16l0 20 2 0c0,1 1,1 1,2l38 -2 0 -2 3 0c-2,-8 -1,-18 0,-32 1,-4 1,-8 2,-13 1,-6 2,-9 2,-11 0,0 0,-2 1,-5 1,-3 1,-6 1,-7l3 -11 0 0 7 26c0,2 1,4 2,8 5,23 10,36 14,39 6,3 11,0 15,-10 1,-2 2,-5 2,-8 3,-7 4,-17 3,-30 0,-5 0,-11 -1,-21 0,0 0,-1 0,-3 0,-1 -1,-2 -1,-3l0 -1 0 -3 -1 -5c0,-1 0,-3 -1,-5 0,-2 0,-4 0,-5l0 -5 -1 -3 -1 -2 -1 -5c-1,-2 -1,-3 -2,-4 -1,-3 -2,-5 -4,-7 -2,-3 -5,-7 -10,-10 -3,-3 -7,-4 -13,-5 -1,-1 -4,-1 -8,-1 -3,1 -4,1 -5,1 -2,0 -3,1 -4,1 -2,1 -3,1 -4,1l-2 2 -2 2 -1 1c-2,2 -3,4 -5,6 -2,3 -4,5 -5,7 -1,1 -1,2 -2,3 -12,-11 -19,17 -22,84z"/>
  <path id="17" class="fil4" d="M3722 1741l-37 2c0,13 -1,24 -3,34 0,3 0,5 -1,8l-2 8 0 2c0,2 0,2 -1,3 -2,0 -3,-1 -3,-2 -1,0 -1,0 -1,-1l0 0 0 -1 -1 0 0 0 0 -1c-2,-4 -3,-9 -3,-16 -2,-10 -1,-20 3,-30 2,-8 4,-13 6,-17 0,0 1,-3 3,-7 3,-2 4,-3 4,-4 2,0 5,-1 8,-1 1,0 3,1 7,2 5,2 9,6 12,9 2,2 4,4 6,6 1,2 2,4 3,6zm-24 97c0,5 0,10 1,15 0,3 1,8 1,14 1,7 1,12 2,15 0,1 0,3 0,7 0,3 1,6 1,7l0 1 0 0 0 5 0 0c-1,0 -2,-1 -4,-2 0,0 -1,-1 -1,-1 0,0 -1,-1 -2,-1 0,-2 -2,-3 -3,-6 -2,-3 -4,-5 -5,-6 -11,-17 -18,-26 -22,-28 -4,-3 -7,-1 -9,4 -1,4 0,12 3,23 0,3 0,6 1,9 1,2 2,4 2,5 1,0 1,1 1,2 0,0 0,1 1,1 0,0 0,1 0,1 0,1 1,2 1,2 0,1 1,2 2,5 2,2 3,4 3,5 2,3 4,6 7,11 4,7 9,14 14,22 10,12 17,22 23,29l4 -2 3 -1 1 -1c0,0 1,0 1,-1 1,0 1,-1 1,-1 1,-1 1,-1 2,-2 1,-1 2,-2 2,-2 7,-7 11,-12 13,-15l1 -1c1,-1 1,-2 1,-3l1 -1c0,0 0,-1 1,-1l0 -3c0,-5 1,-10 1,-14 0,-1 0,-13 -1,-36 -1,-23 -3,-47 -6,-70 0,-1 0,-3 -1,-6 0,-3 0,-5 0,-6 -3,-26 -6,-46 -8,-61 0,0 1,0 1,-1 4,-5 5,-12 2,-20 -2,-7 -6,-13 -12,-18 -4,-3 -9,-6 -14,-8 -7,-3 -15,-4 -23,-3 -7,0 -15,2 -22,7 0,0 -1,1 -2,1 -1,1 -2,2 -3,2 0,1 -1,1 -2,2l-2 2c-2,2 -3,4 -4,6 -5,7 -9,15 -12,23 -7,17 -8,35 -5,53l1 2 0 1 0 1 2 6c1,2 1,4 2,6 1,3 2,5 2,6l1 2 2 2 4 5c2,2 4,5 7,7 7,4 14,6 22,7 4,1 8,0 12,-1 3,0 6,-1 10,-2z"/>
  <path id="18" class="fil4" d="M3942 1723l-21 -1c-1,4 -4,12 -9,24 -4,12 -7,21 -9,27 -1,1 -1,1 -2,2 0,1 -1,3 -1,4 -1,1 -1,2 -1,2 -4,8 -7,14 -10,18 -1,1 -1,2 -2,4 -1,2 -2,3 -3,4l-1 1c0,1 0,1 -1,1l-1 0 -1 0 0 -7c0,-4 1,-10 3,-18 2,-12 6,-24 11,-36 4,-7 8,-15 13,-23 1,-1 2,-3 4,-5 2,-2 3,-4 4,-5 3,-3 5,-5 8,-6 4,-1 7,0 10,1 2,2 4,3 5,6 1,1 2,2 3,3 0,2 1,3 1,4zm14 -18c-2,-4 -6,-8 -11,-11 -5,-4 -12,-6 -19,-6 -8,0 -16,1 -22,4 -4,2 -7,4 -10,7 0,0 -2,2 -4,4 -2,1 -3,3 -4,3 -7,7 -13,14 -19,23 -11,15 -20,31 -25,50 -2,11 -4,20 -4,26l0 9c0,0 0,1 1,2 0,2 0,2 0,3 0,0 0,1 0,3 0,1 1,2 1,2 2,7 5,12 9,17 4,4 9,7 14,9 4,1 7,1 9,1 4,0 7,0 8,0 4,-1 6,-1 8,-2 1,0 2,-1 3,-1 0,0 1,0 2,-1 0,0 1,0 1,-1 1,0 3,-1 6,-3 2,-1 3,-2 5,-4 5,-3 10,-8 16,-14l2 -2 1 -1c1,-2 2,-3 2,-3 0,-1 1,-2 2,-3 1,-1 2,-2 2,-3 1,-2 3,-4 4,-6 3,10 8,19 13,26 6,7 11,11 16,13 5,1 7,-1 8,-5 0,-3 -1,-9 -2,-19 0,-2 0,-4 0,-7 -1,-3 -1,-7 -2,-12 -1,-5 -1,-10 -2,-13 -1,-8 -1,-27 -1,-57 0,-1 1,-3 1,-4l-1 0 0 -4 -9 -1c3,-7 4,-13 1,-19z"/>
  <path id="19" class="fil4" d="M4044 1823c2,2 5,4 9,6 3,3 7,5 10,7 2,2 5,4 7,5 9,6 16,8 21,8 7,-2 10,-6 8,-15 0,-3 -2,-8 -8,-14 -9,-12 -25,-26 -47,-42 -1,0 -2,-1 -4,-3l0 0 0 -1 0 0 2 -2 3 -3c7,-6 16,-15 27,-28 1,0 2,-1 3,-3 2,-2 3,-3 4,-4 1,-1 2,-2 4,-5 2,-2 3,-3 4,-4 1,-1 2,-3 3,-5 2,-2 3,-3 3,-4 1,-1 1,-2 3,-4 1,-2 1,-3 1,-4 -1,0 -1,-1 -1,-3 -3,-4 -9,-4 -16,-2 -7,3 -17,9 -29,18 -3,2 -10,7 -19,13 0,-34 -3,-66 -9,-95 -7,-33 -13,-52 -19,-56 -11,-7 -17,9 -18,48 0,13 0,29 1,49 0,20 0,31 0,32 0,2 1,13 1,33 0,19 0,35 1,47 2,36 8,57 17,60 6,3 11,0 15,-10 1,-1 1,-1 2,-2 3,-3 5,-11 5,-21 1,-2 1,-4 1,-6 5,4 10,7 15,10z"/>
  <path id="20" class="fil4" d="M4216 1723l-20 -1c-2,4 -5,12 -9,24 -5,12 -8,21 -10,27 0,1 -1,1 -2,2 0,1 -1,3 -1,4 0,1 -1,2 -1,2 -4,8 -7,14 -9,18 -1,1 -2,2 -3,4 -1,2 -2,3 -3,4l-1 1c0,1 0,1 0,1l-2 0 0 0 0 -7c0,-4 1,-10 2,-18 2,-12 6,-24 12,-36 3,-7 7,-15 13,-23 0,-1 2,-3 3,-5 2,-2 3,-4 4,-5 3,-3 6,-5 8,-6 4,-1 7,0 10,1 3,2 5,3 6,6 0,1 1,2 2,3 0,2 1,3 1,4zm14 -18c-2,-4 -5,-8 -10,-11 -6,-4 -13,-6 -20,-6 -8,0 -15,1 -22,4 -4,2 -7,4 -9,7 -1,0 -3,2 -5,4 -1,1 -3,3 -4,3 -7,7 -13,14 -19,23 -11,15 -19,31 -24,50 -3,11 -4,20 -4,26l0 9c0,0 0,1 0,2 0,2 0,2 0,3 0,0 0,1 0,3 1,1 1,2 1,2 2,7 5,12 9,17 4,4 9,7 15,9 4,1 7,1 9,1 3,0 6,0 8,0 3,-1 5,-1 7,-2 1,0 2,-1 3,-1 1,0 1,0 2,-1 1,0 1,0 2,-1 1,0 2,-1 6,-3 1,-1 3,-2 4,-4 5,-3 10,-8 16,-14l2 -2 1 -1c1,-2 2,-3 2,-3 1,-1 1,-2 2,-3 1,-1 2,-2 2,-3 2,-2 3,-4 4,-6 4,10 8,19 13,26 6,7 12,11 16,13 5,1 7,-1 8,-5 0,-3 0,-9 -2,-19 0,-2 0,-4 0,-7 0,-3 -1,-7 -2,-12 0,-5 -1,-10 -1,-13 -1,-8 -2,-27 -2,-57 1,-1 1,-3 2,-4l-2 0 0 -4 -9 -1c4,-7 4,-13 1,-19z"/>
  <path id="21" class="fil4" d="M4259 1806c0,6 0,11 0,16l0 20 2 0c1,1 1,1 1,2l38 -2 0 -2 3 0c-1,-8 -1,-18 0,-32 1,-4 1,-8 2,-13 1,-6 2,-9 2,-11 0,0 0,-2 1,-5 1,-3 1,-6 1,-7l3 -11 1 0 6 26c0,2 1,4 2,8 5,23 10,36 14,39 6,3 11,0 15,-10 1,-2 2,-5 2,-8 4,-7 4,-17 3,-30 0,-5 0,-11 -1,-21 0,0 0,-1 0,-3 0,-1 0,-2 0,-3l0 -1 -1 -3 -1 -5c0,-1 0,-3 -1,-5 0,-2 0,-4 0,-5l0 -5 -1 -3 -1 -2 -1 -5c0,-2 -1,-3 -1,-4 -2,-3 -3,-5 -5,-7 -2,-3 -5,-7 -10,-10 -3,-3 -7,-4 -12,-5 -2,-1 -5,-1 -9,-1 -2,1 -4,1 -5,1 -2,0 -3,1 -4,1 -1,1 -3,1 -3,1l-3 2 -2 2 -1 1c-2,2 -3,4 -5,6 -2,3 -3,5 -5,7 0,1 -1,2 -2,3 -12,-11 -19,17 -22,84z"/>
  <path id="22" class="fil4" d="M4634 1802c5,-11 5,-27 0,-46 0,-2 -1,-6 -3,-12 0,-2 -1,-3 -1,-5 -1,-1 -1,-3 -2,-5 -1,-2 -2,-4 -2,-5 -1,-1 -1,-3 -2,-5 -1,-3 -2,-5 -3,-6l-1 -1 0 -1 -2 -2c-2,-2 -3,-4 -3,-5l-2 -2 0 -1c-1,0 -1,0 -1,0l-1 0 -4 -2c-1,-1 -1,-1 -2,-1 -1,-1 -2,-1 -2,-1 -3,-1 -5,-1 -7,-1 -4,0 -8,0 -12,1 -2,1 -4,2 -6,2 -1,1 -2,1 -3,2 -1,1 -2,1 -3,2l-5 3c-2,1 -3,3 -6,6l-5 4 -4 6c-3,-7 -8,-12 -13,-16 -2,-1 -5,-3 -10,-4 -3,-1 -8,-2 -12,-2 -4,0 -8,1 -12,2 -2,1 -4,1 -5,2 -3,1 -4,2 -5,3 -9,7 -15,13 -19,20 -2,4 -4,5 -4,5 0,0 -1,-2 -1,-5 -1,-4 -1,-7 -2,-9 0,-2 -1,-4 -2,-5 -3,-8 -7,-6 -12,4 0,1 0,3 -1,4 -5,16 -7,35 -7,58 0,13 1,26 3,40l1 5 0 3 0 1c1,2 2,5 6,7 2,3 6,4 10,5 3,1 6,1 11,1 4,-1 7,-2 11,-4 3,-2 5,-4 6,-7 1,-1 1,-2 1,-2l0 -2 0 -2 1 -5c3,-9 4,-16 5,-21 1,-5 2,-11 4,-20 0,-4 1,-11 2,-20 0,-3 1,-5 2,-8 0,-1 0,-1 0,-2 0,-1 1,-2 1,-2 0,0 0,0 0,-1 0,0 1,0 1,0l0 -2 0 0c1,0 1,0 1,0 0,0 0,0 0,0 0,1 0,3 1,6 0,2 1,4 1,6 0,2 1,7 3,16 3,10 5,17 5,22 -1,5 2,10 8,16 6,6 14,7 23,2 10,-4 17,-21 21,-52 2,-4 4,-7 6,-10 1,-1 1,-2 2,-3 1,-1 1,-2 2,-3l1 -3 0 0c0,-1 0,-1 0,-2 1,0 1,1 2,1l0 0 1 2c1,1 1,3 2,5 1,2 1,4 2,5 4,10 7,21 9,32 1,4 2,9 3,14 1,5 1,9 2,12 0,2 1,5 2,8 0,2 1,4 3,5 3,3 6,3 9,-1 7,-5 11,-13 13,-24z"/>
  <path id="23" class="fil4" d="M4722 1716l0 1c-1,8 -6,18 -15,28l1 -1c0,-2 1,-5 3,-9 2,-6 5,-12 9,-16 0,-1 1,-2 2,-3zm-23 58c8,-2 16,-5 24,-11 13,-9 24,-19 31,-31 4,-9 6,-17 6,-25 0,-1 -1,-3 -2,-8 0,-1 -1,-2 -3,-4 -1,-1 -2,-2 -2,-3 -1,-1 -2,-2 -3,-2 -2,-2 -7,-5 -14,-7 -2,-1 -4,-1 -7,-1 -1,0 -2,0 -3,0 -2,0 -3,0 -4,0l-3 0 -4 0c-8,2 -14,5 -19,9 -2,1 -5,4 -10,9 -4,4 -8,9 -12,15 -3,6 -6,13 -10,23 -6,22 -10,35 -11,41 -2,10 -2,19 -1,28l1 3c0,2 0,4 1,5l1 3c0,0 0,1 1,1l0 2 1 2c1,1 1,2 2,3 0,2 0,3 1,3 0,1 1,2 2,3 1,1 1,2 1,2 4,4 8,6 13,8 2,1 4,2 7,2 2,1 4,2 8,2 7,1 12,0 16,-1 9,-1 17,-6 25,-13 0,0 2,-3 6,-7 1,0 1,-1 2,-2 1,-2 1,-3 2,-3 0,-2 1,-3 2,-4 0,-1 1,-2 1,-4 1,-1 2,-2 2,-3 2,-7 3,-12 2,-17 0,-5 -2,-8 -4,-10 -6,-2 -13,2 -20,10 -1,1 -2,2 -2,3 -2,1 -3,2 -5,4 -2,2 -4,4 -6,7 -3,3 -5,5 -7,7 -1,2 -2,3 -3,3l-4 0c0,0 -1,0 -1,0l0 -2 0 -2c-1,-1 -1,-2 -1,-5 0,-2 -1,-5 -1,-9 0,-6 1,-12 2,-18 1,-2 2,-4 2,-6z"/>
  <path id="24" class="fil4" d="M4773 1806c0,6 -1,11 -1,16l0 20 3 0c0,1 0,1 0,2l39 -2 0 -2 2 0c-1,-8 -1,-18 1,-32 0,-4 1,-8 2,-13 1,-6 1,-9 1,-11 0,0 1,-2 1,-5 1,-3 2,-6 2,-7l3 -11 0 0 7 26c0,2 1,4 1,8 6,23 11,36 15,39 5,3 10,0 15,-10 0,-2 1,-5 2,-8 3,-7 4,-17 3,-30 0,-5 -1,-11 -1,-21 0,0 0,-1 -1,-3 0,-1 0,-2 0,-3l0 -1 -1 -3 0 -5c0,-1 -1,-3 -1,-5 -1,-2 -1,-4 -1,-5l0 -5 0 -3 -1 -2 -1 -5c-1,-2 -1,-3 -2,-4 -1,-3 -2,-5 -4,-7 -2,-3 -6,-7 -10,-10 -3,-3 -8,-4 -13,-5 -1,-1 -4,-1 -9,-1 -2,1 -4,1 -5,1 -1,0 -2,1 -3,1 -2,1 -3,1 -4,1l-2 2 -2 2 -1 1c-2,2 -4,4 -5,6 -2,3 -4,5 -5,7 -1,1 -2,2 -2,3 -12,-11 -19,17 -22,84z"/>
  <path id="25" class="fil4" d="M4973 1741l-37 2c0,13 0,24 -2,34 0,3 -1,5 -1,8l-2 8 0 2c0,2 0,2 -2,3 -1,0 -2,-1 -3,-2 0,0 0,0 0,-1l-1 0 0 -1 0 0 0 0 -1 -1c-1,-4 -2,-9 -3,-16 -1,-10 0,-20 3,-30 2,-8 5,-13 7,-17 0,0 1,-3 3,-7 2,-2 4,-3 4,-4 2,0 4,-1 7,-1 2,0 4,1 7,2 6,2 10,6 13,9 2,2 4,4 5,6 1,2 2,4 3,6zm-24 97c1,5 1,10 1,15 1,3 1,8 2,14 1,7 1,12 1,15 0,1 1,3 1,7 0,3 0,6 1,7l0 1 0 0 0 5 0 0c-1,0 -2,-1 -4,-2 -1,0 -1,-1 -1,-1 0,0 -1,-1 -2,-1 -1,-2 -2,-3 -4,-6 -1,-3 -3,-5 -4,-6 -11,-17 -18,-26 -22,-28 -5,-3 -7,-1 -9,4 -1,4 0,12 2,23 0,3 1,6 2,9 1,2 1,4 2,5 0,0 1,1 1,2 0,0 0,1 0,1 1,0 1,1 1,1 0,1 0,2 1,2 0,1 1,2 2,5 1,2 2,4 3,5 1,3 3,6 6,11 5,7 10,14 15,22 9,12 17,22 23,29l3 -2 3 -1 1 -1c1,0 1,0 2,-1 0,0 1,-1 1,-1 0,-1 1,-1 2,-2 1,-1 1,-2 2,-2 7,-7 11,-12 13,-15l1 -1c0,-1 1,-2 1,-3l1 -1c0,0 0,-1 0,-1l0 -3c1,-5 2,-10 2,-14 0,-1 -1,-13 -2,-36 -1,-23 -2,-47 -6,-70 0,-1 0,-3 0,-6 0,-3 0,-5 0,-6 -3,-26 -6,-46 -8,-61 0,0 0,0 1,-1 4,-5 4,-12 2,-20 -2,-7 -6,-13 -12,-18 -5,-3 -9,-6 -14,-8 -8,-3 -15,-4 -23,-3 -8,0 -15,2 -22,7 -1,0 -1,1 -2,1 -1,1 -2,2 -3,2 0,1 -1,1 -2,2l-2 2c-2,2 -4,4 -4,6 -6,7 -10,15 -12,23 -7,17 -9,35 -5,53l1 2 0 1 0 1 2 6c0,2 1,4 2,6 1,3 2,5 2,6l1 2 2 2 3 5c2,2 5,5 8,7 6,4 13,6 22,7 4,1 8,0 12,-1 3,0 6,-1 9,-2z"/>
  <path id="26" class="fil4" d="M5074 1716l0 1c-1,8 -6,18 -15,28l1 -1c0,-2 1,-5 3,-9 2,-6 5,-12 9,-16 0,-1 1,-2 2,-3zm-23 58c8,-2 16,-5 24,-11 13,-9 23,-19 31,-31 4,-9 6,-17 6,-25 0,-1 -1,-3 -2,-8 -1,-1 -1,-2 -3,-4 -1,-1 -2,-2 -3,-3 -1,-1 -1,-2 -2,-2 -2,-2 -7,-5 -14,-7 -2,-1 -5,-1 -7,-1 -1,0 -2,0 -4,0 -1,0 -2,0 -3,0l-3 0 -4 0c-8,2 -14,5 -19,9 -2,1 -5,4 -10,9 -4,4 -8,9 -12,15 -3,6 -6,13 -10,23 -7,22 -10,35 -11,41 -2,10 -3,19 -1,28l1 3c0,2 0,4 1,5l1 3c0,0 0,1 1,1l0 2 1 2c1,1 1,2 1,3 1,2 1,3 2,3 0,1 1,2 2,3 1,1 1,2 1,2 4,4 8,6 12,8 3,1 5,2 8,2 2,1 4,2 8,2 6,1 12,0 16,-1 9,-1 17,-6 25,-13 0,0 2,-3 6,-7 0,0 1,-1 2,-2 1,-2 1,-3 1,-3 1,-2 2,-3 3,-4 0,-1 1,-2 1,-4 1,-1 1,-2 2,-3 2,-7 2,-12 2,-17 0,-5 -2,-8 -5,-10 -5,-2 -12,2 -19,10 -1,1 -2,2 -2,3 -2,1 -3,2 -5,4 -2,2 -4,4 -6,7 -3,3 -5,5 -7,7 -1,2 -2,3 -3,3l-4 0c-1,0 -1,0 -1,0l0 -2 -1 -2c0,-1 0,-2 0,-5 -1,-2 -1,-5 -1,-9 0,-6 1,-12 2,-18 1,-2 1,-4 2,-6z"/>
  <path id="27" class="fil4" d="M5217 1731c-1,-3 -2,-5 -4,-7 -3,-4 -5,-7 -6,-8 -2,-2 -5,-3 -8,-5 -1,0 -1,0 -2,0 0,0 -1,-1 -1,-1 -1,0 -2,0 -3,0 -1,0 -4,0 -7,0 -6,1 -11,3 -15,7 -6,4 -11,8 -14,13 -2,4 -4,7 -5,9 0,-3 -3,-6 -11,-11 -6,-3 -10,-1 -12,8 -1,7 0,43 5,109l41 -7c-1,-32 0,-56 3,-72 3,-15 10,-22 21,-22 0,0 0,0 1,1 0,0 1,0 1,0 0,0 1,0 1,0 1,1 2,1 2,1 4,2 8,4 12,4 4,0 7,-2 7,-5 0,-2 0,-4 0,-6 -1,0 -1,-1 -1,-1 0,-1 0,-2 0,-2 -2,-1 -4,-3 -5,-5z"/>
  <path id="28" class="fil4" d="M5211 1880c0,2 0,5 2,9 0,0 0,0 0,1 0,0 0,0 0,1l1 1 1 0c0,1 0,2 1,3 1,1 1,2 2,2 3,5 5,8 7,11 2,2 3,4 5,7 1,0 1,1 2,1 0,1 0,2 1,2l2 1c0,1 1,1 1,2 2,1 3,1 4,2l3 1c3,1 5,2 7,2 4,1 7,1 10,1 2,-1 4,-1 7,-2 2,-1 4,-2 7,-4l1 -1c1,0 2,-1 2,-1l3 -4c1,0 3,-3 5,-7 1,-1 1,-2 2,-4 1,-2 2,-4 3,-5 0,-1 1,-2 2,-5 1,-2 1,-3 2,-3l0 -3 0 -2 1 -2c1,-4 3,-11 4,-19 1,-2 2,-4 2,-6 2,-16 2,-33 1,-52 -1,-17 -3,-34 -7,-49 -4,-16 -7,-27 -9,-33 -5,-12 -10,-20 -15,-24 -3,-1 -6,-1 -8,0 -2,2 -3,6 -4,10 -1,5 -1,11 -1,17 -1,7 -1,14 0,22 0,5 0,13 0,24 0,10 1,18 1,23l0 33c-1,16 -2,27 -3,34 -1,4 -2,8 -3,10 -1,2 -1,3 -1,5l-1 1 0 2c0,0 0,1 -1,1 -1,0 -2,0 -2,-1 -1,0 -1,0 -1,0 -1,-1 -1,-1 -1,-1 0,0 -1,0 -1,-1 0,0 -1,-1 -1,-1 -10,-10 -17,-15 -22,-16 -10,-1 -13,5 -11,17zm62 -199c2,0 4,-1 5,-1 4,-2 5,-4 4,-6l1 -1c0,-3 -2,-5 -6,-8 -6,-3 -11,-5 -16,-5 -3,0 -6,0 -8,0 -2,0 -4,0 -6,0 -1,1 -3,1 -4,1 0,1 -1,1 -2,2 -1,1 -1,2 -2,2 0,0 0,1 -1,2 0,1 0,1 0,1 0,1 0,2 0,3 0,2 0,3 0,4 0,0 0,1 1,2 0,1 1,2 3,3 1,0 2,1 5,2 3,0 6,0 9,0 8,0 13,0 17,-1z"/>
  <path id="29" class="fil4" d="M5421 1723l-21 -1c-1,4 -4,12 -9,24 -4,12 -8,21 -9,27 -1,1 -1,1 -2,2 -1,1 -1,3 -1,4 -1,1 -1,2 -2,2 -3,8 -7,14 -9,18 -1,1 -2,2 -3,4 -1,2 -1,3 -2,4l-1 1c0,1 -1,1 -1,1l-1 0 -1 0 0 -7c0,-4 1,-10 3,-18 2,-12 6,-24 11,-36 3,-7 8,-15 13,-23 1,-1 2,-3 4,-5 2,-2 3,-4 4,-5 3,-3 5,-5 8,-6 4,-1 7,0 10,1 2,2 4,3 5,6 1,1 2,2 3,3 0,2 0,3 1,4zm14 -18c-2,-4 -6,-8 -11,-11 -6,-4 -12,-6 -19,-6 -8,0 -16,1 -22,4 -4,2 -7,4 -10,7 0,0 -2,2 -4,4 -2,1 -3,3 -4,3 -7,7 -13,14 -19,23 -11,15 -20,31 -25,50 -2,11 -4,20 -4,26l0 9c0,0 0,1 0,2 1,2 1,2 1,3 0,0 0,1 0,3 0,1 1,2 1,2 2,7 4,12 9,17 4,4 9,7 14,9 4,1 7,1 9,1 4,0 7,0 8,0 3,-1 6,-1 7,-2 1,0 3,-1 4,-1 0,0 1,0 2,-1 0,0 1,0 1,-1 1,0 3,-1 6,-3 2,-1 3,-2 5,-4 5,-3 10,-8 16,-14l1 -2 2 -1c1,-2 2,-3 2,-3 0,-1 1,-2 2,-3 1,-1 2,-2 2,-3 1,-2 2,-4 3,-6 4,10 8,19 14,26 6,7 11,11 16,13 4,1 7,-1 7,-5 1,-3 0,-9 -1,-19 0,-2 0,-4 0,-7 -1,-3 -1,-7 -2,-12 -1,-5 -1,-10 -2,-13 -1,-8 -1,-27 -1,-57 0,-1 1,-3 1,-4l-1 0 0 -4 -9 -1c3,-7 3,-13 1,-19z"/>
  <path id="30" class="fil4" d="M5522 1823c3,2 6,4 10,6 3,3 7,5 9,7 3,2 6,4 8,5 9,6 16,8 21,8 7,-2 10,-6 7,-15 1,-3 -1,-8 -7,-14 -9,-12 -25,-26 -48,-42 0,0 -2,-1 -3,-3l-1 0 0 -1 1 0 2 -2 3 -3c7,-6 16,-15 27,-28 1,0 2,-1 3,-3 2,-2 3,-3 4,-4 1,-1 2,-2 4,-5 2,-2 3,-3 4,-4 0,-1 2,-3 3,-5 2,-2 3,-3 3,-4 1,-1 1,-2 2,-4 2,-2 2,-3 2,-4 -1,0 -1,-1 -1,-3 -3,-4 -9,-4 -16,-2 -7,3 -17,9 -30,18 -3,2 -9,7 -18,13 0,-34 -3,-66 -9,-95 -7,-33 -13,-52 -19,-56 -11,-7 -17,9 -18,48 0,13 0,29 0,49 1,20 1,31 1,32 0,2 0,13 1,33 0,19 0,35 1,47 2,36 7,57 16,60 7,3 12,0 16,-10 1,-1 1,-1 1,-2 4,-3 6,-11 6,-21 1,-2 1,-4 1,-6 5,4 10,7 14,10z"/>
  <path id="31" class="fil4" d="M5695 1723l-20 -1c-2,4 -5,12 -9,24 -5,12 -8,21 -10,27 -1,1 -1,1 -2,2 0,1 -1,3 -1,4 0,1 -1,2 -1,2 -4,8 -7,14 -10,18 0,1 -1,2 -2,4 -1,2 -2,3 -3,4l-1 1c0,1 0,1 -1,1l-1 0 0 0 0 -7c0,-4 0,-10 2,-18 2,-12 6,-24 12,-36 3,-7 7,-15 13,-23 0,-1 2,-3 3,-5 2,-2 3,-4 4,-5 3,-3 6,-5 8,-6 4,-1 7,0 10,1 3,2 4,3 5,6 1,1 2,2 3,3 0,2 1,3 1,4zm14 -18c-2,-4 -5,-8 -10,-11 -6,-4 -13,-6 -20,-6 -8,0 -15,1 -22,4 -4,2 -7,4 -9,7 -1,0 -3,2 -5,4 -2,1 -3,3 -4,3 -7,7 -13,14 -19,23 -11,15 -19,31 -24,50 -3,11 -5,20 -5,26l0 9c0,0 1,1 1,2 0,2 0,2 0,3 0,0 0,1 0,3 1,1 1,2 1,2 2,7 5,12 9,17 4,4 9,7 15,9 4,1 6,1 8,1 4,0 7,0 9,0 3,-1 5,-1 7,-2 1,0 2,-1 3,-1 1,0 1,0 2,-1 1,0 1,0 2,-1 0,0 2,-1 5,-3 2,-1 4,-2 5,-4 5,-3 10,-8 16,-14l2 -2 1 -1c1,-2 2,-3 2,-3 1,-1 1,-2 2,-3 1,-1 2,-2 2,-3 1,-2 3,-4 4,-6 3,10 8,19 13,26 6,7 11,11 16,13 5,1 7,-1 8,-5 0,-3 0,-9 -2,-19 0,-2 0,-4 0,-7 0,-3 -1,-7 -2,-12 -1,-5 -1,-10 -2,-13 0,-8 -1,-27 -1,-57 1,-1 1,-3 1,-4l-1 0 0 -4 -9 -1c3,-7 4,-13 1,-19z"/>
  <path id="32" class="fil4" d="M5738 1806c0,6 0,11 0,16l0 20 2 0c0,1 1,1 1,2l38 -2 0 -2 3 0c-2,-8 -1,-18 0,-32 1,-4 1,-8 2,-13 1,-6 2,-9 2,-11 0,0 0,-2 1,-5 1,-3 1,-6 1,-7l3 -11 0 0 7 26c0,2 1,4 2,8 5,23 10,36 14,39 6,3 11,0 15,-10 1,-2 2,-5 2,-8 3,-7 4,-17 3,-30 0,-5 0,-11 -1,-21 0,0 0,-1 0,-3 0,-1 -1,-2 -1,-3l0 -1 0 -3 -1 -5c0,-1 0,-3 -1,-5 0,-2 0,-4 0,-5l0 -5 -1 -3 -1 -2 -1 -5c-1,-2 -1,-3 -2,-4 -1,-3 -2,-5 -4,-7 -2,-3 -5,-7 -10,-10 -3,-3 -7,-4 -13,-5 -1,-1 -4,-1 -8,-1 -3,1 -4,1 -6,1 -1,0 -2,1 -3,1 -2,1 -3,1 -4,1l-2 2 -2 2 -1 1c-2,2 -3,4 -5,6 -2,3 -4,5 -5,7 -1,1 -1,2 -2,3 -12,-11 -19,17 -22,84z"/>
  <path id="33" class="fil4" d="M5844 1806c-1,6 -1,11 -1,16l0 20 2 0c1,1 1,1 1,2l39 -2 0 -2 2 0c-1,-8 -1,-18 0,-32 1,-4 2,-8 3,-13 0,-6 1,-9 1,-11 0,0 0,-2 1,-5 1,-3 1,-6 1,-7l3 -11 1 0 6 26c1,2 1,4 2,8 5,23 10,36 15,39 5,3 10,0 14,-10 1,-2 2,-5 3,-8 3,-7 4,-17 3,-30 0,-5 -1,-11 -2,-21 0,0 0,-1 0,-3 0,-1 0,-2 0,-3l0 -1 -1 -3 0 -5c-1,-1 -1,-3 -2,-5 0,-2 0,-4 0,-5l0 -5 -1 -3 0 -2 -2 -5c0,-2 -1,-3 -1,-4 -1,-3 -3,-5 -4,-7 -3,-3 -6,-7 -10,-10 -4,-3 -8,-4 -13,-5 -2,-1 -5,-1 -9,-1 -2,1 -4,1 -5,1 -1,0 -3,1 -4,1 -1,1 -2,1 -3,1l-3 2 -1 2 -1 1c-2,2 -4,4 -6,6 -2,3 -3,5 -4,7 -1,1 -2,2 -3,3 -12,-11 -19,17 -21,84z"/>
  <path id="34" class="fil4" d="M5985 1841c-6,17 -11,30 -14,40 -12,33 -14,52 -6,57 5,4 12,1 21,-8 4,-2 9,-8 13,-18 12,-19 22,-41 31,-66 1,-2 1,-3 2,-5 12,-31 20,-61 24,-90 4,-31 4,-49 -1,-54 -6,-5 -13,-1 -21,15 -4,6 -7,14 -12,25 0,1 -3,11 -10,29 -6,-18 -14,-34 -22,-48 0,-1 -1,-3 -3,-6 -2,-3 -4,-6 -5,-8 -1,-1 -3,-3 -5,-6 -2,-2 -4,-4 -5,-6 -2,-1 -4,-2 -6,-2 -6,-2 -10,0 -12,6 -2,5 -3,12 -1,22 2,15 7,30 13,44 0,1 1,5 3,10 2,6 4,12 6,17 2,6 5,11 7,15 3,7 7,13 11,17 -2,6 -4,12 -8,20z"/>
  <path id="35" class="fil4" d="M6179 1723l-20 -1c-2,4 -5,12 -9,24 -5,12 -8,21 -10,27 -1,1 -1,1 -2,2 0,1 -1,3 -1,4 0,1 -1,2 -1,2 -4,8 -7,14 -10,18 0,1 -1,2 -2,4 -1,2 -2,3 -3,4l-1 1c0,1 0,1 -1,1l-1 0 0 0 0 -7c0,-4 0,-10 2,-18 2,-12 6,-24 12,-36 3,-7 7,-15 13,-23 0,-1 2,-3 3,-5 2,-2 3,-4 4,-5 3,-3 6,-5 8,-6 4,-1 7,0 10,1 3,2 4,3 5,6 1,1 2,2 3,3 0,2 1,3 1,4zm14 -18c-2,-4 -5,-8 -10,-11 -6,-4 -13,-6 -20,-6 -8,0 -15,1 -22,4 -4,2 -7,4 -9,7 -1,0 -3,2 -5,4 -2,1 -3,3 -4,3 -7,7 -13,14 -19,23 -11,15 -19,31 -24,50 -3,11 -5,20 -5,26l0 9c0,0 1,1 1,2 0,2 0,2 0,3 0,0 0,1 0,3 1,1 1,2 1,2 2,7 5,12 9,17 4,4 9,7 15,9 4,1 6,1 8,1 4,0 7,0 9,0 3,-1 5,-1 7,-2 1,0 2,-1 3,-1 1,0 1,0 2,-1 1,0 1,0 2,-1 0,0 2,-1 5,-3 2,-1 4,-2 5,-4 5,-3 10,-8 16,-14l2 -2 1 -1c1,-2 2,-3 2,-3 1,-1 1,-2 2,-3 1,-1 2,-2 2,-3 1,-2 3,-4 4,-6 3,10 8,19 13,26 6,7 11,11 16,13 5,1 7,-1 8,-5 0,-3 0,-9 -2,-19 0,-2 0,-4 0,-7 0,-3 -1,-7 -2,-12 -1,-5 -1,-10 -2,-13 0,-8 -1,-27 -1,-57 1,-1 1,-3 1,-4l-1 0 0 -4 -9 -1c3,-7 4,-13 1,-19z"/>
  <path class="fil4" d="M1262 2324c-1,7 3,16 12,28 0,0 0,1 0,1 1,1 1,1 2,2l1 1 2 3c2,3 5,6 8,9 3,3 7,4 12,6 5,1 10,2 15,1 10,0 19,-3 28,-10 1,0 2,-1 3,-2 1,-1 2,-2 3,-3 1,-1 1,-1 2,-3l2 -1 5 -6c6,-7 12,-15 17,-24 6,-10 9,-18 12,-24 0,-1 2,-4 3,-7 9,-22 13,-44 15,-68 0,-20 -1,-41 -6,-65 -2,-14 -6,-29 -10,-44 -5,-16 -10,-26 -15,-29 -6,-5 -10,-2 -11,8 -1,1 -1,2 -1,4 -1,6 -1,23 0,51 1,27 1,47 0,60 -1,19 -3,33 -6,43 -3,13 -7,28 -14,42 -5,10 -9,18 -14,26 -1,1 -2,3 -4,6 -2,3 -4,5 -5,6 0,1 -1,2 -2,3 -1,2 -2,3 -2,3 -1,1 -1,1 -1,2l0 0 -2 0c0,0 0,0 0,0 -1,-1 -2,-1 -3,-2 0,-1 -1,-2 -2,-3 -1,-1 -2,-2 -2,-2 -4,-5 -7,-8 -9,-10 0,0 -2,-2 -3,-4 -2,-2 -3,-4 -4,-5 -1,-1 -2,-2 -3,-3 -2,-2 -3,-3 -4,-4 -1,-1 -2,-2 -3,-3 -1,-1 -2,-1 -3,-2 -1,0 -2,0 -2,-1 -7,-2 -11,1 -12,8 0,3 0,7 1,12z"/>
  <path id="1" class="fil4" d="M1526 2255l-20 -2c-2,5 -5,13 -9,25 -4,12 -8,21 -10,27 0,0 -1,1 -1,2 -1,1 -1,2 -2,3 0,1 0,2 -1,3 -4,8 -7,14 -9,17 -1,2 -2,3 -3,5 -1,1 -2,3 -2,3l-2 2c0,0 0,1 0,1l-1 0 -1 0 0 -8c0,-3 1,-9 2,-17 3,-12 7,-24 12,-36 3,-7 8,-15 13,-23 1,-1 2,-3 4,-5 1,-3 3,-4 4,-5 2,-4 5,-6 8,-6 3,-1 7,0 10,1 2,1 4,3 5,5 1,2 2,3 2,4 1,1 1,3 1,4zm15 -18c-2,-4 -6,-8 -11,-11 -6,-4 -12,-6 -19,-6 -9,0 -16,1 -22,4 -4,2 -8,4 -10,6 -1,1 -2,2 -5,5 -1,1 -2,2 -4,3 -6,6 -13,14 -18,22 -12,15 -20,32 -25,51 -3,11 -4,20 -4,26l0 8c0,1 0,2 0,3 0,1 1,2 1,3 0,0 0,1 0,2 0,1 0,2 1,3 1,7 4,12 9,16 3,5 8,8 14,9 4,1 7,2 9,2 4,0 7,0 8,-1 3,0 6,-1 7,-1 1,0 2,-1 4,-1 0,0 1,-1 1,-1 1,0 2,-1 2,-1 1,0 3,-1 6,-4 2,-1 3,-2 5,-3 4,-3 10,-8 15,-15l2 -1 1 -2c2,-1 2,-2 3,-2 0,-1 1,-2 2,-3 1,-2 1,-2 2,-3 1,-2 2,-4 3,-6 4,10 8,19 14,26 6,7 11,11 16,12 4,2 7,0 7,-4 0,-3 0,-9 -2,-19 1,-2 1,-5 0,-8 0,-3 -1,-7 -1,-12 -1,-5 -2,-9 -2,-12 -1,-8 -1,-28 -1,-58 0,-1 1,-2 1,-3l-1 0 0 -4 -10 -1c4,-7 4,-13 2,-19z"/>
  <path id="2" class="fil4" d="M1662 2262c-1,-2 -2,-4 -4,-6 -3,-5 -5,-7 -6,-8 -2,-2 -5,-4 -8,-5 -1,0 -1,0 -2,-1 0,0 -1,0 -1,0 -1,0 -2,0 -3,0 -1,-1 -4,0 -7,0 -6,1 -11,3 -15,6 -6,4 -11,9 -14,14 -2,4 -4,7 -5,8 0,-2 -3,-6 -11,-10 -6,-4 -10,-1 -12,8 -1,6 0,43 5,109l41 -7c-1,-33 0,-57 3,-72 3,-15 10,-22 21,-22 0,0 0,0 1,0 0,0 1,0 1,0 0,0 1,1 1,1 1,0 2,1 2,1 4,2 8,3 12,3 4,0 6,-1 7,-5 0,-2 0,-4 0,-5 -1,0 -1,-1 -1,-2 0,0 0,-1 0,-1 -2,-1 -4,-3 -5,-6z"/>
  <path id="3" class="fil4" d="M1788 2255l-20 -2c-2,5 -5,13 -9,25 -5,12 -8,21 -10,27 0,0 -1,1 -1,2 -1,1 -2,2 -2,3 0,1 -1,2 -1,3 -4,8 -7,14 -9,17 -1,2 -2,3 -3,5 -1,1 -2,3 -3,3l-1 2c0,0 0,1 0,1l-2 0 0 0 0 -8c0,-3 1,-9 2,-17 2,-12 6,-24 12,-36 3,-7 7,-15 13,-23 1,-1 2,-3 4,-5 1,-3 3,-4 3,-5 3,-4 6,-6 8,-6 4,-1 7,0 10,1 3,1 5,3 6,5 0,2 1,3 2,4 0,1 1,3 1,4zm14 -18c-2,-4 -5,-8 -10,-11 -6,-4 -13,-6 -20,-6 -8,0 -15,1 -22,4 -4,2 -7,4 -9,6 -1,1 -3,2 -5,5 -1,1 -3,2 -4,3 -7,6 -13,14 -19,22 -11,15 -19,32 -24,51 -3,11 -4,20 -4,26l0 8c0,1 0,2 0,3 0,1 0,2 0,3 0,0 0,1 1,2 0,1 0,2 0,3 2,7 5,12 9,16 4,5 9,8 15,9 4,1 7,2 9,2 3,0 6,0 8,-1 3,0 5,-1 7,-1 1,0 2,-1 3,-1 1,0 1,-1 2,-1 1,0 1,-1 2,-1 1,0 3,-1 6,-4 1,-1 3,-2 4,-3 5,-3 10,-8 16,-15l2 -1 1 -2c1,-1 2,-2 2,-2 1,-1 1,-2 2,-3 1,-2 2,-2 2,-3 2,-2 3,-4 4,-6 4,10 8,19 13,26 6,7 12,11 16,12 5,2 8,0 8,-4 0,-3 0,-9 -2,-19 1,-2 1,-5 0,-8 0,-3 -1,-7 -2,-12 0,-5 -1,-9 -1,-12 -1,-8 -2,-28 -2,-58 1,-1 1,-2 2,-3l-2 0 0 -4 -9 -1c4,-7 4,-13 1,-19z"/>
  <path id="4" class="fil4" d="M1890 2355c2,1 5,3 9,6 4,3 7,5 10,7 3,2 5,4 7,5 9,6 16,8 21,7 8,-1 10,-6 8,-14 1,-4 -2,-8 -8,-15 -9,-11 -24,-25 -47,-41 -1,-1 -2,-2 -4,-3l0 -1 0 0 0 -1 2 -1 4 -3c6,-6 15,-15 27,-28 0,0 1,-2 3,-3 2,-2 3,-4 4,-4 0,-1 2,-3 3,-5 2,-2 3,-4 4,-5 1,0 2,-2 4,-4 1,-2 2,-4 3,-5 0,0 1,-2 2,-4 1,-2 2,-3 1,-3 0,-1 0,-2 0,-3 -4,-4 -9,-5 -16,-2 -8,3 -18,9 -30,17 -3,3 -9,7 -18,14 -1,-35 -4,-66 -9,-95 -7,-34 -14,-52 -20,-56 -11,-8 -17,8 -17,48 -1,12 -1,28 0,49 0,20 1,31 1,32 0,2 0,13 0,32 0,20 1,36 2,47 1,37 7,57 16,61 6,3 11,0 16,-10 0,-1 1,-2 1,-2 3,-4 5,-11 6,-21 0,-2 0,-4 0,-6 6,4 11,7 15,10z"/>
  <path id="5" class="fil4" d="M2221 2326c-5,-2 -13,-4 -24,-5 -10,-2 -22,-2 -34,-1 -19,1 -37,5 -55,11 -20,6 -35,16 -48,28l-16 16 26 7c8,2 15,2 23,1 6,-1 12,-3 17,-5 8,-4 14,-8 20,-14 2,-2 3,-3 4,-4l3 -3c1,-2 3,-4 5,-6 5,-5 8,-9 10,-12 3,-4 6,-7 7,-9 21,-27 37,-54 47,-81 11,-33 13,-62 6,-87 -3,-11 -7,-20 -12,-27 0,-1 -1,-2 -2,-3 0,-1 -1,-2 -1,-2 -2,-3 -3,-5 -4,-6 -3,-3 -7,-5 -11,-6 -4,-2 -9,-2 -16,-2 -4,1 -6,1 -8,2 -2,1 -4,1 -6,2 -13,4 -23,11 -30,19 -6,6 -8,12 -7,16 0,4 3,5 7,3 1,0 3,-2 6,-4 4,-2 6,-4 8,-6 5,-3 10,-5 13,-6l8 -3c0,0 1,0 2,0 1,-1 1,-1 2,-1l2 0 0 0c2,0 4,0 4,1l0 2 0 2c2,3 3,6 3,8 7,21 6,46 -2,73 -5,17 -13,34 -24,52 -7,14 -17,28 -29,43 -1,1 -3,3 -5,6 -2,3 -4,5 -5,6 -4,4 6,11 28,22 6,-2 14,-4 24,-6 2,-1 6,-1 12,-2 1,0 3,0 6,0 2,-1 4,-1 6,-1 11,-1 23,0 38,1 5,0 10,1 13,1 4,0 7,0 9,0 5,-1 6,-3 2,-7 -1,-2 -4,-4 -9,-7 -2,-1 -4,-2 -7,-3 0,0 -2,-1 -6,-3z"/>
  <path id="6" class="fil4" d="M2401 2355c3,1 6,3 9,6 4,3 7,5 10,7 3,2 6,4 7,5 9,6 17,8 22,7 7,-1 10,-6 7,-14 1,-4 -2,-8 -7,-15 -9,-11 -25,-25 -48,-41 -1,-1 -2,-2 -3,-3l-1 -1 0 0 1 -1 1 -1 4 -3c7,-6 16,-15 27,-28 0,0 1,-2 3,-3 2,-2 3,-4 4,-4 1,-1 2,-3 4,-5 1,-2 3,-4 3,-5 1,0 2,-2 4,-4 2,-2 3,-4 3,-5 0,0 1,-2 2,-4 1,-2 2,-3 1,-3 0,-1 0,-2 0,-3 -4,-4 -9,-5 -16,-2 -7,3 -17,9 -30,17 -3,3 -9,7 -18,14 0,-35 -3,-66 -9,-95 -7,-34 -13,-52 -20,-56 -10,-8 -16,8 -17,48 0,12 0,28 0,49 1,20 1,31 1,32 0,2 0,13 0,32 1,20 1,36 2,47 2,37 7,57 16,61 6,3 12,0 16,-10 0,-1 1,-2 1,-2 3,-4 5,-11 6,-21 0,-2 1,-4 1,-6 5,4 10,7 14,10z"/>
  <path id="7" class="fil4" d="M2654 2333c4,-11 4,-26 0,-45 -1,-2 -2,-6 -3,-12 -1,-2 -1,-4 -2,-6 -1,0 -1,-2 -2,-4 -1,-3 -1,-4 -2,-5 -1,-1 -1,-3 -2,-6 -1,-2 -2,-4 -3,-5l0 -1 -1 -1 -2 -3c-1,-2 -2,-3 -3,-4l-1 -2 -1 -1c0,0 -1,0 -1,0l-1 -1 -4 -2c0,0 -1,0 -2,-1 -1,0 -2,0 -2,-1 -2,0 -4,-1 -6,-1 -5,0 -9,1 -13,2 -2,1 -4,1 -6,2 0,0 -1,1 -3,2 -1,1 -2,1 -2,1l-6 4c-1,1 -3,3 -6,5l-5 5 -4 6c-3,-7 -7,-12 -13,-16 -2,-1 -5,-3 -10,-4 -3,-2 -7,-2 -12,-2 -4,0 -8,1 -12,2 -2,0 -4,1 -5,2 -2,1 -4,2 -5,3 -9,6 -15,13 -19,20 -2,3 -4,5 -4,5 0,0 0,-2 -1,-5 0,-4 -1,-7 -2,-9 0,-2 -1,-4 -2,-6 -3,-7 -7,-6 -11,4 -1,2 -1,3 -2,5 -5,15 -7,35 -7,58 0,13 1,26 3,40l1 5 1 3 0 0c0,3 2,6 5,8 2,2 6,4 10,5 3,0 7,0 11,0 4,0 7,-2 11,-3 3,-2 5,-5 6,-8 1,0 1,-1 1,-2l0 -1 1 -3 1 -5c2,-8 4,-15 4,-20 1,-5 2,-12 4,-21 1,-4 1,-10 2,-19 1,-3 1,-6 2,-9 0,0 0,-1 0,-2 0,0 1,-1 1,-1 0,0 0,-1 0,-1 1,-1 1,-1 1,-1l0 -1 0 0c1,0 1,0 1,0 0,0 0,0 0,0 0,1 0,3 1,6 0,2 1,4 1,6 1,1 2,7 3,15 3,11 5,18 5,23 -1,4 2,10 8,16 6,6 14,7 23,2 10,-4 17,-22 21,-52 2,-4 4,-8 6,-11 1,-1 1,-1 2,-3 1,-1 1,-2 2,-2l1 -3 0 -1c0,0 0,-1 1,-1 0,0 0,0 1,1l0 0 2 2c0,1 1,3 1,5 1,2 2,3 2,4 4,11 7,22 9,33 1,4 2,8 3,13 1,6 2,10 2,12 1,3 1,6 2,8 1,3 2,5 3,6 3,3 6,3 10,-2 6,-4 10,-12 13,-24z"/>
  <path id="8" class="fil4" d="M2865 2364c6,2 11,-1 13,-9 0,-1 1,-3 1,-5 2,-4 2,-11 1,-21 0,-5 0,-30 -2,-75 1,-1 1,-2 1,-5 1,-37 1,-69 -1,-98 0,-2 0,-6 0,-12 -1,-6 -1,-11 -1,-15 0,-3 -1,-7 -1,-12 -1,-5 -2,-9 -3,-12 -1,-3 -2,-5 -4,-7 -8,-7 -16,4 -23,33 -1,5 -2,9 -3,14 -6,29 -8,56 -8,82l0 2c-4,0 -7,1 -11,3 -4,1 -9,4 -14,7 -1,0 -2,1 -3,2 -2,1 -3,2 -3,2 -1,1 -1,1 -2,2 0,0 -1,1 -1,1 -10,8 -18,16 -24,25 -9,13 -15,27 -17,41 -1,8 -1,14 -1,17 0,1 0,3 0,5 1,2 1,4 1,5 1,5 1,9 3,12 2,6 4,10 7,13 4,6 9,10 14,14 4,1 8,3 13,5 5,1 10,2 15,2 9,1 18,-1 27,-5 7,-3 12,-6 17,-10 1,-1 2,-3 3,-4 2,2 4,3 6,3zm-27 -29c-6,6 -10,9 -14,12 -3,1 -5,2 -6,3 -2,0 -3,0 -3,0l0 0 -1 0c-2,-1 -3,-2 -3,-3 -3,-3 -5,-7 -6,-11 0,-1 0,-3 0,-4 -2,-14 -1,-28 4,-41 3,-7 6,-14 11,-20l3 -4 4 -5c0,0 1,-1 2,-2 1,-1 2,-2 2,-2 1,-1 2,-2 2,-2l0 -1c1,0 1,-1 1,-1 0,21 1,37 3,50 2,10 3,18 6,26 -2,2 -3,4 -5,5z"/>
  <path id="9" class="fil4" d="M3005 2255l-21 -2c-1,5 -4,13 -9,25 -4,12 -8,21 -9,27 -1,0 -1,1 -2,2 -1,1 -1,2 -1,3 -1,1 -1,2 -2,3 -3,8 -6,14 -9,17 -1,2 -1,3 -2,5 -1,1 -2,3 -3,3l-1 2c0,0 0,1 -1,1l-1 0 -1 0 0 -8c0,-3 1,-9 3,-17 2,-12 6,-24 11,-36 3,-7 8,-15 13,-23 1,-1 2,-3 4,-5 2,-3 3,-4 4,-5 3,-4 5,-6 8,-6 4,-1 7,0 10,1 2,1 4,3 5,5 1,2 2,3 3,4 0,1 0,3 1,4zm14 -18c-2,-4 -6,-8 -11,-11 -6,-4 -12,-6 -19,-6 -8,0 -16,1 -22,4 -4,2 -7,4 -10,6 0,1 -2,2 -4,5 -2,1 -3,2 -4,3 -7,6 -13,14 -19,22 -11,15 -20,32 -25,51 -2,11 -4,20 -4,26l0 8c0,1 0,2 1,3 0,1 0,2 0,3 0,0 0,1 0,2 0,1 1,2 1,3 2,7 4,12 9,16 4,5 9,8 14,9 4,1 7,2 9,2 4,0 7,0 8,-1 3,0 6,-1 7,-1 2,0 3,-1 4,-1 0,0 1,-1 2,-1 0,0 1,-1 1,-1 1,0 3,-1 6,-4 2,-1 3,-2 5,-3 5,-3 10,-8 16,-15l1 -1 2 -2c1,-1 2,-2 2,-2 0,-1 1,-2 2,-3 1,-2 2,-2 2,-3 1,-2 2,-4 4,-6 3,10 8,19 13,26 6,7 11,11 16,12 4,2 7,0 7,-4 1,-3 0,-9 -1,-19 0,-2 0,-5 0,-8 -1,-3 -1,-7 -2,-12 -1,-5 -1,-9 -2,-12 -1,-8 -1,-28 -1,-58 0,-1 1,-2 1,-3l-1 0 0 -4 -9 -1c3,-7 3,-13 1,-19z"/>
  <path id="10" class="fil4" d="M3140 2262c-1,-2 -2,-4 -3,-6 -4,-5 -6,-7 -7,-8 -2,-2 -5,-4 -8,-5 0,0 -1,0 -2,-1 0,0 -1,0 -1,0 -1,0 -2,0 -2,0 -2,-1 -5,0 -8,0 -6,1 -11,3 -15,6 -6,4 -10,9 -14,14 -2,4 -4,7 -5,8 1,-2 -3,-6 -10,-10 -7,-4 -11,-1 -13,8 -1,6 0,43 5,109l42 -7c-2,-33 -1,-57 2,-72 3,-15 10,-22 21,-22 0,0 0,0 1,0 0,0 1,0 1,0 1,0 1,1 1,1 1,0 2,1 2,1 5,2 8,3 12,3 4,0 7,-1 8,-5 0,-2 -1,-4 -1,-5 0,0 -1,-1 -1,-2 0,0 0,-1 0,-1 -2,-1 -3,-3 -5,-6z"/>
  <path id="11" class="fil4" d="M3210 2370c3,-2 5,-6 5,-12 4,-13 5,-27 3,-42 1,-1 1,-2 1,-3 -1,-20 -4,-38 -10,-55 0,-1 0,-2 0,-4 -1,-2 -1,-3 -2,-4 0,-1 -1,-2 -1,-4 -1,-2 -2,-3 -2,-4 -1,-1 -1,-3 -2,-4 -1,-2 -2,-3 -2,-4 -1,-1 -2,-2 -3,-3 -1,-1 -2,-2 -2,-3 -1,-1 -2,-1 -3,-1 -6,-3 -11,-1 -14,4 -2,5 -4,12 -5,23 0,7 0,13 0,18 0,4 0,10 0,16 0,6 0,9 0,11 1,2 1,7 1,15 0,7 0,14 0,20 1,5 1,12 3,19 1,6 3,12 6,16 2,5 6,7 10,8 7,2 13,-1 17,-7zm-14 -176c3,0 5,-1 5,-2 4,-2 6,-5 7,-10 0,0 0,-1 0,-1 1,-5 0,-10 -3,-15 0,0 -1,0 -1,-1 -1,-1 -1,-2 -2,-2 0,-1 -1,-1 -1,-2 -1,-1 -2,-1 -3,-2 0,0 -2,-1 -3,-1 -1,0 -3,-1 -4,-1 -15,-3 -24,2 -25,15 0,0 0,1 -1,1 0,0 0,1 -1,3 0,2 0,3 0,4 -1,1 -1,2 0,4 0,2 0,4 1,5 1,1 3,2 5,3 2,1 5,2 8,3 7,0 13,0 18,-1z"/>
  <path id="12" class="fil4" d="M3501 2333c5,-11 5,-26 0,-45 0,-2 -1,-6 -3,-12 0,-2 -1,-4 -1,-6 -1,0 -1,-2 -2,-4 -1,-3 -2,-4 -2,-5 -1,-1 -1,-3 -2,-6 -1,-2 -2,-4 -3,-5l-1 -1 0 -1 -2 -3c-2,-2 -3,-3 -3,-4l-2 -2 0 -1c-1,0 -1,0 -1,0l-1 -1 -4 -2c-1,0 -1,0 -2,-1 -1,0 -2,0 -2,-1 -3,0 -5,-1 -7,-1 -4,0 -9,1 -12,2 -2,1 -4,1 -6,2 -1,0 -2,1 -3,2 -1,1 -2,1 -3,1l-5 4c-2,1 -3,3 -6,5l-5 5 -4 6c-3,-7 -8,-12 -13,-16 -2,-1 -5,-3 -10,-4 -4,-2 -8,-2 -12,-2 -4,0 -8,1 -12,2 -2,0 -4,1 -5,2 -3,1 -4,2 -5,3 -9,6 -15,13 -19,20 -3,3 -4,5 -4,5 0,0 -1,-2 -1,-5 -1,-4 -1,-7 -2,-9 -1,-2 -1,-4 -2,-6 -3,-7 -7,-6 -12,4 0,2 0,3 -1,5 -5,15 -7,35 -7,58 0,13 1,26 3,40l1 5 0 3 0 0c1,3 2,6 6,8 2,2 6,4 9,5 4,0 7,0 12,0 3,0 7,-2 11,-3 3,-2 5,-5 6,-8 1,0 1,-1 1,-2l0 -1 0 -3 1 -5c3,-8 4,-15 5,-20 1,-5 2,-12 4,-21 0,-4 1,-10 2,-19 0,-3 1,-6 2,-9 0,0 0,-1 0,-2 0,0 1,-1 1,-1 0,0 0,-1 0,-1 0,-1 1,-1 1,-1l0 -1 0 0c1,0 1,0 1,0 0,0 0,0 0,0 0,1 0,3 1,6 0,2 1,4 1,6 0,1 1,7 3,15 3,11 5,18 4,23 0,4 3,10 9,16 6,6 14,7 23,2 10,-4 17,-22 21,-52 2,-4 4,-8 6,-11 0,-1 1,-1 2,-3 1,-1 1,-2 2,-2l1 -3 0 -1c0,0 0,-1 0,-1 1,0 1,0 2,1l0 0 1 2c1,1 1,3 2,5 1,2 1,3 2,4 4,11 7,22 9,33 1,4 2,8 3,13 1,6 1,10 2,12 0,3 1,6 2,8 0,3 1,5 3,6 3,3 6,3 9,-2 7,-4 11,-12 13,-24z"/>
  <path id="13" class="fil4" d="M3568 2370c3,-2 4,-6 5,-12 4,-13 5,-27 3,-42 1,-1 1,-2 1,-3 -1,-20 -4,-38 -10,-55 0,-1 0,-2 -1,-4 0,-2 -1,-3 -1,-4 0,-1 -1,-2 -1,-4 -1,-2 -2,-3 -2,-4 -1,-1 -1,-3 -2,-4 -1,-2 -2,-3 -3,-4 0,-1 -1,-2 -2,-3 -1,-1 -2,-2 -3,-3 -1,-1 -1,-1 -2,-1 -6,-3 -11,-1 -14,4 -2,5 -4,12 -5,23 0,7 0,13 0,18 0,4 0,10 0,16 0,6 0,9 0,11 1,2 1,7 1,15 0,7 0,14 0,20 1,5 1,12 3,19 1,6 3,12 6,16 2,5 6,7 10,8 7,2 13,-1 17,-7zm-14 -176c3,0 5,-1 5,-2 4,-2 6,-5 7,-10 0,0 0,-1 0,-1 1,-5 0,-10 -3,-15 0,0 -1,0 -1,-1 -1,-1 -1,-2 -2,-2 0,-1 -1,-1 -1,-2 -1,-1 -2,-1 -3,-2 -1,0 -2,-1 -3,-1 -1,0 -3,-1 -4,-1 -15,-3 -24,2 -25,15 0,0 -1,1 -1,1 0,0 0,1 -1,3 0,2 0,3 -1,4 0,1 0,2 0,4 1,2 1,4 2,5 1,1 3,2 5,3 2,1 5,2 8,3 7,0 13,0 18,-1z"/>
  <path id="14" class="fil4" d="M3633 2205c0,-2 -1,-5 -2,-10 -2,-4 -3,-8 -4,-11 0,-3 -2,-6 -3,-10 -1,-4 -3,-7 -5,-10 -1,-2 -3,-4 -5,-5 -6,-3 -11,0 -14,10 -2,7 -3,16 -4,30l0 23c-1,1 -1,3 -1,4 0,2 0,4 1,6 1,10 2,21 3,32 3,34 5,56 7,65 5,30 13,46 23,48 7,2 13,-1 16,-10 2,-3 3,-9 3,-18 2,-16 1,-37 -1,-61l0 -4c-2,-16 -4,-32 -6,-45 6,0 11,-1 13,-1 10,-1 16,-5 17,-11 1,-5 0,-9 -2,-12 -1,-2 -3,-4 -7,-4 -5,-2 -12,-3 -22,-3 -1,-1 -1,-1 -2,-1l-4 0c0,-1 0,-1 -1,-2z"/>
  <path id="15" class="fil4" d="M3777 2262c-1,-2 -2,-4 -4,-6 -3,-5 -5,-7 -6,-8 -3,-2 -5,-4 -8,-5 -1,0 -1,0 -2,-1 0,0 -1,0 -2,0 0,0 -1,0 -2,0 -2,-1 -4,0 -7,0 -6,1 -11,3 -15,6 -6,4 -11,9 -14,14 -2,4 -4,7 -5,8 0,-2 -3,-6 -11,-10 -6,-4 -10,-1 -12,8 -2,6 0,43 4,109l42 -7c-1,-33 0,-57 3,-72 3,-15 10,-22 21,-22 0,0 0,0 1,0 0,0 1,0 1,0 0,0 1,1 1,1 1,0 1,1 2,1 4,2 8,3 12,3 4,0 6,-1 7,-5 0,-2 0,-4 0,-5 -1,0 -1,-1 -1,-2 0,0 0,-1 -1,-1 -1,-1 -3,-3 -4,-6z"/>
  <path id="16" class="fil4" d="M3903 2255l-20 -2c-2,5 -5,13 -9,25 -5,12 -8,21 -10,27 0,0 -1,1 -2,2 0,1 -1,2 -1,3 0,1 -1,2 -1,3 -4,8 -7,14 -10,17 0,2 -1,3 -2,5 -1,1 -2,3 -3,3l-1 2c0,0 0,1 -1,1l-1 0 0 0 0 -8c0,-3 0,-9 2,-17 2,-12 6,-24 12,-36 3,-7 7,-15 13,-23 0,-1 2,-3 3,-5 2,-3 3,-4 4,-5 3,-4 6,-6 8,-6 4,-1 7,0 10,1 3,1 4,3 6,5 0,2 1,3 2,4 0,1 1,3 1,4zm14 -18c-2,-4 -5,-8 -10,-11 -6,-4 -13,-6 -20,-6 -8,0 -15,1 -22,4 -4,2 -7,4 -9,6 -1,1 -3,2 -5,5 -2,1 -3,2 -4,3 -7,6 -13,14 -19,22 -11,15 -19,32 -24,51 -3,11 -4,20 -4,26l0 8c0,1 0,2 0,3 0,1 0,2 0,3 0,0 0,1 0,2 1,1 1,2 1,3 2,7 5,12 9,16 4,5 9,8 15,9 4,1 7,2 8,2 4,0 7,0 9,-1 3,0 5,-1 7,-1 1,0 2,-1 3,-1 1,0 1,-1 2,-1 1,0 1,-1 2,-1 1,0 2,-1 6,-4 1,-1 3,-2 4,-3 5,-3 10,-8 16,-15l2 -1 1 -2c1,-1 2,-2 2,-2 1,-1 1,-2 2,-3 1,-2 2,-2 2,-3 2,-2 3,-4 4,-6 3,10 8,19 13,26 6,7 12,11 16,12 5,2 7,0 8,-4 0,-3 0,-9 -2,-19 0,-2 0,-5 0,-8 0,-3 -1,-7 -2,-12 -1,-5 -1,-9 -2,-12 0,-8 -1,-28 -1,-58 1,-1 1,-2 1,-3l-1 0 0 -4 -9 -1c4,-7 4,-13 1,-19z"/>
  <path id="17" class="fil4" d="M4074 2205c0,-2 -1,-5 -2,-10 -2,-4 -3,-8 -4,-11 0,-3 -2,-6 -3,-10 -1,-4 -3,-7 -5,-10 -1,-2 -3,-4 -5,-5 -6,-3 -11,0 -14,10 -2,7 -4,16 -4,30l0 23c-1,1 -1,3 -1,4 0,2 0,4 1,6 1,10 2,21 3,32 3,34 5,56 7,65 5,30 13,46 23,48 7,2 13,-1 16,-10 2,-3 3,-9 3,-18 2,-16 1,-37 -1,-61l0 -4c-2,-16 -4,-32 -6,-45 6,0 11,-1 13,-1 10,-1 16,-5 17,-11 1,-5 0,-9 -2,-12 -1,-2 -3,-4 -7,-4 -5,-2 -12,-3 -22,-3 -1,-1 -1,-1 -2,-1l-4 0c0,-1 0,-1 -1,-2z"/>
  <path id="18" class="fil4" d="M4231 2255l-20 -2c-2,5 -5,13 -9,25 -5,12 -8,21 -10,27 0,0 -1,1 -1,2 -1,1 -2,2 -2,3 0,1 -1,2 -1,3 -4,8 -7,14 -9,17 -1,2 -2,3 -3,5 -1,1 -2,3 -3,3l-1 2c0,0 0,1 0,1l-2 0 0 0 0 -8c0,-3 1,-9 2,-17 2,-12 6,-24 12,-36 3,-7 7,-15 13,-23 0,-1 2,-3 3,-5 2,-3 3,-4 4,-5 3,-4 6,-6 8,-6 4,-1 7,0 10,1 3,1 5,3 6,5 0,2 1,3 2,4 0,1 1,3 1,4zm14 -18c-2,-4 -5,-8 -10,-11 -6,-4 -13,-6 -20,-6 -8,0 -15,1 -22,4 -4,2 -7,4 -9,6 -1,1 -3,2 -5,5 -1,1 -3,2 -4,3 -7,6 -13,14 -19,22 -11,15 -19,32 -24,51 -3,11 -4,20 -4,26l0 8c0,1 0,2 0,3 0,1 0,2 0,3 0,0 0,1 1,2 0,1 0,2 0,3 2,7 5,12 9,16 4,5 9,8 15,9 4,1 7,2 9,2 3,0 6,0 8,-1 3,0 5,-1 7,-1 1,0 2,-1 3,-1 1,0 1,-1 2,-1 1,0 1,-1 2,-1 1,0 3,-1 6,-4 1,-1 3,-2 4,-3 5,-3 10,-8 16,-15l2 -1 1 -2c1,-1 2,-2 2,-2 1,-1 1,-2 2,-3 1,-2 2,-2 2,-3 2,-2 3,-4 4,-6 4,10 8,19 13,26 6,7 12,11 16,12 5,2 7,0 8,-4 0,-3 0,-9 -2,-19 0,-2 0,-5 0,-8 0,-3 -1,-7 -2,-12 0,-5 -1,-9 -1,-12 -1,-8 -2,-28 -2,-58 1,-1 1,-2 2,-3l-2 0 0 -4 -9 -1c4,-7 4,-13 1,-19z"/>
  <path id="19" class="fil4" d="M4320 2225c0,-5 -1,-14 -2,-27 -5,-49 -10,-77 -14,-84 -6,-8 -11,-3 -14,16 -4,17 -6,43 -6,78 -1,43 1,96 4,159l0 3 45 1c7,-32 12,-52 15,-60 0,-1 0,-3 1,-5 1,-2 1,-3 2,-4 0,-1 0,-1 0,-2 0,-1 1,-2 1,-2l0 -2c0,0 0,0 1,1 0,0 1,0 1,1 0,0 0,0 0,0 1,0 1,1 1,1 0,1 0,3 1,5 1,2 1,4 1,5 1,4 2,10 4,19 6,27 11,42 16,46 5,3 9,0 12,-9 2,-4 3,-10 4,-17 3,-8 3,-22 0,-42 0,-11 -3,-27 -8,-51 0,-2 -1,-10 -1,-24 -1,-13 -13,-17 -36,-10 -2,2 -3,4 -6,7 -2,3 -4,5 -5,7 -2,2 -3,5 -5,7 -1,2 -3,4 -6,8 -1,2 -2,4 -3,6 -1,-11 -2,-21 -3,-31z"/>
  <path id="20" class="fil4" d="M4513 2327c6,-12 10,-26 13,-41 4,-18 4,-36 2,-54l-44 -1c-4,26 -7,49 -7,69 -1,4 -2,7 -4,11 -1,2 -3,7 -6,15l-3 7 -4 7c0,1 0,2 0,3l-1 2 -1 1c-1,0 -2,0 -2,-1 -1,0 -2,-2 -3,-5l0 -3c0,-1 -1,-2 -1,-4 0,-1 0,-2 0,-2 0,-2 0,-4 0,-7 0,-2 -1,-5 -1,-6 0,-6 0,-16 0,-28 0,-22 -1,-35 -4,-39 -4,-7 -9,-4 -16,11 -2,4 -4,9 -5,15 -4,13 -7,27 -9,43 0,1 0,3 0,6 0,3 0,5 -1,6 0,3 0,5 0,7l0 11c1,12 2,20 2,22 2,6 4,12 8,17 2,4 7,8 13,10 1,0 2,1 5,1 1,1 3,1 6,1 2,0 4,0 4,-1 1,0 1,0 2,0 1,0 1,0 2,0 1,-1 2,-1 3,-1 2,-1 3,-1 4,-1 0,-1 0,-1 0,-1l2 -1 2 -2c1,0 2,-2 4,-3 1,-1 2,-2 4,-3 1,0 1,-1 2,-3l2 -2c1,-2 4,-5 7,-10 0,0 1,-2 3,-6 1,1 1,1 1,1 5,1 7,0 9,-4 0,-1 1,-3 2,-7 1,-4 1,-7 2,-9 2,-4 4,-8 6,-15 0,-2 1,-4 2,-6z"/>
  <path id="21" class="fil4" d="M4673 2313c-2,-6 -4,-12 -5,-19 -7,-23 -12,-37 -16,-42 -5,-6 -9,-4 -11,8 -4,16 -3,42 3,77 0,4 1,11 2,21l0 2c1,1 1,2 2,4 3,3 5,6 8,7 4,2 8,3 12,4 5,0 9,0 12,-1 4,-1 8,-3 11,-5 3,-3 5,-5 6,-7l0 -1 1 -2c0,-2 1,-4 2,-5 0,-1 0,-1 0,-2 0,-1 0,-2 1,-2l0 2 2 11c0,2 1,4 1,6l1 1 1 2c1,3 3,6 5,7 3,3 7,4 12,5 8,2 15,1 22,-2 5,-2 8,-4 9,-7 0,0 1,-1 2,-4 1,0 1,-1 1,-2l1 -6c0,-2 0,-5 0,-10 1,-4 2,-7 2,-9 3,-26 4,-50 3,-71 -1,-21 -4,-33 -9,-37 -7,-6 -13,1 -19,20l0 1c-2,4 -5,15 -7,31 -2,-5 -4,-10 -5,-16 -4,-11 -7,-20 -9,-26l-1 -3 0 -1 0 -1 -1 0c-1,0 -3,-1 -7,-1l-5 2 -2 0 0 0 0 1 -1 1 -3 7c-1,4 -3,9 -5,14 -2,6 -7,22 -16,48z"/>
  <path id="22" class="fil4" d="M4885 2255l-20 -2c-2,5 -5,13 -9,25 -5,12 -8,21 -10,27 -1,0 -1,1 -2,2 0,1 -1,2 -1,3 0,1 -1,2 -1,3 -4,8 -7,14 -10,17 0,2 -1,3 -2,5 -1,1 -2,3 -3,3l-1 2c0,0 0,1 -1,1l-1 0 0 0 0 -8c0,-3 0,-9 2,-17 2,-12 6,-24 12,-36 3,-7 7,-15 13,-23 0,-1 2,-3 3,-5 2,-3 3,-4 4,-5 3,-4 6,-6 8,-6 4,-1 7,0 10,1 3,1 4,3 6,5 0,2 1,3 2,4 0,1 1,3 1,4zm14 -18c-2,-4 -5,-8 -10,-11 -6,-4 -13,-6 -20,-6 -8,0 -15,1 -22,4 -4,2 -7,4 -9,6 -1,1 -3,2 -5,5 -2,1 -3,2 -4,3 -7,6 -13,14 -19,22 -11,15 -19,32 -24,51 -3,11 -4,20 -4,26l0 8c0,1 0,2 0,3 0,1 0,2 0,3 0,0 0,1 0,2 1,1 1,2 1,3 2,7 5,12 9,16 4,5 9,8 15,9 4,1 7,2 8,2 4,0 7,0 9,-1 3,0 5,-1 7,-1 1,0 2,-1 3,-1 1,0 1,-1 2,-1 1,0 1,-1 2,-1 1,0 2,-1 5,-4 2,-1 4,-2 5,-3 5,-3 10,-8 16,-15l2 -1 1 -2c1,-1 2,-2 2,-2 1,-1 1,-2 2,-3 1,-2 2,-2 2,-3 2,-2 3,-4 4,-6 3,10 8,19 13,26 6,7 11,11 16,12 5,2 7,0 8,-4 0,-3 0,-9 -2,-19 0,-2 0,-5 0,-8 0,-3 -1,-7 -2,-12 -1,-5 -1,-9 -2,-12 0,-8 -1,-28 -1,-58 1,-1 1,-2 1,-3l-1 0 0 -4 -9 -1c3,-7 4,-13 1,-19z"/>
  <path id="23" class="fil4" d="M4966 2362c3,-4 5,-10 6,-19 4,-17 6,-39 6,-68 0,-1 1,-3 1,-5 0,-31 -3,-61 -9,-89 -6,-30 -13,-47 -20,-51 -6,-3 -10,0 -13,9 -2,8 -3,19 -3,35 -1,11 -1,20 -1,28 1,8 1,17 1,26 0,9 0,15 0,18 0,2 0,11 0,29 -1,18 -1,32 0,43 0,33 4,51 13,55 7,2 14,-1 19,-11z"/>
  <path id="24" class="fil4" d="M5040 2370c2,-2 4,-6 5,-12 4,-13 5,-27 3,-42 0,-1 1,-2 1,-3 -1,-20 -4,-38 -10,-55 0,-1 0,-2 -1,-4 0,-2 -1,-3 -1,-4 -1,-1 -1,-2 -2,-4 0,-2 -1,-3 -1,-4 -1,-1 -2,-3 -2,-4 -1,-2 -2,-3 -3,-4 -1,-1 -1,-2 -2,-3 -1,-1 -2,-2 -3,-3 -1,-1 -2,-1 -2,-1 -7,-3 -11,-1 -14,4 -3,5 -5,12 -6,23 0,7 0,13 0,18 0,4 0,10 1,16 0,6 0,9 0,11 0,2 0,7 0,15 0,7 1,14 1,20 0,5 1,12 2,19 2,6 3,12 6,16 3,5 6,7 11,8 7,2 12,-1 17,-7zm-14 -176c3,0 5,-1 5,-2 3,-2 6,-5 6,-10 1,0 1,-1 1,-1 1,-5 0,-10 -4,-15 0,0 0,0 0,-1 -1,-1 -1,-2 -2,-2 0,-1 -1,-1 -2,-2 0,-1 -1,-1 -2,-2 -1,0 -2,-1 -3,-1 -2,0 -3,-1 -4,-1 -16,-3 -24,2 -26,15 0,0 0,1 0,1 0,0 0,1 -1,3 0,2 -1,3 -1,4 0,1 0,2 0,4 0,2 1,4 2,5 1,1 3,2 5,3 2,1 5,2 8,3 7,0 13,0 18,-1z"/>
  <path id="25" class="fil4" d="M5120 2355c2,1 5,3 9,6 4,3 7,5 10,7 3,2 5,4 7,5 9,6 16,8 21,7 8,-1 10,-6 8,-14 1,-4 -2,-8 -8,-15 -9,-11 -25,-25 -47,-41 -1,-1 -2,-2 -4,-3l0 -1 0 0 0 -1 2 -1 4 -3c6,-6 15,-15 27,-28 0,0 1,-2 3,-3 2,-2 3,-4 4,-4 0,-1 2,-3 3,-5 2,-2 3,-4 4,-5 1,0 2,-2 4,-4 1,-2 2,-4 3,-5 0,0 1,-2 2,-4 1,-2 1,-3 1,-3 0,-1 -1,-2 -1,-3 -3,-4 -8,-5 -16,-2 -7,3 -17,9 -29,17 -3,3 -9,7 -18,14 -1,-35 -4,-66 -10,-95 -6,-34 -13,-52 -19,-56 -11,-8 -17,8 -17,48 -1,12 -1,28 0,49 0,20 1,31 1,32 0,2 0,13 0,32 0,20 1,36 1,47 2,37 8,57 17,61 6,3 11,0 16,-10 0,-1 0,-2 1,-2 3,-4 5,-11 6,-21 0,-2 0,-4 0,-6 6,4 11,7 15,10z"/>
  <path id="26" class="fil4" d="M5309 2362c3,-4 5,-10 5,-19 5,-17 7,-39 7,-68 0,-1 0,-3 0,-5 1,-31 -2,-61 -8,-89 -7,-30 -13,-47 -20,-51 -6,-3 -10,0 -13,9 -3,8 -4,19 -4,35 0,11 0,20 0,28 0,8 0,17 1,26 0,9 0,15 0,18 0,2 0,11 -1,29 0,18 0,32 0,43 1,33 5,51 14,55 7,2 13,-1 19,-11z"/>
  <path id="27" class="fil4" d="M5439 2255l-21 -2c-1,5 -4,13 -9,25 -4,12 -7,21 -9,27 -1,0 -1,1 -2,2 0,1 -1,2 -1,3 -1,1 -1,2 -1,3 -4,8 -7,14 -10,17 -1,2 -1,3 -2,5 -1,1 -2,3 -3,3l-1 2c0,0 0,1 -1,1l-1 0 0 0 0 -8c0,-3 0,-9 2,-17 2,-12 6,-24 12,-36 3,-7 7,-15 12,-23 1,-1 2,-3 4,-5 2,-3 3,-4 4,-5 3,-4 6,-6 8,-6 4,-1 7,0 10,1 3,1 4,3 5,5 1,2 2,3 3,4 0,1 1,3 1,4zm14 -18c-2,-4 -6,-8 -11,-11 -5,-4 -12,-6 -19,-6 -8,0 -15,1 -22,4 -4,2 -7,4 -9,6 -1,1 -3,2 -5,5 -2,1 -3,2 -4,3 -7,6 -13,14 -19,22 -11,15 -19,32 -25,51 -2,11 -4,20 -4,26l0 8c0,1 0,2 1,3 0,1 0,2 0,3 0,0 0,1 0,2 0,1 1,2 1,3 2,7 5,12 9,16 4,5 9,8 15,9 3,1 6,2 8,2 4,0 7,0 9,-1 3,0 5,-1 7,-1 1,0 2,-1 3,-1 0,0 1,-1 2,-1 1,0 1,-1 2,-1 0,0 2,-1 5,-4 2,-1 4,-2 5,-3 5,-3 10,-8 16,-15l2 -1 1 -2c1,-1 2,-2 2,-2 1,-1 1,-2 2,-3 1,-2 2,-2 2,-3 1,-2 3,-4 4,-6 3,10 8,19 13,26 6,7 11,11 16,12 5,2 7,0 8,-4 0,-3 -1,-9 -2,-19 0,-2 0,-5 0,-8 -1,-3 -1,-7 -2,-12 -1,-5 -1,-9 -2,-12 0,-8 -1,-28 -1,-58 1,-1 1,-2 1,-3l-1 0 0 -4 -9 -1c3,-7 4,-13 1,-19z"/>
  <path id="28" class="fil4" d="M5531 2370c3,-2 5,-6 6,-12 3,-13 4,-27 3,-42 0,-1 0,-2 0,-3 -1,-20 -4,-38 -9,-55 0,-1 -1,-2 -1,-4 -1,-2 -1,-3 -2,-4 0,-1 0,-2 -1,-4 -1,-2 -1,-3 -2,-4 0,-1 -1,-3 -2,-4 -1,-2 -1,-3 -2,-4 -1,-1 -2,-2 -3,-3 0,-1 -1,-2 -2,-3 -1,-1 -2,-1 -3,-1 -6,-3 -11,-1 -13,4 -3,5 -5,12 -6,23 0,7 0,13 0,18 0,4 0,10 0,16 0,6 0,9 0,11 1,2 1,7 1,15 0,7 0,14 1,20 0,5 1,12 2,19 1,6 3,12 6,16 3,5 6,7 10,8 7,2 13,-1 17,-7zm-14 -176c3,0 5,-1 6,-2 3,-2 5,-5 6,-10 0,0 1,-1 1,-1 1,-5 0,-10 -4,-15 0,0 0,0 -1,-1 0,-1 -1,-2 -1,-2 -1,-1 -1,-1 -2,-2 -1,-1 -2,-1 -2,-2 -1,0 -2,-1 -4,-1 -1,0 -2,-1 -3,-1 -16,-3 -25,2 -26,15 0,0 0,1 0,1 -1,0 -1,1 -1,3 -1,2 -1,3 -1,4 0,1 0,2 0,4 0,2 1,4 2,5 1,1 2,2 4,3 2,1 5,2 9,3 6,0 12,0 17,-1z"/>
  <path id="29" class="fil4" d="M5553 2338c0,6 -1,11 -1,16l0 20 3 0c0,0 0,1 0,1l39 -1 0 -2 2 0c-1,-8 -1,-19 1,-32 0,-4 1,-8 2,-14 1,-5 1,-8 1,-10 0,-1 1,-3 1,-6 1,-2 2,-5 2,-7l3 -10 0 0 7 26c0,2 1,4 1,7 6,24 11,37 15,39 5,4 10,1 15,-9 0,-3 1,-5 2,-8 3,-7 4,-17 3,-31 0,-4 -1,-11 -1,-20 0,-1 0,-2 -1,-3 0,-1 0,-2 0,-3l0 -1 0 -3 -1 -5c0,-1 -1,-3 -1,-5 -1,-2 -1,-4 -1,-5l0 -5 0 -3 -1 -3 -1 -5c-1,-1 -1,-3 -2,-4 -1,-2 -2,-5 -4,-6 -2,-4 -6,-7 -10,-10 -3,-3 -8,-5 -13,-6 -1,0 -4,0 -9,0 -2,0 -4,1 -5,1 -1,0 -2,0 -3,1 -2,0 -3,1 -4,1l-2 2 -2 1 -1 2c-2,2 -4,4 -5,6 -2,2 -4,5 -5,7 -1,1 -2,2 -2,3 -12,-11 -19,17 -22,84z"/>
  <path id="30" class="fil4" d="M5658 2338c0,6 0,11 0,16l0 20 2 0c0,0 1,1 1,1l38 -1 0 -2 3 0c-2,-8 -1,-19 0,-32 1,-4 1,-8 2,-14 1,-5 2,-8 2,-10 0,-1 0,-3 1,-6 1,-2 1,-5 1,-7l3 -10 0 0 7 26c0,2 1,4 2,7 5,24 10,37 14,39 6,4 11,1 15,-9 1,-3 2,-5 2,-8 3,-7 4,-17 3,-31 0,-4 0,-11 -1,-20 0,-1 0,-2 0,-3 0,-1 -1,-2 -1,-3l0 -1 0 -3 -1 -5c0,-1 0,-3 -1,-5 0,-2 0,-4 0,-5l0 -5 -1 -3 -1 -3 -1 -5c-1,-1 -1,-3 -2,-4 -1,-2 -2,-5 -4,-6 -2,-4 -5,-7 -10,-10 -3,-3 -7,-5 -13,-6 -1,0 -4,0 -8,0 -3,0 -4,1 -6,1 -1,0 -2,0 -3,1 -2,0 -3,1 -4,1l-2 2 -2 1 -1 2c-2,2 -3,4 -5,6 -2,2 -4,5 -5,7 -1,1 -1,2 -2,3 -12,-11 -19,17 -22,84z"/>
  <path id="31" class="fil4" d="M5800 2373c-6,17 -11,30 -14,40 -12,33 -14,52 -6,57 5,4 12,1 21,-8 4,-3 9,-9 13,-18 11,-19 22,-41 31,-67 0,-1 1,-2 2,-5 12,-31 19,-60 23,-90 5,-31 4,-49 0,-53 -6,-6 -13,-1 -21,14 -4,7 -8,15 -12,26 0,1 -3,10 -10,29 -7,-18 -14,-35 -22,-49 -1,0 -2,-2 -4,-5 -2,-4 -3,-6 -4,-8 -2,-1 -3,-4 -5,-6 -2,-3 -4,-5 -6,-6 -1,-1 -3,-2 -5,-2 -6,-2 -11,0 -12,5 -2,6 -3,13 -2,23 3,15 7,30 13,43 1,2 2,5 4,11 2,6 4,11 6,17 2,6 4,11 7,15 3,7 7,13 11,17 -2,5 -5,12 -8,20z"/>
  <path id="32" class="fil4" d="M5994 2255l-21 -2c-1,5 -4,13 -9,25 -4,12 -8,21 -9,27 -1,0 -1,1 -2,2 -1,1 -1,2 -1,3 -1,1 -1,2 -2,3 -3,8 -7,14 -9,17 -1,2 -2,3 -3,5 -1,1 -1,3 -2,3l-1 2c0,0 -1,1 -1,1l-1 0 -1 0 0 -8c0,-3 1,-9 3,-17 2,-12 6,-24 11,-36 3,-7 8,-15 13,-23 1,-1 2,-3 4,-5 2,-3 3,-4 4,-5 3,-4 5,-6 8,-6 3,-1 7,0 10,1 2,1 4,3 5,5 1,2 2,3 3,4 0,1 0,3 1,4zm14 -18c-2,-4 -6,-8 -11,-11 -6,-4 -12,-6 -19,-6 -8,0 -16,1 -22,4 -4,2 -7,4 -10,6 0,1 -2,2 -4,5 -2,1 -3,2 -4,3 -7,6 -13,14 -19,22 -11,15 -20,32 -25,51 -2,11 -4,20 -4,26l0 8c0,1 0,2 0,3 1,1 1,2 1,3 0,0 0,1 0,2 0,1 1,2 1,3 2,7 4,12 9,16 4,5 9,8 14,9 4,1 7,2 9,2 4,0 7,0 8,-1 3,0 6,-1 7,-1 1,0 3,-1 4,-1 0,0 1,-1 2,-1 0,0 1,-1 1,-1 1,0 3,-1 6,-4 2,-1 3,-2 5,-3 5,-3 10,-8 16,-15l1 -1 2 -2c1,-1 1,-2 2,-2 0,-1 1,-2 2,-3 1,-2 2,-2 2,-3 1,-2 2,-4 3,-6 4,10 8,19 14,26 6,7 11,11 16,12 4,2 7,0 7,-4 1,-3 0,-9 -1,-19 0,-2 0,-5 0,-8 -1,-3 -1,-7 -2,-12 -1,-5 -1,-9 -2,-12 -1,-8 -1,-28 -1,-58 0,-1 1,-2 1,-3l-1 0 0 -4 -9 -1c3,-7 3,-13 1,-19z"/>
  <line class="fil2 str1" x1="7491" y1="702" x2="5589" y2= "702" />
  <line class="fil2 str1" x1="7328" y1="1754" x2="6522" y2= "1754" />
  <line class="fil2 str1" x1="1466" y1="1222" x2="333" y2= "1222" />
  <line class="fil2 str1" x1="1030" y1="2280" x2="22" y2= "2280" />
  <polygon class="fil1" points="5630,630 5609,666 5589,702 5609,738 5630,774 5672,774 5714,774 5734,738 5755,702 5734,666 5714,630 5672,630 "/>
  <polygon class="fil1" points="6586,1644 6554,1699 6522,1754 6554,1809 6586,1865 6650,1865 6713,1865 6745,1809 6777,1754 6745,1699 6713,1644 6650,1644 "/>
  <polygon class="fil1" points="1275,1112 1243,1167 1211,1222 1243,1278 1275,1333 1338,1333 1402,1333 1434,1278 1466,1222 1434,1167 1402,1112 1338,1112 "/>
  <polygon class="fil1" points="905,2208 884,2244 863,2280 884,2316 905,2352 946,2352 988,2352 1009,2316 1030,2280 1009,2244 988,2208 946,2208 "/>
 </g>
</svg>
