<?xml version="1.0" encoding="UTF-8"?>
<!DOCTYPE svg PUBLIC "-//W3C//DTD SVG 1.0//EN" "http://www.w3.org/TR/2001/REC-SVG-20010904/DTD/svg10.dtd">
<!-- Creator: CorelDRAW X8 -->
<svg xmlns="http://www.w3.org/2000/svg" xml:space="preserve" width="100%" height="100%" version="1.0" style="shape-rendering:geometricPrecision; text-rendering:geometricPrecision; image-rendering:optimizeQuality; fill-rule:evenodd; clip-rule:evenodd"
viewBox="0 0 10717 12409"
 xmlns:xlink="http://www.w3.org/1999/xlink">
 <defs>
  <style type="text/css">
   <![CDATA[
    .fil0 {fill:#0A0B0D}
    .fil5 {fill:#B5663C}
    .fil7 {fill:#D9157A}
    .fil2 {fill:#D9251C}
    .fil8 {fill:#E4A1B4}
    .fil9 {fill:#F2CA32}
    .fil3 {fill:#F4C493}
    .fil1 {fill:#F8C301}
    .fil4 {fill:#FDFDFD}
    .fil6 {fill:#FEF403}
   ]]>
  </style>
 </defs>
 <g id="Layer_x0020_1">
  <metadata id="CorelCorpID_0Corel-Layer"/>
  <g id="_896894528">
   <path class="fil0" d="M2973 9770c65,-37 2169,-209 2454,-237 163,-17 2359,-234 2472,-224 -34,89 -128,136 -213,189l-381 218c-66,35 -73,62 -116,92 -58,41 -207,75 -287,115 -93,46 -196,69 -295,110 -168,68 7,48 -301,99 -231,38 -462,79 -689,116 -187,29 -179,46 -327,26 -234,-32 -542,38 -1141,-70 -254,-46 -404,-94 -628,-176 -368,-135 -308,-64 -548,-258zm-1323 -913c5,83 -14,215 -23,303 -9,92 -35,115 -169,165 -445,167 -789,-212 -341,-478 177,-104 365,-78 533,10zm-130 -204c25,-49 112,-152 162,-188l-10 230 -152 -42zm4537 -154c283,-40 469,-151 785,-139l213 300 146 -315c87,41 222,-84 332,-81l14 114c65,-2 232,-99 319,-131 42,-15 26,-7 59,-24 93,-47 250,-72 331,-15 50,35 139,114 188,135l39 -48c9,-15 19,-36 29,-53 118,-196 65,-120 208,-290l350 193 46 919c-442,1 -1486,128 -2005,171 -1250,105 -2561,237 -3821,354 -324,30 -1718,180 -1925,163l-2 -255c203,-39 352,-118 457,-280 53,-83 37,-127 66,-186 5,-10 338,-321 431,-322 49,0 163,19 235,22l-24 140 529 -121 19 124c34,-6 91,-48 131,-76 73,-51 70,-64 181,-61 14,21 2,0 16,33 7,20 1,15 12,37 108,-29 223,-83 333,-117 165,-52 250,-32 424,-51l1 -104c476,121 628,-157 694,-176l34 411c68,-24 174,-108 242,-160 114,-87 400,-113 611,-195 38,-16 118,-62 139,-66 26,-6 147,7 187,8l-24 142zm-4475 -353c118,405 -626,692 -826,507 -178,-165 20,-396 142,-470 155,-95 325,-177 550,-142l2 161 132 -56zm752 305c6,-84 158,-647 191,-779 17,-67 34,-132 52,-200 9,-36 15,-66 24,-101 13,-54 4,-52 41,-72 45,-25 330,-79 399,-76 -8,494 127,1025 123,1264l-317 62 -4 -333c-281,-11 -144,176 -211,254 -34,39 -230,23 -298,-19zm3537 -369c-3,-9 -5,-10 -5,-30l87 -356c24,-92 173,-738 207,-765 37,-30 342,-85 410,-84 -7,439 131,1107 122,1265l-317 62 -6 -340 -164 44c-28,51 -32,169 -37,229 -97,9 -221,18 -297,-25zm-4832 -749c223,-42 429,37 494,180 89,194 -123,348 -284,365 -553,57 -774,-438 -210,-545zm7691 271c102,-332 616,-195 721,21 178,365 -448,441 -615,227l58 -45c-37,-98 -116,-114 -164,-203zm-7075 -70c169,-100 551,-247 769,-243l47 216c-77,44 -186,38 -261,83 -30,316 32,563 58,855 -159,73 -276,200 -355,232l22 -983c-88,18 -194,97 -244,97l-36 -257zm6801 -208c15,-46 97,-157 126,-177 75,119 108,104 161,141 22,15 7,2 24,22 -20,58 15,8 -39,49 -41,32 -75,41 -109,125 -75,-26 -100,-80 -163,-160zm-843 -543c7,205 -8,416 -1,626 7,195 32,383 38,568l-229 54c-34,-281 -122,-870 -88,-1122l280 -126zm-2850 206c2,4 4,9 5,11 1,3 3,8 4,11 1,4 3,8 4,11l49 321c145,1028 -575,1234 -762,722 -79,-218 -61,-500 -20,-739 107,-29 181,-71 275,-98 -12,247 -24,678 70,889 127,20 150,-37 169,-148 49,-286 -53,-594 -99,-821l305 -159zm-1130 627c45,-543 9,-449 178,-462 67,-5 129,-19 190,-24 -13,92 -41,187 -53,294 -47,410 -24,600 -32,981l-290 64 -7 -693c-34,18 -35,27 -75,54 -26,18 -55,29 -84,44l32 486c-23,15 -212,109 -238,114 -40,-216 -117,-936 -88,-1129l319 -63c-26,141 -28,269 -26,421 65,-7 136,-59 174,-87zm1920 -206c35,-37 28,-108 47,-204 63,-326 41,-306 171,-333 65,-13 140,-30 208,-40 -35,232 -107,336 -155,794 -39,365 18,479 -135,554 -46,22 -105,42 -156,54 -15,-140 -12,-202 -44,-347 -22,-99 -45,-209 -58,-316 -18,30 -9,10 -21,52 -5,18 -9,43 -11,61 -29,174 -21,225 -30,392 -7,126 -232,252 -265,257 -19,-219 -91,-351 -130,-539 -26,-122 -92,-457 -93,-573 46,-23 79,-43 129,-79 44,-31 83,-71 133,-91 -2,156 14,556 75,673 28,-168 67,-435 63,-607l238 -91c-4,163 -17,228 34,383zm2439 -281c74,-45 236,-379 299,-483 56,25 173,146 223,189 -34,63 -267,328 -347,491 66,151 338,386 382,458 -80,80 -98,129 -166,212 -66,-23 -77,-50 -120,-100l-183 -207c-68,-87 -39,-78 -102,-103l23 351c-28,15 -233,89 -257,90 -16,-201 -16,-387 -19,-590 -3,-200 -25,-399 -28,-583 67,-60 184,-123 293,-147l2 422zm-1222 914c-16,-258 -27,-537 -13,-795 4,-62 8,-129 15,-193 9,-86 -4,-109 63,-143 74,-38 225,-95 313,-109 -15,75 -50,149 -70,226 -60,226 -101,473 -97,708 43,-21 5,6 39,-28 26,-26 90,-153 174,-192 18,25 6,5 22,39 62,134 -7,20 111,228 -31,55 -116,127 -164,192l-150 193c-89,-57 -116,-77 -243,-126zm2005 -1319c156,-88 320,-173 564,-128 171,32 392,165 281,379 -171,331 -866,334 -930,45 30,-40 63,-63 102,-96 85,-72 69,-43 90,-108 -41,-24 -80,-48 -107,-92zm-3528 -207l-176 229c-27,26 -8,10 -39,28l8 -170c-70,14 -283,122 -356,158 -63,31 -110,52 -173,90 -55,32 -106,65 -179,74l31 -126c-141,26 -283,68 -422,93 -171,32 -307,23 -484,31 -28,155 17,94 -43,124 -16,9 -107,26 -127,30l1 -126c-162,-2 -423,42 -572,81 -345,88 -295,-105 -1055,235 -214,96 -92,-67 -471,-102l-1 -279 4058 -370zm1055 -97c-108,49 -343,172 -457,195 -102,22 -175,25 -267,69 -163,80 -111,107 -187,123l17 -310 894 -77zm119 -18c214,-11 1230,-138 1335,-113 -1,96 -51,68 -154,181 0,-1 2,-25 2,-25l-8 -27c-238,68 -551,143 -764,236l-23 -69c-1,-6 -2,-8 -5,-13l-479 57c26,-70 62,-170 96,-227zm1620 224c-24,-38 -32,-68 -55,-105 -90,-143 -106,-169 -103,-390 2,-150 99,-422 248,-383 190,50 284,865 -90,878zm858 -918c166,-35 158,81 150,229 -13,273 -247,665 -471,707 -259,48 -146,-407 -78,-539 76,-146 229,-362 399,-397zm-3955 -503c460,0 348,-74 484,-109 70,-18 70,-22 127,-62 284,-202 23,-72 455,-308 252,-137 284,-115 475,-303 110,-109 143,-191 218,-136 59,44 105,162 105,275 0,349 3,475 -345,643 -292,140 -154,95 -450,180 -63,18 -93,22 -97,93 182,1 428,-129 550,-198 208,-117 351,-256 507,-203 144,49 405,162 510,237l395 345c-6,48 -132,444 -150,478 -218,16 -422,19 -630,46 -396,51 -1307,179 -1687,170 -31,-1 -81,14 -134,15 -407,9 -837,74 -1241,122 -218,26 -409,22 -625,56 -103,17 -535,81 -590,14l-18 -54c-11,-80 18,-98 -84,-101 -1,61 15,154 -15,195 -27,19 -1089,122 -1189,113 -1,-322 391,-926 563,-1128 33,-38 59,-55 94,-86 165,-143 490,-346 692,-421 272,-102 142,-16 512,149 699,311 987,378 1832,390 -14,-148 -200,-80 -334,-85 -283,-10 -890,-119 -1119,-211 -200,-80 -414,-169 -571,-319 -174,-168 -145,-547 -32,-671 70,37 116,102 169,160 154,169 388,298 638,338 88,14 58,-5 103,59 165,235 613,317 882,317zm4865 -1302c38,178 -172,254 -225,171 -64,-101 62,-246 225,-171zm314 -23c29,179 -177,246 -227,159 -60,-105 81,-253 227,-159zm312 -36c28,159 -174,262 -228,163 -60,-110 94,-251 228,-163zm-1370 -345c70,-21 138,-50 206,-66 -19,187 -41,416 12,579 60,-8 78,-12 92,-76 24,-110 -26,-313 -38,-440 70,-18 118,-45 176,-62 59,132 80,639 -176,717 -290,89 -275,-497 -272,-652zm-1055 174c86,-259 345,-208 421,-71 40,74 66,511 75,626l-167 37 -20 -75c-57,41 -140,134 -248,51 -66,-50 -98,-162 -68,-271 46,-168 351,-171 295,-401 -117,8 -89,76 -132,152l-125 -31c-26,-10 -16,-5 -31,-17zm-528 -200c154,-60 403,-187 598,-176l36 174c-65,7 -161,30 -205,57 -10,245 10,416 42,645 -60,54 -211,154 -275,188l19 -758c-68,20 -120,61 -186,78l-29 -208zm1368 -136c5,-103 39,-226 71,-307 97,10 24,13 80,46 1,1 5,2 6,3 39,20 25,0 64,64 38,61 78,111 95,169 -84,74 -189,25 -316,25zm-112 -184c-31,182 -39,294 -35,488 4,-2 8,-5 10,-8l48 -60c51,-76 142,-124 192,-90 82,96 38,491 43,649 -36,16 -147,71 -171,79 -3,-135 26,-410 -14,-516l-38 2c-2,1 -6,3 -8,5 -94,61 -25,260 -28,402 -33,22 -140,86 -161,91 -37,-301 -79,-638 -64,-946l226 -96zm-1793 1756c9,-391 62,-385 -138,-724 -120,-202 130,-187 82,-721 -21,-236 -56,-260 -137,-445 -113,-255 23,-99 13,-499 -6,-213 -148,-262 -152,-429 -4,-196 -18,-368 -51,-548 -45,-247 -117,-365 -134,-452 301,17 905,389 1138,516l-5 108c101,77 226,78 294,172 70,-14 49,-36 93,-11l69 64c-137,-27 -334,-172 -558,27 -173,154 -139,297 -59,513 -61,-28 -120,-87 -177,-122 -1,71 116,427 141,717 355,175 483,23 593,-36 98,56 94,61 237,70 26,59 -8,10 34,57 30,-30 163,-82 209,-83 7,102 -28,3 -56,114 -10,40 -12,122 -14,174l-140 -33 -19 -180c-256,-32 -470,58 -685,151 -70,30 -121,40 -200,63 5,81 33,170 42,251 10,94 3,194 4,290 79,-20 98,-56 179,-79 -3,145 -1,292 -6,437 -5,138 -30,278 -34,409 62,-28 174,-136 231,-184 36,-30 178,-136 232,-155 101,58 86,63 236,73l28 48 222 -79c26,45 2,38 42,75 162,-146 102,-73 160,-111 36,-22 15,-27 37,-46l39 163c98,-48 208,-207 364,-214 68,-3 93,68 228,46 102,-17 130,-59 194,-88 106,125 230,867 235,1104 8,406 -36,844 -98,1243 -70,3 -168,-64 -240,-90 -97,-34 -212,-27 -321,-31 -19,-167 84,-286 98,-443 39,-457 -236,-530 -516,-333 -151,106 -168,179 -240,282 -47,-11 -31,33 -80,-100 -14,-38 -25,-71 -43,-108 -63,-134 -263,-89 -394,-218 -58,-56 -99,-101 -162,-158 -51,-46 -124,-83 -189,-129 -67,-47 -132,-95 -190,-129 -123,-73 -310,-113 -436,-189zm-1686 -3252c173,-15 552,166 672,236 259,149 365,118 394,489 35,449 -36,178 267,644 126,195 185,429 140,717 -70,449 -505,758 -888,899 -175,64 -155,59 -264,181 -300,336 -943,314 -1321,34 -102,-75 -118,-131 -274,-170 -270,-68 -430,-163 -579,-309 -322,-314 -432,-853 -138,-1325 36,-58 173,-235 178,-283 4,-46 -17,-156 -20,-208 -4,-73 1,-148 6,-221 20,-261 -10,-170 163,-279 139,-88 778,-487 891,-390 16,15 83,93 104,119 39,45 55,83 92,130l144 188c36,46 22,36 85,48 37,-112 266,-370 348,-500zm2736 728c13,-83 105,-176 175,-196 102,-29 223,51 247,107 49,112 59,474 77,624l-168 42 -21 -77c-54,36 -141,137 -250,52 -60,-48 -99,-166 -65,-273 59,-181 352,-153 293,-401 -132,3 -74,73 -131,154l-157 -32zm935 -45c-28,-5 -142,-18 -154,-45 -15,-33 142,-297 362,-136 85,62 90,183 100,319 7,92 33,293 30,367l-164 40 -22 -79c-249,229 -368,-54 -314,-225 53,-168 365,-178 288,-394 -96,2 -89,81 -126,153zm-1479 367c58,17 117,48 179,28 252,-81 -380,-400 -79,-662 90,-78 182,-79 304,-36l5 192c-67,-32 -30,-59 -141,-42 -108,216 206,214 212,500 6,257 -164,378 -418,298 -26,-18 -57,-245 -62,-278zm543 -587c2,-71 22,-100 37,-165 74,28 64,42 115,70 -20,30 -6,19 -36,39l-116 56zm489 -168c88,-22 174,-73 258,-90 -45,346 -33,670 -53,1017l-123 36 -82 -963zm1015 -181c-26,181 -40,297 -32,490l59 -62c16,-23 22,-35 41,-56 35,-37 149,-109 176,20 2,14 8,60 10,73 15,129 4,375 4,514 -49,21 -139,71 -170,76l-7 -524c-165,42 -81,209 -78,427 -64,24 -108,73 -165,83 -29,-300 -83,-639 -60,-948l222 -93zm-1160 166l13 130c-165,-30 -221,-166 -347,-233 12,-40 4,-31 30,-57 19,-18 25,-15 48,-23l209 -178c60,90 128,161 240,187l38 7c-75,36 -179,50 -250,84 0,63 -10,43 19,83zm786 56c-106,-51 -167,-21 -250,-14 0,-57 38,-213 56,-250 30,-15 66,-17 99,-26 37,-11 57,-21 95,-30 13,48 8,43 56,56 -18,65 -56,24 -56,264zm97 -264c24,-35 49,-46 83,-70 54,-39 36,-45 112,-27 -26,35 -44,37 -85,53 -44,18 -67,34 -110,44zm-1805 -439c81,3 85,-41 166,-47l5 139 -9 138 -293 -166c35,-40 76,-52 131,-64zm-6726 5999c-17,-156 -174,-558 -235,-919 -168,-983 -23,-2016 418,-2879 110,-214 174,-376 324,-550 95,-112 84,-169 369,-478 95,-103 177,-195 280,-290 268,-248 338,-305 631,-508 151,-105 533,-357 753,-400 -25,154 -82,287 -108,447 -25,155 7,390 -25,517 -19,74 -58,123 -86,195 -48,127 -51,356 8,478 135,281 20,191 -26,394 -57,250 -62,471 19,711 93,275 17,174 -53,401 -55,179 -7,334 -11,504 -91,24 -216,89 -307,127 -91,38 -234,86 -291,137 -335,300 -605,488 -783,924l-217 631c-86,10 -240,10 -310,40l21 403c-128,13 -237,101 -371,115zm7858 -6395c-3,205 -39,381 13,576 72,-6 84,-18 96,-80 23,-127 -31,-289 -38,-428l185 -69c17,188 80,632 -188,717 -272,87 -274,-435 -270,-647l202 -69zm1544 -18c39,-22 46,-40 81,-71 111,-97 135,-135 266,-85 28,103 -4,579 -48,680l-189 72c17,-137 103,-520 33,-614 -58,11 -62,30 -89,73 -94,148 -47,183 -30,437 -10,8 -11,9 -29,18l-132 55c-20,-221 -53,-407 -86,-615 52,-36 151,-91 215,-101l8 151zm-2381 753c3,-150 17,-301 18,-456 2,-287 -31,-317 84,-380 90,-49 259,-139 363,-47 100,88 -74,258 -103,298 150,-13 223,-30 222,157 0,202 -178,354 -331,465 -46,34 -62,53 -120,25 -46,-22 -92,-41 -133,-62zm1668 -686c15,-61 34,-94 68,-127 154,-149 312,-43 350,30 51,94 66,496 81,633l-157 35 -27 -73c-62,26 -137,128 -240,55 -62,-43 -110,-143 -84,-259 45,-200 350,-161 299,-415 -93,-2 -110,59 -120,153l-170 -32zm-2066 224c-40,-163 -92,-321 4,-479l128 24c-41,291 -47,160 6,426l-138 29zm209 -87c-56,-82 -48,-177 -24,-280 29,-126 45,-141 187,-90 -46,200 -75,115 -22,362 -47,7 -99,28 -141,8zm1327 -485c136,-20 130,-43 218,-75 -34,184 -55,273 -30,476 33,-20 17,-2 47,-44l85 -169 130 99c-81,165 -142,179 -212,250 142,198 124,146 244,271 -21,78 -64,117 -124,147 -42,-28 -56,-47 -86,-96l-50 -90c-12,-19 -9,-15 -20,-26 -1,43 3,71 5,114 2,19 3,35 1,54 -4,56 -47,67 -138,71l-70 -982zm-4664 -172c66,-125 354,-252 565,-263 231,-12 539,52 634,195 -34,25 -89,42 -134,58 -22,8 -52,15 -71,25 -57,30 -25,-1 -37,41 45,46 81,18 139,-11 98,-50 360,-174 454,-115 76,48 278,333 350,442 249,373 376,730 379,1216 -99,-15 -224,-102 -307,-149 -246,-139 -657,-374 -939,-384 -48,68 -110,153 -162,211 -41,47 -126,196 -154,218 -91,-26 -129,-96 -182,-178 -99,-154 -140,-131 -150,-195 97,-93 330,-42 378,-200 -306,29 -1007,348 -1309,520 -292,168 -184,183 -383,229 -14,-421 67,-640 213,-969 61,-138 128,-261 200,-382 77,-130 168,-230 253,-329 95,7 159,68 239,109l420 217c64,38 147,87 208,108 -30,-149 -452,-315 -604,-414zm-855 611c-45,159 -6,104 -159,159 -447,160 -638,342 -970,585 -63,45 -109,93 -167,138 -458,355 -935,931 -1237,1556 -69,143 -132,279 -190,435 -209,558 -379,1569 -275,2154 31,173 65,358 94,529 28,167 154,524 211,724 32,110 -30,111 -48,220 -43,233 70,316 188,405 23,10 35,16 65,30 58,28 21,-6 46,38 -20,42 -32,38 -69,52 -291,189 -414,587 -89,744 47,23 88,31 130,51 -39,75 -117,174 -110,290 12,189 197,332 376,347 102,8 95,-27 95,432 312,0 1020,-111 1344,-111l46 -17c18,-3 36,-4 54,-5 154,-13 120,-31 272,56 437,247 482,251 1001,387 264,69 529,73 800,121 348,61 1321,-79 1667,-178 763,-220 951,-382 1527,-792 161,-116 123,-98 359,-120 55,10 627,-59 750,-63 78,-2 176,-22 250,-28 -2,-60 -11,-49 -14,-111l-46 -857c-6,-96 39,-80 123,-107 121,-40 230,-140 262,-267 21,-84 20,-148 -6,-222 -50,-83 -88,-130 -148,-200 15,-74 55,-126 106,-167 65,-52 84,-82 139,-128 56,-90 65,-89 71,-232 0,-63 3,-123 -15,-181 -76,-244 56,-553 59,-805 10,-642 -19,-742 -124,-1351 -12,-69 -54,-244 -54,-293l119 -27c147,-56 15,-38 165,-8 44,8 28,6 62,2 56,-7 72,-17 114,-39 72,-37 44,-11 121,4 273,52 508,-333 246,-483 -73,-42 -180,-41 -261,4 -68,38 -33,26 -108,5 -163,-44 -183,49 -266,43 -44,-3 -71,-24 -142,-24l-55 -475c-12,-60 3,-80 -182,44l17 -110c-53,11 -91,36 -132,41 -37,41 -59,46 -110,56l-132 -247 121 -40c12,23 8,31 16,47 23,49 -2,12 26,35 166,-144 138,-79 176,-120 2,-3 8,-14 10,-17 2,-2 3,-8 5,-10 1,-2 1,-7 3,-10 5,53 24,114 28,167 40,-11 67,-42 99,-68 71,-57 113,-99 205,-128 53,-18 95,-11 127,-54 1,-2 1,-8 1,-7l-1 -34c-8,-44 -9,-17 -14,-70 -12,-150 35,-565 -61,-704 -51,-73 -112,-74 -231,-74 41,-176 22,-244 118,-285 40,-16 64,-25 104,-34 8,31 11,32 14,69 50,-26 48,-35 91,-62 42,-26 68,-24 118,-35 0,79 -14,105 -14,194 91,-24 192,-187 321,-234 189,-71 151,43 206,-350 15,-110 54,-404 14,-512 -22,-58 -77,-114 -146,-132 -37,-10 -89,-12 -131,-8 -68,7 -46,22 -111,28 -4,-37 -16,-85 -28,-111 -64,17 -190,166 -312,188 -120,23 -174,-207 -496,35 -65,48 -49,-4 -58,-80 -3,-26 -8,-83 -13,-125 -13,-94 -21,-123 12,-218 20,-58 56,-145 61,-203l-111 83c-3,-115 -19,-40 -36,4 -28,72 -162,185 -227,233 -190,139 -318,-49 -296,111 8,62 17,87 17,152 -31,17 -50,22 -87,38 -35,15 -50,25 -84,41 -58,27 -129,60 -190,74 0,-48 -1,-69 -20,-105 -119,-223 -436,-104 -480,-104 -41,0 -156,-43 -208,-55 2,-114 49,-96 -141,-15 -150,64 -115,-1 -248,-13 -135,201 -181,502 -76,639 12,61 39,105 54,163 -67,-19 -338,-161 -493,-217 -266,-97 -370,-57 -433,-251 -28,-75 -131,-200 -186,-268 -77,-95 -243,-305 -332,-377 -69,-56 -60,-69 -168,-31 -215,75 -208,3 -503,-118 -158,-64 -176,-66 -419,-54 -59,3 -131,38 -182,54 -230,76 -133,39 -322,150 -31,19 -41,26 -67,46 -35,26 -27,35 -86,21 -37,-9 -147,-48 -176,-62 -126,239 -474,639 -530,819z"/>
   <path class="fil1" d="M690 7289c134,-14 243,-102 371,-115l-21 -403c70,-30 224,-30 310,-40l217 -631c178,-436 448,-624 783,-924 57,-51 200,-99 291,-137 91,-38 216,-103 307,-127 4,-170 -44,-325 11,-504 70,-227 146,-126 53,-401 -81,-240 -76,-461 -19,-711 46,-203 161,-113 26,-394 -59,-122 -56,-351 -8,-478 28,-72 67,-121 86,-195 32,-127 0,-362 25,-517 26,-160 83,-293 108,-447 -220,43 -602,295 -753,400 -293,203 -363,260 -631,508 -103,95 -185,187 -280,290 -285,309 -274,366 -369,478 -150,174 -214,336 -324,550 -441,863 -586,1896 -418,2879 61,361 218,763 235,919z"/>
   <path class="fil2" d="M4944 5205c-269,0 -717,-82 -882,-317 -45,-64 -15,-45 -103,-59 -250,-40 -484,-169 -638,-338 -53,-58 -99,-123 -169,-160 -113,124 -142,503 32,671 157,150 371,239 571,319 229,92 836,201 1119,211 134,5 320,-63 334,85 -845,-12 -1133,-79 -1832,-390 -370,-165 -240,-251 -512,-149 -202,75 -527,278 -692,421 -35,31 -61,48 -94,86 -172,202 -564,806 -563,1128 100,9 1162,-94 1189,-113 30,-41 14,-134 15,-195 102,3 73,21 84,101l18 54c55,67 487,3 590,-14 216,-34 407,-30 625,-56 404,-48 834,-113 1241,-122 53,-1 103,-16 134,-15 380,9 1291,-119 1687,-170 208,-27 412,-30 630,-46 18,-34 144,-430 150,-478l-395 -345c-105,-75 -366,-188 -510,-237 -156,-53 -299,86 -507,203 -122,69 -368,199 -550,198 4,-71 34,-75 97,-93 296,-85 158,-40 450,-180 348,-168 345,-294 345,-643 0,-113 -46,-231 -105,-275 -75,-55 -108,27 -218,136 -191,188 -223,166 -475,303 -432,236 -171,106 -455,308 -57,40 -57,44 -127,62 -136,35 -24,109 -484,109z"/>
   <path class="fil3" d="M4670 3290c-13,-5 -78,-63 -97,-80 -114,-98 -127,-381 3,-360 36,85 -49,191 36,294 41,51 139,105 239,119 507,74 306,-237 440,-268 82,71 -8,206 -30,272l915 -145c56,537 -447,1430 -1191,1434 -236,2 -377,-23 -561,-113 -287,-140 -508,-379 -644,-660 -83,-171 -126,-312 -132,-532 162,-1 364,9 525,23 85,8 435,31 497,16zm-971 -623c-53,-225 47,-707 428,-753 356,-43 530,422 521,658 -138,12 -138,27 -151,-91 -41,-364 -380,-611 -595,-237 -83,145 -59,228 -69,419l-134 4zm1368 -116c-1,-332 151,-697 530,-685 184,6 282,130 347,266 85,179 61,331 64,549 -248,-37 -95,-1 -158,-369 -23,-137 -81,-263 -208,-293 -313,-74 -414,275 -449,532l-126 0zm192 -894c-82,130 -311,388 -348,500 -63,-12 -49,-2 -85,-48l-144 -188c-37,-47 -53,-85 -92,-130 -21,-26 -88,-104 -104,-119 -113,-97 -752,302 -891,390 -173,109 -143,18 -163,279 -5,73 -10,148 -6,221 3,52 24,162 20,208 -5,48 -142,225 -178,283 -294,472 -184,1011 138,1325 149,146 309,241 579,309 156,39 172,95 274,170 378,280 1021,302 1321,-34 109,-122 89,-117 264,-181 383,-141 818,-450 888,-899 45,-288 -14,-522 -140,-717 -303,-466 -232,-195 -267,-644 -29,-371 -135,-340 -394,-489 -120,-70 -499,-251 -672,-236z"/>
   <path class="fil1" d="M6945 4909c126,76 313,116 436,189 58,34 123,82 190,129 65,46 138,83 189,129 63,57 104,102 162,158 131,129 331,84 394,218 18,37 29,70 43,108 49,133 33,89 80,100 72,-103 89,-176 240,-282 280,-197 555,-124 516,333 -14,157 -117,276 -98,443 109,4 224,-3 321,31 72,26 170,93 240,90 62,-399 106,-837 98,-1243 -5,-237 -129,-979 -235,-1104 -64,29 -92,71 -194,88 -135,22 -160,-49 -228,-46 -156,7 -266,166 -364,214l-39 -163c-22,19 -1,24 -37,46 -58,38 2,-35 -160,111 -40,-37 -16,-30 -42,-75l-222 79 -28 -48c-150,-10 -135,-15 -236,-73 -54,19 -196,125 -232,155 -57,48 -169,156 -231,184 4,-131 29,-271 34,-409 5,-145 3,-292 6,-437 -81,23 -100,59 -179,79 -1,-96 6,-196 -4,-290 -9,-81 -37,-170 -42,-251 79,-23 130,-33 200,-63 215,-93 429,-183 685,-151l19 180 140 33c2,-52 4,-134 14,-174 28,-111 63,-12 56,-114 -46,1 -179,53 -209,83 -42,-47 -8,2 -34,-57 -143,-9 -139,-14 -237,-70 -110,59 -238,211 -593,36 -25,-290 -142,-646 -141,-717 57,35 116,94 177,122 -80,-216 -114,-359 59,-513 224,-199 421,-54 558,-27l-69 -64c-44,-25 -23,-3 -93,11 -68,-94 -193,-95 -294,-172l5 -108c-233,-127 -837,-499 -1138,-516 17,87 89,205 134,452 33,180 47,352 51,548 4,167 146,216 152,429 10,400 -126,244 -13,499 81,185 116,209 137,445 48,534 -202,519 -82,721 200,339 147,333 138,724z"/>
   <path class="fil4" d="M3331 9048l100 -46c26,147 70,394 -88,418 -133,21 -178,-233 -172,-372l112 -44c-1,118 0,239 36,333 109,-27 13,-195 12,-289zm-749 109c-57,-64 -68,-196 -29,-275l71 15c-1,238 -13,50 21,243l-63 17zm1640 127l-78 42c-13,-19 -79,-310 -86,-359l108 -53 24 79c20,-12 6,-1 26,-19 222,-199 189,48 180,256 -4,95 -29,90 -113,112 -1,-115 29,-252 -6,-349 -126,30 -62,178 -55,291zm-1415 -317c167,-108 359,-108 208,122 75,-7 106,-17 126,53 14,49 7,102 -13,146 -20,43 -51,71 -81,100 -25,24 -77,64 -92,85 -59,-9 -92,-26 -129,-52l-19 -454zm1053 86l-85 -19c23,-153 195,-132 243,-46 25,45 61,285 70,352 -95,49 -101,6 -117,-10 -100,100 -217,-1 -186,-128 25,-101 213,-124 145,-232 -55,14 -37,32 -70,83zm-1169 63c-31,-74 -52,-130 -11,-228 148,-14 36,42 90,218l-79 10zm995 269c-27,-31 -62,-78 -85,-123 3,99 50,124 -60,137 -26,-47 -95,-503 -90,-564l114 -31c-5,79 -22,199 21,256l57 -111 76 58c-34,79 -67,85 -106,138 89,136 114,109 151,167 -20,57 -20,56 -78,73zm1281 -476c55,-130 197,-125 247,-20 34,72 53,254 66,340 -14,9 -45,28 -73,24 -47,-7 0,13 -41,-33 -111,105 -224,-5 -185,-143 27,-99 199,-88 145,-221 -59,19 -39,32 -71,86 -24,-4 -29,-3 -48,-10 -50,-18 -20,-7 -40,-23zm765 289c-31,6 -58,16 -79,11 -38,-10 6,7 -23,-13 -25,-18 13,3 -18,-20 -91,93 -199,14 -185,-113 8,-68 51,-79 98,-113 63,-45 81,-74 49,-131 -34,4 -17,-3 -61,63 -1,2 -6,12 -7,10 -1,-3 -4,6 -7,8l-80 -13c32,-123 274,-300 313,311zm-1068 -86c257,57 64,-122 20,-193 -87,-139 38,-246 183,-195l12 106c-95,-51 -123,7 -71,74 46,60 91,56 122,142 58,167 -82,316 -230,213l-36 -147zm1168 -260c47,-57 26,-87 125,-85 65,85 54,266 58,379l-95 38c-7,-82 -10,-237 -33,-298 -86,37 -32,149 -24,246l-91 45c-22,-181 -80,-354 -76,-546l120 -48c-3,83 -18,210 16,269zm-453 -224c-9,179 2,317 13,490 6,96 22,99 -60,114 -31,-61 -96,-473 -95,-555l142 -49zm1836 20c1,79 -13,263 48,325 42,-24 52,-36 30,-138 -9,-46 -24,-96 -32,-152l102 -39c134,532 -272,562 -263,39l115 -35zm-724 122c46,-145 204,-115 247,-17 25,54 56,269 66,337 -94,57 -105,-2 -124,-11 -101,100 -203,-10 -181,-126 16,-82 122,-94 149,-148 20,-39 10,-59 -10,-86 -58,30 -36,31 -59,87l-77 -29c-2,-5 -8,-4 -11,-7zm-318 -106c78,-48 226,-102 340,-106l23 87c-10,7 -14,10 -34,19l-76 19c-3,156 41,263 46,391l-148 94 -20 -427c-54,4 -60,16 -107,38l-24 -115zm1320 18c-1,-2 -5,7 -8,12l-55 -10 -8 -56c18,-143 0,-60 -8,-162l79 -7c55,182 0,223 0,223zm-615 -195c23,21 11,-5 9,47l6 222c71,-38 6,-88 134,-88 63,81 58,267 56,380l-92 36 -25 -295c-110,45 -37,86 -33,246l-87 38c-34,-87 -82,-436 -81,-539l113 -47zm665 -47c58,-102 157,144 75,253l-68 -27c26,-190 -31,-184 -7,-226zm-1462 -83c-40,-1 -161,-14 -187,-8 -21,4 -101,50 -139,66 -211,82 -497,108 -611,195 -68,52 -174,136 -242,160l-34 -411c-66,19 -218,297 -694,176l-1 104c-174,19 -259,-1 -424,51 -110,34 -225,88 -333,117 -11,-22 -5,-17 -12,-37 -14,-33 -2,-12 -16,-33 -111,-3 -108,10 -181,61 -40,28 -97,70 -131,76l-19 -124 -529 121 24 -140c-72,-3 -186,-22 -235,-22 -93,1 -426,312 -431,322 -29,59 -13,103 -66,186 -105,162 -254,241 -457,280l2 255c207,17 1601,-133 1925,-163 1260,-117 2571,-249 3821,-354 519,-43 1563,-170 2005,-171l-46 -919 -350 -193c-143,170 -90,94 -208,290 -10,17 -20,38 -29,53l-39 48c-49,-21 -138,-100 -188,-135 -81,-57 -238,-32 -331,15 -33,17 -17,9 -59,24 -87,32 -254,129 -319,131l-14 -114c-110,-3 -245,122 -332,81l-146 315 -213 -300c-316,-12 -502,99 -785,139l24 -142z"/>
   <path class="fil5" d="M4185 423c152,99 574,265 604,414 -61,-21 -144,-70 -208,-108l-420 -217c-80,-41 -144,-102 -239,-109 -85,99 -176,199 -253,329 -72,121 -139,244 -200,382 -146,329 -227,548 -213,969 199,-46 91,-61 383,-229 302,-172 1003,-491 1309,-520 -48,158 -281,107 -378,200 10,64 51,41 150,195 53,82 91,152 182,178 28,-22 113,-171 154,-218 52,-58 114,-143 162,-211 282,10 693,245 939,384 83,47 208,134 307,149 -3,-486 -130,-843 -379,-1216 -72,-109 -274,-394 -350,-442 -94,-59 -356,65 -454,115 -58,29 -94,57 -139,11 12,-42 -20,-11 37,-41 19,-10 49,-17 71,-25 45,-16 100,-33 134,-58 -95,-143 -403,-207 -634,-195 -211,11 -499,138 -565,263z"/>
   <path class="fil0" d="M4138 11979c15,-31 24,-55 28,-97l69 69c-51,12 -39,23 -97,28zm-423 -731c71,-108 508,-403 468,-5 -13,121 -108,635 -157,705 -23,26 -95,34 -128,43 -45,11 -77,26 -120,40 18,-178 210,-660 117,-795 -86,-3 -194,141 -209,219 -17,90 -6,331 -9,439 -113,17 -139,50 -215,68 -10,-144 -6,-297 -9,-442 -4,-133 -26,-268 -30,-380l290 -106 2 214zm435 851c102,-31 190,-91 257,-113 10,150 -21,220 74,199 36,-8 80,-82 96,-115 35,-74 52,-157 57,-249 -57,20 -4,-2 -58,27 -63,33 -99,51 -189,38 -315,-46 -139,-594 -108,-627 59,-46 198,-68 280,-78 -35,124 -164,431 -88,560 231,-21 214,-393 207,-558l289 -80c-15,305 -70,664 -175,919 -59,144 -114,247 -287,272 -219,31 -320,-5 -355,-195zm-1813 -939c63,-8 107,-2 172,-19 52,-12 81,-32 124,-47l-124 771c-42,23 -123,59 -173,68l1 -773zm-631 868c11,-201 1,-403 -5,-605 -7,-239 -70,-401 197,-400l-1 112c80,-32 170,-154 304,-109 52,40 67,167 81,258l-22 9c-4,2 -8,3 -11,4l-205 85c10,-48 50,-144 2,-185 -47,-58 -111,41 -130,88 -27,65 -6,157 5,234 13,102 56,357 40,446l-255 63zm3341 -795c18,-103 142,-214 249,-235 123,-25 266,89 297,150 40,77 47,764 22,845l-221 24 -1 -103c-67,26 -92,73 -163,87 -236,46 -294,-243 -229,-408 69,-173 426,-215 441,-392 3,-34 -1,-73 -23,-89 -105,-35 -127,110 -170,182 -68,-16 -116,-46 -202,-61zm-3764 -176c-1,148 -124,529 -51,757 228,-11 135,-469 127,-660 82,-16 187,-55 250,-64 15,283 13,822 -324,908 -178,45 -267,-155 -294,-305 -34,-183 -10,-395 23,-570l269 -66zm-364 236c-19,291 -108,575 -300,679 -599,324 -770,-1198 75,-1214 131,-2 247,104 255,221l-293 204c4,-99 17,-211 -60,-258 -181,70 -237,707 -146,894 104,7 117,-30 149,-103 24,-53 47,-121 55,-183l-138 23 3 -156c8,-4 365,-100 400,-107zm1584 -525c81,-24 176,33 171,111 -5,66 -97,131 -169,147 -254,58 -219,-192 -2,-258zm273 -44c66,-23 239,-92 304,-96 -60,216 -97,378 -105,626 85,-37 46,-56 139,-133 47,-39 99,-62 184,-51 109,51 2,737 -13,862 -101,29 -148,55 -227,84 -5,-202 80,-497 49,-687 -54,2 -74,37 -104,71 -39,44 -40,50 -40,119 -1,118 2,235 0,352 -105,19 -149,73 -228,94 -14,-417 -11,-834 41,-1241zm-96 -51c-55,-4 -192,-84 -345,59 -23,22 -55,53 -75,78 -32,40 -31,55 -53,99 -55,-26 -73,-6 -136,5 -108,19 -15,-63 -270,6 -120,33 -37,41 -107,-11l-60 38c-71,36 -138,73 -218,73 15,-32 38,-94 41,-138 -98,8 -269,108 -388,111 -4,-160 -149,-348 -375,-348 -308,0 -539,216 -634,464 -160,421 15,1009 356,1009 411,0 382,-206 500,-292 10,123 197,428 527,222 60,-37 95,-100 153,-139 0,114 -27,194 -27,292 55,-5 127,-45 185,-64 164,-56 159,-47 328,-47 0,-242 -41,-470 -41,-570 41,-11 52,-27 89,-49 33,-21 60,-31 91,-48 0,116 0,232 0,347 0,213 -10,278 125,278 75,0 197,-90 278,-97 0,93 14,151 14,222 42,-11 102,-64 143,-93 51,-38 108,-58 163,-87 0,92 13,150 13,222 61,-16 136,-105 269,-148 44,-14 88,-17 120,-33l0 111c71,-5 133,-64 227,-106 39,-18 60,-17 93,-32 -15,64 -36,195 -42,263 111,-9 66,-116 403,-194 74,318 187,333 444,333 323,0 379,-266 459,-416 17,11 180,191 347,111 1,54 -4,32 14,69 227,-53 152,-69 458,-69l-14 -389c0,-195 34,-393 -19,-564 -47,-155 -295,-348 -518,-237 -24,12 -32,19 -55,31 -59,29 -29,-14 -98,9l-186 65c-85,27 -407,42 -554,113 -39,-81 -4,-82 -87,-150 -173,-141 -343,11 -399,25 0,-78 -10,-96 -14,-153 -58,5 -89,48 -185,92 -62,29 -137,59 -204,74 -116,-77 -91,-91 -306,-41 19,-222 139,-421 167,-542l-541 181c-49,21 -42,3 -56,55z"/>
   <path class="fil0" d="M8162 11798c-38,84 -91,142 -183,171 -109,35 -215,26 -281,-37 -128,-122 -137,-353 -68,-559 58,-170 169,-354 369,-356 198,-2 281,299 202,483 -116,42 -148,-51 -393,78 -2,103 -1,148 55,201 134,15 96,-41 150,-114 42,47 117,93 149,133zm-1413 -416l153 -181c0,110 -24,339 14,417 -72,-19 -138,-171 -167,-236zm3131 367c31,-25 289,-161 346,-180 6,97 41,157 55,243l-573 278c-84,-388 -176,-270 212,-663 41,-42 149,-133 176,-172 -133,3 -268,78 -375,112l30 -190c1,-1 8,-30 9,-32 12,-33 5,-16 15,-31 54,-38 372,-102 464,-124 37,313 57,203 -117,403 -48,55 -241,252 -242,356zm-856 -382c17,-252 37,-263 152,-293 84,-22 289,-72 364,-82 35,218 89,215 -122,406 -71,64 -213,221 -241,347l346 -153 58 220c-43,34 -220,103 -283,133l-288 149c-77,-374 -190,-260 211,-671 31,-31 167,-150 173,-171 -132,10 -259,77 -370,115zm-544 376c95,-26 257,-155 345,-173l56 242 -569 281c-102,-361 -146,-318 197,-660l139 -125c36,-31 26,-15 49,-54 -153,12 -262,86 -375,112l42 -248c100,-47 342,-102 468,-124 24,42 51,196 33,239 -26,61 -353,339 -385,510zm-1196 228c-110,5 -161,35 -258,60l-14 -938c51,-37 119,-76 202,-67l0 105c157,-64 344,-305 383,165 -125,12 -147,53 -237,87 14,-88 48,-127 -3,-204 -44,0 -50,3 -75,27 -87,88 -63,183 -48,300 21,160 37,302 50,465zm-821 -805c22,-36 62,-66 91,-105l267 -359c51,61 154,169 189,234 -71,50 -380,355 -393,435 -15,91 293,426 328,497l-143 150c-31,35 -23,34 -72,48 -21,-39 -52,-70 -82,-112l-233 -328c-2,-2 -7,-6 -9,-8 -2,-2 -6,-5 -10,-8l-18 362 -263 62c4,-210 22,-402 42,-610 11,-107 25,-534 39,-581 52,-56 202,-92 307,-108 -13,104 -57,335 -40,431zm147 -382c15,-62 50,-145 56,-208 -90,7 -597,128 -597,250l0 334c-2,178 -70,564 -70,847l0 180c137,-3 160,-97 500,-97l0 -139c46,34 156,245 278,278 33,-50 76,-120 125,-153 -13,53 -14,55 -14,125 153,-13 118,-111 514,-111 0,-170 -23,-416 -56,-556 51,-33 83,-53 139,-83 0,157 -69,310 95,516 139,175 379,162 529,67 41,-26 21,-28 71,-41 2,99 47,193 55,291 134,-70 223,-163 450,-258 61,-25 124,-48 175,-75 20,84 53,269 84,333 48,-32 90,-67 139,-96 50,-30 94,-59 148,-89 103,-58 221,-94 324,-148 32,67 63,246 83,333 267,-178 290,-181 574,-314 295,-139 206,-18 135,-353 -22,-106 -8,-191 -19,-228 -19,-65 9,11 -11,-19 -44,-68 15,66 -12,-16 116,-78 90,-116 57,-308 -14,-83 -16,-122 -16,-220 -33,3 -168,69 -353,105 -94,19 -179,33 -259,76 -83,45 -82,83 -82,-181 -54,4 -114,39 -165,57 -220,80 -258,22 -530,165l0 -222c-72,6 -103,35 -164,58 -110,40 -269,51 -381,91 -60,21 -122,62 -163,73 -40,-151 -293,-188 -453,-92 -63,38 -80,72 -130,106 -21,-43 -25,-70 -59,-108 -90,-100 -200,-39 -238,-37 -77,4 6,-33 -117,-20 -124,13 -116,12 -251,-156 -45,-57 -165,-205 -224,-221 -12,43 -50,94 -74,135 -26,43 -58,104 -93,129z"/>
   <path class="fil1" d="M2973 9770c240,194 180,123 548,258 224,82 374,130 628,176 599,108 907,38 1141,70 148,20 140,3 327,-26 227,-37 458,-78 689,-116 308,-51 133,-31 301,-99 99,-41 202,-64 295,-110 80,-40 229,-74 287,-115 43,-30 50,-57 116,-92l381 -218c85,-53 179,-100 213,-189 -113,-10 -2309,207 -2472,224 -285,28 -2389,200 -2454,237z"/>
   <path class="fil4" d="M1189 6887l1 279c379,35 257,198 471,102 760,-340 710,-147 1055,-235 149,-39 410,-83 572,-81l-1 126c20,-4 111,-21 127,-30 60,-30 15,31 43,-124 177,-8 313,1 484,-31 139,-25 281,-67 422,-93l-31 126c73,-9 124,-42 179,-74 63,-38 110,-59 173,-90 73,-36 286,-144 356,-158l-8 170c31,-18 12,-2 39,-28l176 -229 -4058 370z"/>
   <path class="fil1" d="M589 7534c18,-109 80,-110 48,-220 -57,-200 -183,-557 -211,-724 -29,-171 -63,-356 -94,-529 -104,-585 66,-1596 275,-2154 58,-156 121,-292 190,-435 302,-625 779,-1201 1237,-1556 58,-45 104,-93 167,-138 332,-243 523,-425 970,-585 153,-55 114,0 159,-159 -53,-12 -27,-11 -98,24l-156 67c-36,17 -21,9 -59,24l-955 587 -674 631c-14,18 -19,27 -36,48 -21,25 -18,19 -39,45l-206 266c-2,3 -10,12 -12,15 -2,3 -5,6 -6,8l-47 65c-133,190 -191,296 -298,493l-110 209c-139,325 -189,454 -294,817l-42 180c-10,39 -11,23 -19,65 -27,126 -83,431 -85,554 -2,71 -11,77 -14,138l14 750c4,163 75,581 118,743 74,280 112,394 215,660l39 88c18,23 -1,4 23,23z"/>
   <path class="fil6" d="M5553 7410c-51,-155 -38,-220 -34,-383l-238 91c4,172 -35,439 -63,607 -61,-117 -77,-517 -75,-673 -50,20 -89,60 -133,91 -50,36 -83,56 -129,79 1,116 67,451 93,573 39,188 111,320 130,539 33,-5 258,-131 265,-257 9,-167 1,-218 30,-392 2,-18 6,-43 11,-61 12,-42 3,-22 21,-52 13,107 36,217 58,316 32,145 29,207 44,347 51,-12 110,-32 156,-54 153,-75 96,-189 135,-554 48,-458 120,-562 155,-794 -68,10 -143,27 -208,40 -130,27 -108,7 -171,333 -19,96 -12,167 -47,204z"/>
   <path class="fil4" d="M3731 3348l95 357c184,3 377,20 562,31 520,32 628,14 1123,-62 153,-24 370,-46 518,-83 24,-33 84,-308 99,-382 -212,9 -1020,199 -1120,176 -179,-41 -433,-12 -634,-13 -213,-1 -429,-24 -643,-24z"/>
   <path class="fil0" d="M5041 4496c-200,0 -322,-7 -493,-66 -133,-46 -286,-137 -340,-229 25,-94 198,-221 282,-273 258,-157 635,-173 909,-43 141,67 243,144 310,260 -50,62 -214,169 -283,218 -102,72 -224,133 -385,133zm-1158 -733l672 38c-34,85 -229,109 -376,330 -2,3 -4,6 -6,9l-21 25c-79,-41 -255,-264 -269,-402zm1899 330c-133,-47 -131,-186 -469,-303l685 -126c-8,62 -179,346 -216,429zm-2051 -745c214,0 430,23 643,24 201,1 455,-28 634,13 100,23 908,-167 1120,-176 -15,74 -75,349 -99,382 -148,37 -365,59 -518,83 -495,76 -603,94 -1123,62 -185,-11 -378,-28 -562,-31l-95 -357zm939 -58c-62,15 -412,-8 -497,-16 -161,-14 -363,-24 -525,-23 6,220 49,361 132,532 136,281 357,520 644,660 184,90 325,115 561,113 744,-4 1247,-897 1191,-1434l-915 145c22,-66 112,-201 30,-272 -134,31 67,342 -440,268 -100,-14 -198,-68 -239,-119 -85,-103 0,-209 -36,-294 -130,-21 -117,262 -3,360 19,17 84,75 97,80z"/>
   <path class="fil1" d="M2565 9812l348 184c0,0 31,17 35,20l971 348c72,17 123,24 197,40 106,23 120,14 199,37l203 32c77,15 166,5 246,5 96,1 149,43 444,29 85,-4 102,-29 207,-29 234,1 415,-43 640,-82 214,-38 428,-110 630,-176l681 -305c115,-51 144,-81 231,-130 31,-18 47,-24 79,-46 19,-13 15,-11 33,-22l43 -27c2,-2 6,-4 8,-6l466 -353c8,-7 32,-23 33,-23 29,-25 19,-1 32,-44 -236,22 -198,4 -359,120 -576,410 -764,572 -1527,792 -346,99 -1319,239 -1667,178 -271,-48 -536,-52 -800,-121 -519,-136 -564,-140 -1001,-387 -152,-87 -118,-69 -272,-56 -18,1 -36,2 -54,5l-46 17z"/>
   <path class="fil7" d="M5041 4496c161,0 283,-61 385,-133 69,-49 233,-156 283,-218 -67,-116 -169,-193 -310,-260 -274,-130 -651,-114 -909,43 -84,52 -257,179 -282,273 54,92 207,183 340,229 171,59 293,66 493,66z"/>
   <path class="fil6" d="M3633 7616c-38,28 -109,80 -174,87 -2,-152 0,-280 26,-421l-319 63c-29,193 48,913 88,1129 26,-5 215,-99 238,-114l-32 -486c29,-15 58,-26 84,-44 40,-27 41,-36 75,-54l7 693 290 -64c8,-381 -15,-571 32,-981 12,-107 40,-202 53,-294 -61,5 -123,19 -190,24 -169,13 -133,-81 -178,462z"/>
   <path class="fil4" d="M6463 11166c-17,-96 27,-327 40,-431 -105,16 -255,52 -307,108 -14,47 -28,474 -39,581 -20,208 -38,400 -42,610l263 -62 18 -362c4,3 8,6 10,8 2,2 7,6 9,8l233 328c30,42 61,73 82,112 49,-14 41,-13 72,-48l143 -150c-35,-71 -343,-406 -328,-497 13,-80 322,-385 393,-435 -35,-65 -138,-173 -189,-234l-267 359c-29,39 -69,69 -91,105z"/>
   <path class="fil6" d="M7992 7129l-2 -422c-109,24 -226,87 -293,147 3,184 25,383 28,583 3,203 3,389 19,590 24,-1 229,-75 257,-90l-23 -351c63,25 34,16 102,103l183 207c43,50 54,77 120,100 68,-83 86,-132 166,-212 -44,-72 -316,-307 -382,-458 80,-163 313,-428 347,-491 -50,-43 -167,-164 -223,-189 -63,104 -225,438 -299,483z"/>
   <path class="fil6" d="M2690 8135c20,-141 85,-457 139,-572l8 544 -147 28zm-356 316c68,42 264,58 298,19 67,-78 -70,-265 211,-254l4 333 317 -62c4,-239 -131,-770 -123,-1264 -69,-3 -354,51 -399,76 -37,20 -28,18 -41,72 -9,35 -15,65 -24,101 -18,68 -35,133 -52,200 -33,132 -185,695 -191,779z"/>
   <path class="fil6" d="M6220 7761c13,-121 89,-490 138,-559l9 533 -147 26zm-349 321c76,43 200,34 297,25 5,-60 9,-178 37,-229l164 -44 6 340 317 -62c9,-158 -129,-826 -122,-1265 -68,-1 -373,54 -410,84 -34,27 -183,673 -207,765l-87 356c0,20 2,21 5,30z"/>
   <path class="fil6" d="M4458 7148c46,227 148,535 99,821 -19,111 -42,168 -169,148 -94,-211 -82,-642 -70,-889 -94,27 -168,69 -275,98 -41,239 -59,521 20,739 187,512 907,306 762,-722l-49 -321c-1,-3 -3,-7 -4,-11 -1,-3 -3,-8 -4,-11 -1,-2 -3,-7 -5,-11l-305 159z"/>
   <path class="fil4" d="M919 11293c-35,7 -392,103 -400,107l-3 156 138 -23c-8,62 -31,130 -55,183 -32,73 -45,110 -149,103 -91,-187 -35,-824 146,-894 77,47 64,159 60,258l293 -204c-8,-117 -124,-223 -255,-221 -845,16 -674,1538 -75,1214 192,-104 281,-388 300,-679z"/>
   <path class="fil4" d="M2776 10724c-52,407 -55,824 -41,1241 79,-21 123,-75 228,-94 2,-117 -1,-234 0,-352 0,-69 1,-75 40,-119 30,-34 50,-69 104,-71 31,190 -54,485 -49,687 79,-29 126,-55 227,-84 15,-125 122,-811 13,-862 -85,-11 -137,12 -184,51 -93,77 -54,96 -139,133 8,-248 45,-410 105,-626 -65,4 -238,73 -304,96z"/>
   <path class="fil4" d="M4150 12099c35,190 136,226 355,195 173,-25 228,-128 287,-272 105,-255 160,-614 175,-919l-289 80c7,165 24,537 -207,558 -76,-129 53,-436 88,-560 -82,10 -221,32 -280,78 -31,33 -207,581 108,627 90,13 126,-5 189,-38 54,-29 1,-7 58,-27 -5,92 -22,175 -57,249 -16,33 -60,107 -96,115 -95,21 -64,-49 -74,-199 -67,22 -155,82 -257,113z"/>
   <path class="fil6" d="M1655 7534l36 257c50,0 156,-79 244,-97l-22 983c79,-32 196,-159 355,-232 -26,-292 -88,-539 -58,-855 75,-45 184,-39 261,-83l-47 -216c-218,-4 -600,143 -769,243z"/>
   <path class="fil4" d="M3423 11140c4,112 26,247 30,380 3,145 -1,298 9,442 76,-18 102,-51 215,-68 3,-108 -8,-349 9,-439 15,-78 123,-222 209,-219 93,135 -99,617 -117,795 43,-14 75,-29 120,-40 33,-9 105,-17 128,-43 49,-70 144,-584 157,-705 40,-398 -397,-103 -468,5l-2 -214 -290 106z"/>
   <path class="fil3" d="M8775 6724c27,44 66,68 107,92 -21,65 -5,36 -90,108 -39,33 -72,56 -102,96 64,289 759,286 930,-45 111,-214 -110,-347 -281,-379 -244,-45 -408,40 -564,128z"/>
   <path class="fil6" d="M6770 8043c127,49 154,69 243,126l150 -193c48,-65 133,-137 164,-192 -118,-208 -49,-94 -111,-228 -16,-34 -4,-14 -22,-39 -84,39 -148,166 -174,192 -34,34 4,7 -39,28 -4,-235 37,-482 97,-708 20,-77 55,-151 70,-226 -88,14 -239,71 -313,109 -67,34 -54,57 -63,143 -7,64 -11,131 -15,193 -14,258 -3,537 13,795z"/>
   <path class="fil3" d="M1582 8146l-132 56 -2 -161c-225,-35 -395,47 -550,142 -122,74 -320,305 -142,470 200,185 944,-102 826,-507z"/>
   <path class="fil4" d="M5333 11797c-235,26 -136,-307 66,-358 9,145 3,268 -66,358zm-286 -564c86,15 134,45 202,61 43,-72 65,-217 170,-182 22,16 26,55 23,89 -15,177 -372,219 -441,392 -65,165 -7,454 229,408 71,-14 96,-61 163,-87l1 103 221 -24c25,-81 18,-768 -22,-845 -31,-61 -174,-175 -297,-150 -107,21 -231,132 -249,235z"/>
   <path class="fil4" d="M1014 11123c-33,175 -57,387 -23,570 27,150 116,350 294,305 337,-86 339,-625 324,-908 -63,9 -168,48 -250,64 8,191 101,649 -127,660 -73,-228 50,-609 51,-757l-269 66z"/>
   <path class="fil4" d="M7937 1181c80,-26 114,13 140,62 -4,70 -98,188 -141,214l1 -276zm-23 -332c195,-59 68,145 16,196l-16 -49c-14,-84 -15,-111 0,-147zm-203 780c41,21 87,40 133,62 58,28 74,9 120,-25 153,-111 331,-263 331,-465 1,-187 -72,-170 -222,-157 29,-40 203,-210 103,-298 -104,-92 -273,-2 -363,47 -115,63 -82,93 -84,380 -1,155 -15,306 -18,456z"/>
   <path class="fil3" d="M8899 5708c-170,35 -323,251 -399,397 -68,132 -181,587 78,539 224,-42 458,-434 471,-707 8,-148 16,-264 -150,-229z"/>
   <path class="fil4" d="M8480 11743c32,-171 359,-449 385,-510 18,-43 -9,-197 -33,-239 -126,22 -368,77 -468,124l-42 248c113,-26 222,-100 375,-112 -23,39 -13,23 -49,54l-139 125c-343,342 -299,299 -197,660l569 -281 -56 -242c-88,18 -250,147 -345,173z"/>
   <path class="fil0" d="M10170 3080l132 -27c77,114 62,283 -4,403 -54,8 -106,3 -150,-19 48,-97 87,-245 22,-357zm345 -100c76,167 73,300 13,475l-133 -32c21,-213 45,-199 -12,-411l132 -32zm-669 -71c21,76 209,228 209,278 0,251 -107,192 -153,320 82,39 248,77 273,88 51,22 20,-5 19,78 62,-14 167,-83 222,-83 79,0 106,35 180,42 14,-58 138,-210 120,-411 -16,-166 -50,-278 -120,-423 -48,4 -120,40 -169,53 -226,61 -111,99 -469,71 -53,-4 -47,-13 -112,-13z"/>
   <path class="fil4" d="M9880 11749c1,-104 194,-301 242,-356 174,-200 154,-90 117,-403 -92,22 -410,86 -464,124 -10,15 -3,-2 -15,31 -1,2 -8,31 -9,32l-30 190c107,-34 242,-109 375,-112 -27,39 -135,130 -176,172 -388,393 -296,275 -212,663l573 -278c-14,-86 -49,-146 -55,-243 -57,19 -315,155 -346,180z"/>
   <path class="fil4" d="M9024 11367c111,-38 238,-105 370,-115 -6,21 -142,140 -173,171 -401,411 -288,297 -211,671l288 -149c63,-30 240,-99 283,-133l-58 -220 -346 153c28,-126 170,-283 241,-347 211,-191 157,-188 122,-406 -75,10 -280,60 -364,82 -115,30 -135,41 -152,293z"/>
   <path class="fil3" d="M1039 7333c-564,107 -343,602 210,545 161,-17 373,-171 284,-365 -65,-143 -271,-222 -494,-180z"/>
   <path class="fil4" d="M7828 11432c23,-119 51,-262 143,-309 82,28 81,162 75,265 -99,15 -137,27 -218,44zm334 366c-32,-40 -107,-86 -149,-133 -54,73 -16,129 -150,114 -56,-53 -57,-98 -55,-201 245,-129 277,-36 393,-78 79,-184 -4,-485 -202,-483 -200,2 -311,186 -369,356 -69,206 -60,437 68,559 66,63 172,72 281,37 92,-29 145,-87 183,-171z"/>
   <path class="fil3" d="M1650 8857c-168,-88 -356,-114 -533,-10 -448,266 -104,645 341,478 134,-50 160,-73 169,-165 9,-88 28,-220 23,-303z"/>
   <path class="fil1" d="M9778 6882l42 -137c8,-27 8,-46 17,-81l49 -229c5,-39 2,-49 10,-87 62,-291 69,-865 47,-1160l-180 -963 -119 27c0,49 42,224 54,293 105,609 134,709 124,1351 -3,252 -135,561 -59,805 18,58 15,118 15,181z"/>
   <path class="fil3" d="M8730 7604c48,89 127,105 164,203l-58 45c167,214 793,138 615,-227 -105,-216 -619,-353 -721,-21z"/>
   <path class="fil4" d="M9276 1864c-23,309 31,648 60,948 57,-10 101,-59 165,-83 -3,-218 -87,-385 78,-427l7 524c31,-5 121,-55 170,-76 0,-139 11,-385 -4,-514 -2,-13 -8,-59 -10,-73 -27,-129 -141,-57 -176,-20 -19,21 -25,33 -41,56l-59 62c-8,-193 6,-309 32,-490l-222 93z"/>
   <path class="fil4" d="M8512 3249c-15,308 27,645 64,946 21,-5 128,-69 161,-91 3,-142 -66,-341 28,-402 2,-2 6,-4 8,-5l38 -2c40,106 11,381 14,516 24,-8 135,-63 171,-79 -5,-158 39,-553 -43,-649 -50,-34 -141,14 -192,90l-48 60c-2,3 -6,6 -10,8 -4,-194 4,-306 35,-488l-226 96z"/>
   <path class="fil6" d="M7333 6909c-34,252 54,841 88,1122l229 -54c-6,-185 -31,-373 -38,-568 -7,-210 8,-421 1,-626l-280 126z"/>
   <path class="fil4" d="M7451 2707c5,33 36,260 62,278 254,80 424,-41 418,-298 -6,-286 -320,-284 -212,-500 111,-17 74,10 141,42l-5 -192c-122,-43 -214,-42 -304,36 -301,262 331,581 79,662 -62,20 -121,-11 -179,-28z"/>
   <path class="fil4" d="M1706 12028l255 -63c16,-89 -27,-344 -40,-446 -11,-77 -32,-169 -5,-234 19,-47 83,-146 130,-88 48,41 8,137 -2,185l205 -85c3,-1 7,-2 11,-4l22 -9c-14,-91 -29,-218 -81,-258 -134,-45 -224,77 -304,109l1 -112c-267,-1 -204,161 -197,400 6,202 16,404 5,605z"/>
   <path class="fil4" d="M7482 3473l29 208c66,-17 118,-58 186,-78l-19 758c64,-34 215,-134 275,-188 -32,-229 -52,-400 -42,-645 44,-27 140,-50 205,-57l-36 -174c-195,-11 -444,116 -598,176z"/>
   <path class="fil4" d="M7284 11971c-13,-163 -29,-305 -50,-465 -15,-117 -39,-212 48,-300 25,-24 31,-27 75,-27 51,77 17,116 3,204 90,-34 112,-75 237,-87 -39,-470 -226,-229 -383,-165l0 -105c-83,-9 -151,30 -202,67l14 938c97,-25 148,-55 258,-60z"/>
   <path class="fil3" d="M8041 6626c374,-13 280,-828 90,-878 -149,-39 -246,233 -248,383 -3,221 13,247 103,390 23,37 31,67 55,105z"/>
   <path class="fil4" d="M10092 876l-8 -151c-64,10 -163,65 -215,101 33,208 66,394 86,615l132 -55c18,-9 19,-10 29,-18 -17,-254 -64,-289 30,-437 27,-43 31,-62 89,-73 70,94 -16,477 -33,614l189 -72c44,-101 76,-577 48,-680 -131,-50 -155,-12 -266,85 -35,31 -42,49 -81,71z"/>
   <path class="fil4" d="M6421 6402c-34,57 -70,157 -96,227l479 -57c3,5 4,7 5,13l23 69c213,-93 526,-168 764,-236l8 27c0,0 -2,24 -2,25 103,-113 153,-85 154,-181 -105,-25 -1121,102 -1335,113z"/>
   <path class="fil4" d="M8849 595l70 982c91,-4 134,-15 138,-71 2,-19 1,-35 -1,-54 -2,-43 -6,-71 -5,-114 11,11 8,7 20,26l50 90c30,49 44,68 86,96 60,-30 103,-69 124,-147 -120,-125 -102,-73 -244,-271 70,-71 131,-85 212,-250l-130 -99 -85 169c-30,42 -14,24 -47,44 -25,-203 -4,-292 30,-476 -88,32 -82,55 -218,75z"/>
   <path class="fil4" d="M9023 2723c-198,6 -69,-274 37,-278 12,122 31,203 -37,278zm-93 -383c37,-72 30,-151 126,-153 77,216 -235,226 -288,394 -54,171 65,454 314,225l22 79 164 -40c3,-74 -23,-275 -30,-367 -10,-136 -15,-257 -100,-319 -220,-161 -377,103 -362,136 12,27 126,40 154,45z"/>
   <path class="fil4" d="M8298 3830c4,65 17,140 6,203 -12,64 -60,108 -119,51 -70,-68 14,-250 113,-254zm-288 -157c15,12 5,7 31,17l125 31c43,-76 15,-144 132,-152 56,230 -249,233 -295,401 -30,109 2,221 68,271 108,83 191,-10 248,-51l20 75 167 -37c-9,-115 -35,-552 -75,-626 -76,-137 -335,-188 -421,71z"/>
   <path class="fil4" d="M8283 2526c6,63 17,140 6,201 -12,69 -68,109 -122,57 -64,-61 15,-256 116,-258zm-288 -141l157 32c57,-81 -1,-151 131,-154 59,248 -234,220 -293,401 -34,107 5,225 65,273 109,85 196,-16 250,-52l21 77 168 -42c-18,-150 -28,-512 -77,-624 -24,-56 -145,-136 -247,-107 -70,20 -162,113 -175,196z"/>
   <path class="fil4" d="M9670 1073c2,58 12,160 3,213 -24,145 -213,68 -114,-122 26,-51 49,-70 111,-91zm-291 -130l170 32c10,-94 27,-155 120,-153 51,254 -254,215 -299,415 -26,116 22,216 84,259 103,73 178,-29 240,-55l27 73 157 -35c-15,-137 -30,-539 -81,-633 -38,-73 -196,-179 -350,-30 -34,33 -53,66 -68,127z"/>
   <path class="fil0" d="M5067 2551l126 0c35,-257 136,-606 449,-532 127,30 185,156 208,293 63,368 -90,332 158,369 -3,-218 21,-370 -64,-549 -65,-136 -163,-260 -347,-266 -379,-12 -531,353 -530,685z"/>
   <path class="fil0" d="M3699 2667l134 -4c10,-191 -14,-274 69,-419 215,-374 554,-127 595,237 13,118 13,103 151,91 9,-236 -165,-701 -521,-658 -381,46 -481,528 -428,753z"/>
   <path class="fil4" d="M9065 3499c-3,155 -18,741 272,652 256,-78 235,-585 176,-717 -58,17 -106,44 -176,62 12,127 62,330 38,440 -14,64 -32,68 -92,76 -53,-163 -31,-392 -12,-579 -68,16 -136,45 -206,66z"/>
   <path class="fil4" d="M8346 963c-4,212 -2,734 270,647 268,-85 205,-529 188,-717l-185 69c7,139 61,301 38,428 -12,62 -24,74 -96,80 -52,-195 -16,-371 -13,-576l-202 69z"/>
   <path class="fil4" d="M8483 1952l82 963 123 -36c20,-347 8,-671 53,-1017 -84,17 -170,68 -258,90z"/>
   <path class="fil4" d="M2337 11160l-1 773c50,-9 131,-45 173,-68l124 -771c-43,15 -72,35 -124,47 -65,17 -109,11 -172,19z"/>
   <path class="fil8" d="M4555 3801l-672 -38c14,138 190,361 269,402l21 -25c2,-3 4,-6 6,-9 147,-221 342,-245 376,-330z"/>
   <path class="fil0" d="M2936 9170c57,-10 68,7 87,45 -11,45 -45,89 -72,107l-15 -152zm-15 -84c-23,-103 -17,-83 9,-114 25,11 60,-7 30,74 -12,33 -22,30 -39,40zm-114 -119l19 454c37,26 70,43 129,52 15,-21 67,-61 92,-85 30,-29 61,-57 81,-100 20,-44 27,-97 13,-146 -20,-70 -51,-60 -126,-53 151,-230 -41,-230 -208,-122z"/>
   <path class="fil4" d="M5408 6497l-17 310c76,-16 24,-43 187,-123 92,-44 165,-47 267,-69 114,-23 349,-146 457,-195l-894 77z"/>
   <path class="fil8" d="M5782 4093c37,-83 208,-367 216,-429l-685 126c338,117 336,256 469,303z"/>
   <path class="fil0" d="M6765 8534c-1,103 47,452 81,539l87 -38c-4,-160 -77,-201 33,-246l25 295 92 -36c2,-113 7,-299 -56,-380 -128,0 -63,50 -134,88l-6 -222c2,-52 14,-26 -9,-47l-113 47z"/>
   <path class="fil0" d="M5696 8631c-4,192 54,365 76,546l91 -45c-8,-97 -62,-209 24,-246 23,61 26,216 33,298l95 -38c-4,-113 7,-294 -58,-379 -99,-2 -78,28 -125,85 -34,-59 -19,-186 -16,-269l-120 48z"/>
   <path class="fil0" d="M4664 9112l36 147c148,103 288,-46 230,-213 -31,-86 -76,-82 -122,-142 -52,-67 -24,-125 71,-74l-12 -106c-145,-51 -270,56 -183,195 44,71 237,250 -20,193z"/>
   <path class="fil1" d="M7173 1159c-65,-4 -156,-51 -222,-77 -23,-9 -26,-10 -49,-20l-310 -120c-25,-8 -48,-13 -65,-19l-196 -54c-34,-13 1,4 -30,-15 63,194 167,154 433,251 155,56 426,198 493,217 -15,-58 -42,-102 -54,-163z"/>
   <path class="fil0" d="M6173 8664l24 115c47,-22 53,-34 107,-38l20 427 148 -94c-5,-128 -49,-235 -46,-391l76 -19c20,-9 24,-12 34,-19l-23 -87c-114,4 -262,58 -340,106z"/>
   <path class="fil0" d="M4222 9284c-7,-113 -71,-261 55,-291 35,97 5,234 6,349 84,-22 109,-17 113,-112 9,-208 42,-455 -180,-256 -20,18 -6,7 -26,19l-24 -79 -108 53c7,49 73,340 86,359l78 -42z"/>
   <path class="fil0" d="M3451 8835c-5,61 64,517 90,564 110,-13 63,-38 60,-137 23,45 58,92 85,123 58,-17 58,-16 78,-73 -37,-58 -62,-31 -151,-167 39,-53 72,-59 106,-138l-76 -58 -57 111c-43,-57 -26,-177 -21,-256l-114 31z"/>
   <path class="fil0" d="M5120 9005c18,17 21,-10 33,60 23,140 -113,125 -77,5 11,-36 26,-46 44,-65zm-153 -96c20,16 -10,5 40,23 19,7 24,6 48,10 32,-54 12,-67 71,-86 54,133 -118,122 -145,221 -39,138 74,248 185,143 41,46 -6,26 41,33 28,4 59,-15 73,-24 -13,-86 -32,-268 -66,-340 -50,-105 -192,-110 -247,20z"/>
   <path class="fil0" d="M3896 9274c-33,-69 -18,-136 48,-154 24,50 21,109 7,157l-55 -3zm-36 -221c33,-51 15,-69 70,-83 68,108 -120,131 -145,232 -31,127 86,228 186,128 16,16 22,59 117,10 -9,-67 -45,-307 -70,-352 -48,-86 -220,-107 -243,46l85 19z"/>
   <path class="fil0" d="M6650 9028c-98,-25 -59,-138 14,-158 14,68 28,113 -14,158zm-159 -258c3,3 9,2 11,7l77 29c23,-56 1,-57 59,-87 20,27 30,47 10,86 -27,54 -133,66 -149,148 -22,116 80,226 181,126 19,9 30,68 124,11 -10,-68 -41,-283 -66,-337 -43,-98 -201,-128 -247,17z"/>
   <path class="fil0" d="M5538 9119c-11,-27 -20,-57 -10,-95 15,-51 22,-40 54,-54 12,20 4,-20 21,44l-6 108 -59 -3zm-119 -232l80 13c3,-2 6,-11 7,-8 1,2 6,-8 7,-10 44,-66 27,-59 61,-63 32,57 14,86 -49,131 -47,34 -90,45 -98,113 -14,127 94,206 185,113 31,23 -7,2 18,20 29,20 -15,3 23,13 21,5 48,-5 79,-11 -39,-611 -281,-434 -313,-311z"/>
   <path class="fil0" d="M3331 9048c1,94 97,262 -12,289 -36,-94 -37,-215 -36,-333l-112 44c-6,139 39,393 172,372 158,-24 114,-271 88,-418l-100 46z"/>
   <path class="fil0" d="M7100 8683c-9,523 397,493 263,-39l-102 39c8,56 23,106 32,152 22,102 12,114 -30,138 -61,-62 -47,-246 -48,-325l-115 35z"/>
   <path class="fil4" d="M2503 10768c-217,66 -252,316 2,258 72,-16 164,-81 169,-147 5,-78 -90,-135 -171,-111z"/>
   <path class="fil4" d="M7313 1167l138 -29c-53,-266 -47,-135 -6,-426l-128 -24c-96,158 -44,316 -4,479z"/>
   <path class="fil4" d="M10383 3012c57,212 33,198 12,411l133 32c60,-175 63,-308 -13,-475l-132 32z"/>
   <path class="fil1" d="M8850 3337c127,0 232,49 316,-25 -17,-58 -57,-108 -95,-169 -39,-64 -25,-44 -64,-64 -1,-1 -5,-2 -6,-3 -56,-33 17,-36 -80,-46 -32,81 -66,204 -71,307z"/>
   <path class="fil0" d="M5237 8677c-1,82 64,494 95,555 82,-15 66,-18 60,-114 -11,-173 -22,-311 -13,-490l-142 49z"/>
   <path class="fil4" d="M7522 1080c42,20 94,-1 141,-8 -53,-247 -24,-162 22,-362 -142,-51 -158,-36 -187,90 -24,103 -32,198 24,280z"/>
   <path class="fil4" d="M10170 3080c65,112 26,260 -22,357 44,22 96,27 150,19 66,-120 81,-289 4,-403l-132 27z"/>
   <path class="fil4" d="M8456 7326c63,80 88,134 163,160 34,-84 68,-93 109,-125 54,-41 19,9 39,-49 -17,-20 -2,-7 -24,-22 -53,-37 -86,-22 -161,-141 -29,20 -111,131 -126,177z"/>
   <path class="fil0" d="M5333 11797c69,-90 75,-213 66,-358 -202,51 -301,384 -66,358z"/>
   <path class="fil0" d="M6367 7735l-9 -533c-49,69 -125,438 -138,559l147 -26z"/>
   <path class="fil0" d="M2690 8135l147 -28 -8 -544c-54,115 -119,431 -139,572z"/>
   <path class="fil0" d="M7828 11432c81,-17 119,-29 218,-44 6,-103 7,-237 -75,-265 -92,47 -120,190 -143,309z"/>
   <path class="fil1" d="M8338 1937c-54,-5 -134,-98 -221,-160 -30,-22 11,-2 -35,-23 -23,8 -29,5 -48,23 -26,26 -18,17 -30,57 126,67 182,203 347,233l-13 -130z"/>
   <path class="fil4" d="M9809 3903c-163,-75 -289,70 -225,171 53,83 263,7 225,-171z"/>
   <path class="fil4" d="M10123 3880c-146,-94 -287,54 -227,159 50,87 256,20 227,-159z"/>
   <path class="fil4" d="M10435 3844c-134,-88 -288,53 -228,163 54,99 256,-4 228,-163z"/>
   <path class="fil1" d="M9610 7609c-32,-143 -83,12 58,-350 18,-48 35,-88 39,-145 -55,46 -74,76 -139,128 -51,41 -91,93 -106,167 60,70 98,117 148,200z"/>
   <path class="fil1" d="M9342 3229c-19,-34 -25,-47 -44,-78 -20,-33 -24,-29 -35,-71 -28,-23 -3,14 -26,-35 -8,-16 -4,-24 -16,-47l-121 40 132 247c51,-10 73,-15 110,-56z"/>
   <path class="fil0" d="M8283 2526c-101,2 -180,197 -116,258 54,52 110,12 122,-57 11,-61 0,-138 -6,-201z"/>
   <path class="fil0" d="M9670 1073c-62,21 -85,40 -111,91 -99,190 90,267 114,122 9,-53 -1,-155 -3,-213z"/>
   <path class="fil0" d="M8298 3830c-99,4 -183,186 -113,254 59,57 107,13 119,-51 11,-63 -2,-138 -6,-203z"/>
   <path class="fil1" d="M7587 1382c-56,-2 -137,-48 -171,-92 -55,12 -96,24 -131,64l293 166 9 -138z"/>
   <path class="fil0" d="M9023 2723c68,-75 49,-156 37,-278 -106,4 -235,284 -37,278z"/>
   <path class="fil0" d="M7936 1457c43,-26 137,-144 141,-214 -26,-49 -60,-88 -140,-62l-1 276z"/>
   <path class="fil0" d="M2582 9157l63 -17c-34,-193 -22,-5 -21,-243l-71 -15c-39,79 -28,211 29,275z"/>
   <path class="fil0" d="M7550 8666l68 27c82,-109 -17,-355 -75,-253 -24,42 33,36 7,226z"/>
   <path class="fil0" d="M2691 9116l79 -10c-54,-176 58,-232 -90,-218 -41,98 -20,154 11,228z"/>
   <path class="fil4" d="M1520 8653l152 42 10 -230c-50,36 -137,139 -162,188z"/>
   <path class="fil0" d="M7430 8684l55 10c3,-5 7,-14 8,-12 0,0 55,-41 0,-223l-79 7c8,102 26,19 8,162l8 56z"/>
   <path class="fil0" d="M7914 849c-15,36 -14,63 0,147l16 49c52,-51 179,-255 -16,-196z"/>
   <path class="fil1" d="M7994 2120l116 -56c30,-20 16,-9 36,-39 -51,-28 -41,-42 -115,-70 -15,65 -35,94 -37,165z"/>
   <path class="fil4" d="M3896 9274l55 3c14,-48 17,-107 -7,-157 -66,18 -81,85 -48,154z"/>
   <path class="fil4" d="M5120 9005c-18,19 -33,29 -44,65 -36,120 100,135 77,-5 -12,-70 -15,-43 -33,-60z"/>
   <path class="fil4" d="M5538 9119l59 3 6 -108c-17,-64 -9,-24 -21,-44 -32,14 -39,3 -54,54 -10,38 -1,68 10,95z"/>
   <path class="fil4" d="M6650 9028c42,-45 28,-90 14,-158 -73,20 -112,133 -14,158z"/>
   <path class="fil4" d="M2951 9322c27,-18 61,-62 72,-107 -19,-38 -30,-55 -87,-45l15 152z"/>
   <path class="fil9" d="M819 8059c37,-14 49,-10 69,-52 -25,-44 12,-10 -46,-38 -30,-14 -42,-20 -65,-30 11,45 23,71 55,95l-13 25z"/>
   <path class="fil4" d="M2921 9086c17,-10 27,-7 39,-40 30,-81 -5,-63 -30,-74 -26,31 -32,11 -9,114z"/>
  </g>
 </g>
</svg>
