<?xml version="1.0" encoding="UTF-8"?>
<!DOCTYPE svg PUBLIC "-//W3C//DTD SVG 1.0//EN" "http://www.w3.org/TR/2001/REC-SVG-20010904/DTD/svg10.dtd">
<!-- Creator: CorelDRAW X8 -->
<svg xmlns="http://www.w3.org/2000/svg" xml:space="preserve" width="100%" height="100%" version="1.0" style="shape-rendering:geometricPrecision; text-rendering:geometricPrecision; image-rendering:optimizeQuality; fill-rule:evenodd; clip-rule:evenodd"
viewBox="0 0 1000 230"
 xmlns:xlink="http://www.w3.org/1999/xlink">
 <defs>
  <style type="text/css">
   <![CDATA[
    .fil0 {fill:none}
    .fil1 {fill:#FEFEFE;fill-rule:nonzero}
   ]]>
  </style>
 </defs>
 <g id="Layer_x0020_1">
  <metadata id="CorelCorpID_0Corel-Layer"/>
  <rect class="fil0" width="1000" height="230"/>
  <path class="fil1" d="M117 40l-1 38c-10,1 -19,2 -28,2 -9,38 -15,74 -18,105l-35 10 19 -110c-4,0 -7,1 -11,1l-11 3 -3 -39 88 -10z"/>
  <path id="1" class="fil1" d="M98 197c20,-52 36,-101 49,-149l63 -11c-7,42 -11,91 -10,148l-44 10 3 -25 -13 2 -5 18 -43 7zm65 -55l9 -78 0 0 -19 80 10 -2z"/>
  <path id="2" class="fil1" d="M246 48l38 -6c-7,26 -12,50 -17,72l18 -4 10 -62 38 -6c-14,56 -23,104 -27,143l-36 10 10 -57c-4,1 -10,2 -18,4 -3,17 -4,31 -5,43l-36 10 25 -147z"/>
  <path id="3" class="fil1" d="M361 48l35 -6c-9,36 -16,68 -21,97l20 -8 14 -83 36 -6c-15,56 -24,104 -28,143l-33 10 4 -23c-12,5 -29,12 -53,23l26 -147z"/>
  <path id="4" class="fil1" d="M597 41c-19,49 -32,97 -42,144l-46 8 8 -76 -19 70 -44 8c6,-52 9,-99 9,-142l40 -8 -9 91 27 -101 22 -3 -15 128 29 -113 40 -6z"/>
  <path id="5" class="fil1" d="M575 197c21,-52 37,-101 50,-149l62 -11c-7,42 -10,91 -9,148l-44 10 3 -25 -14 2 -4 18 -44 7zm65 -55l10 -78 0 0 -20 80 10 -2z"/>
  <path id="6" class="fil1" d="M724 48l35 -6c-9,38 -17,73 -22,105l36 -5 -3 38c-19,2 -43,7 -71,15l25 -147z"/>
  <path id="7" class="fil1" d="M819 48l36 -6c-14,55 -24,103 -28,143l-33 10 25 -147z"/>
  <path id="8" class="fil1" d="M883 48l36 -6c-3,12 -6,22 -7,29 12,-11 23,-21 33,-31l26 17 -41 37 23 84 -37 19 -15 -77c-4,22 -8,44 -10,65l-33 10 25 -147z"/>
 </g>
</svg>
