<?xml version="1.0" encoding="UTF-8"?>
<!DOCTYPE svg PUBLIC "-//W3C//DTD SVG 1.0//EN" "http://www.w3.org/TR/2001/REC-SVG-20010904/DTD/svg10.dtd">
<!-- Creator: CorelDRAW X8 -->
<svg xmlns="http://www.w3.org/2000/svg" xml:space="preserve" width="100%" height="100%" version="1.0" style="shape-rendering:geometricPrecision; text-rendering:geometricPrecision; image-rendering:optimizeQuality; fill-rule:evenodd; clip-rule:evenodd"
viewBox="0 0 3500 2333"
 xmlns:xlink="http://www.w3.org/1999/xlink">
 <defs>
  <style type="text/css">
   <![CDATA[
    .str0 {stroke:#1A1A1A;stroke-width:6.94488}
    .fil3 {fill:none}
    .fil0 {fill:#FFDA61}
    .fil2 {fill:#1A1A1A;fill-rule:nonzero}
    .fil1 {fill:#1A1A1A;fill-rule:nonzero}
   ]]>
  </style>
 </defs>
 <g id="Layer_x0020_1">
  <metadata id="CorelCorpID_0Corel-Layer"/>
  <rect class="fil0" width="3500" height="2333"/>
  <path class="fil1" d="M1142 245l0 266 18 0 0 -110 33 0c42,0 61,-21 61,-63l0 -29c0,-39 -16,-64 -57,-64l-55 0zm18 140l0 -124 37 0c30,0 40,18 40,47l0 31c0,33 -13,46 -44,46l-33 0z"/>
  <path id="1" class="fil1" d="M1513 452l13 59 17 0 -59 -267 -25 0 -59 267 16 0 14 -59 83 0zm-42 -188l39 173 -78 0 39 -173z"/>
  <polygon id="2" class="fil1" points="1807,511 1825,511 1744,369 1820,245 1802,245 1715,385 1715,245 1698,245 1698,511 1715,511 1715,415 1733,386 "/>
  <polygon id="3" class="fil1" points="1997,368 1997,261 2084,261 2084,245 1979,245 1979,511 2084,511 2084,495 1997,495 1997,384 2069,384 2069,368 "/>
  <polygon id="4" class="fil1" points="2304,511 2304,261 2358,261 2358,245 2232,245 2232,261 2286,261 2286,511 "/>
  <polygon class="fil2" points="951,1074 994,1074 994,1296 1034,1296 1034,1074 1077,1074 1077,1037 951,1037 "/>
  <path id="1" class="fil2" d="M1184 1037l-60 0 -41 259 37 0 7 -47 50 0 7 47 41 0 -41 -259zm-32 46l19 131 -39 0 20 -131z"/>
  <polygon id="2" class="fil2" points="1343,1296 1385,1296 1385,1037 1349,1037 1349,1192 1307,1037 1256,1037 1256,1296 1293,1296 1293,1109 "/>
  <path id="3" class="fil2" d="M1487 1037l-60 0 0 259 41 0 0 -97 19 0c41,0 61,-23 61,-64l0 -34c0,-41 -20,-64 -61,-64zm0 37c13,0 20,6 20,25l0 38c0,19 -7,25 -20,25l-19 0 0 -88 19 0z"/>
  <path id="4" class="fil2" d="M1665 1037l-60 0 -41 259 37 0 7 -47 50 0 7 47 41 0 -41 -259zm-32 46l19 131 -39 0 20 -131z"/>
  <path id="5" class="fil2" d="M1856 1037l-61 0 0 259 64 0c41,0 62,-21 62,-61l0 -21c0,-28 -9,-47 -31,-56 19,-8 27,-25 27,-52l0 -9c0,-40 -18,-60 -61,-60zm-2 143c18,0 26,7 26,31l0 23c0,19 -7,25 -21,25l-23 0 0 -79 18 0zm1 -106c15,0 21,8 21,27l0 14c0,21 -9,28 -24,28l-16 0 0 -69 19 0z"/>
  <path id="6" class="fil2" d="M1995 1097c0,-19 8,-26 21,-26 13,0 21,7 21,26l0 140c0,18 -8,25 -21,25 -13,0 -21,-7 -21,-25l0 -140zm-40 137c0,41 21,65 61,65 40,0 62,-24 62,-65l0 -135c0,-41 -22,-65 -62,-65 -40,0 -61,24 -61,65l0 135z"/>
  <path id="7" class="fil2" d="M2154 1097c0,-19 8,-26 21,-26 13,0 22,7 22,26l0 140c0,18 -9,25 -22,25 -13,0 -21,-7 -21,-25l0 -140zm-40 137c0,41 21,65 61,65 40,0 62,-24 62,-65l0 -135c0,-41 -22,-65 -62,-65 -40,0 -61,24 -61,65l0 135z"/>
  <polygon id="8" class="fil2" points="2264,1074 2307,1074 2307,1296 2348,1296 2348,1074 2390,1074 2390,1037 2264,1037 "/>
  <polygon id="9" class="fil2" points="2461,1185 2507,1185 2507,1296 2549,1296 2549,1037 2507,1037 2507,1148 2461,1148 2461,1037 2421,1037 2421,1296 2461,1296 "/>
  <rect class="fil3 str0" x="739" y="726" width="2022" height="881"/>
  <line class="fil3 str0" x1="1750" y1="2333" x2="1750" y2= "1607" />
 </g>
</svg>
