<?xml version="1.0" encoding="UTF-8"?>
<!DOCTYPE svg PUBLIC "-//W3C//DTD SVG 1.0//EN" "http://www.w3.org/TR/2001/REC-SVG-20010904/DTD/svg10.dtd">
<!-- Creator: CorelDRAW X8 -->
<svg xmlns="http://www.w3.org/2000/svg" xml:space="preserve" width="100%" height="100%" version="1.0" style="shape-rendering:geometricPrecision; text-rendering:geometricPrecision; image-rendering:optimizeQuality; fill-rule:evenodd; clip-rule:evenodd"
viewBox="0 0 3500 2333"
 xmlns:xlink="http://www.w3.org/1999/xlink">
 <defs>
  <style type="text/css">
   <![CDATA[
    .str0 {stroke:#1A1A1A;stroke-width:6.94488}
    .fil2 {fill:none}
    .fil0 {fill:#FDC501}
    .fil3 {fill:#1A1A1A;fill-rule:nonzero}
    .fil1 {fill:#1A1A1A;fill-rule:nonzero}
   ]]>
  </style>
 </defs>
 <g id="Layer_x0020_1">
  <metadata id="CorelCorpID_0Corel-Layer"/>
  <rect class="fil0" width="3500" height="2333"/>
  <path class="fil1" d="M1142 245l0 266 18 0 0 -110 33 0c42,0 61,-21 61,-63l0 -29c0,-39 -16,-64 -57,-64l-55 0zm18 140l0 -124 37 0c30,0 40,18 40,47l0 31c0,33 -13,46 -44,46l-33 0z"/>
  <path id="1" class="fil1" d="M1513 452l13 59 17 0 -59 -267 -25 0 -59 267 16 0 14 -59 83 0zm-42 -188l39 173 -78 0 39 -173z"/>
  <polygon id="2" class="fil1" points="1807,511 1825,511 1744,369 1820,245 1802,245 1715,385 1715,245 1698,245 1698,511 1715,511 1715,415 1733,386 "/>
  <polygon id="3" class="fil1" points="1997,368 1997,261 2084,261 2084,245 1979,245 1979,511 2084,511 2084,495 1997,495 1997,384 2069,384 2069,368 "/>
  <polygon id="4" class="fil1" points="2304,511 2304,261 2358,261 2358,245 2232,245 2232,261 2286,261 2286,511 "/>
  <rect class="fil2 str0" x="739" y="726" width="2022" height="881"/>
  <path class="fil3" d="M972 1031l-65 0 0 271 67 0c43,0 65,-22 65,-64l0 -22c0,-29 -9,-49 -32,-58 19,-9 28,-27 28,-55l0 -9c0,-42 -19,-63 -63,-63zm-3 149c19,0 27,8 27,33l0 24c0,20 -7,26 -22,26l-24 0 0 -83 19 0zm1 -110c16,0 22,9 22,28l0 15c0,22 -10,29 -25,29l-17 0 0 -72 20 0z"/>
  <path id="1" class="fil3" d="M1117 1094c0,-20 8,-27 22,-27 13,0 22,7 22,27l0 146c0,19 -9,26 -22,26 -14,0 -22,-7 -22,-26l0 -146zm-43 143c0,43 23,68 65,68 42,0 64,-25 64,-68l0 -141c0,-43 -22,-68 -64,-68 -42,0 -65,25 -65,68l0 141z"/>
  <path id="2" class="fil3" d="M1283 1094c0,-20 9,-27 22,-27 14,0 22,7 22,27l0 146c0,19 -8,26 -22,26 -13,0 -22,-7 -22,-26l0 -146zm-42 143c0,43 22,68 64,68 42,0 65,-25 65,-68l0 -141c0,-43 -23,-68 -65,-68 -42,0 -64,25 -64,68l0 141z"/>
  <polygon id="3" class="fil3" points="1398,1070 1442,1070 1442,1302 1485,1302 1485,1070 1529,1070 1529,1031 1398,1031 "/>
  <polygon id="4" class="fil3" points="1604,1186 1652,1186 1652,1302 1695,1302 1695,1031 1652,1031 1652,1147 1604,1147 1604,1031 1561,1031 1561,1302 1604,1302 "/>
  <polygon id="5" class="fil3" points="1787,1070 1832,1070 1832,1302 1874,1302 1874,1070 1919,1070 1919,1031 1787,1031 "/>
  <polygon id="6" class="fil3" points="1993,1070 2066,1070 2066,1031 1950,1031 1950,1302 2066,1302 2066,1263 1993,1263 1993,1184 2051,1184 2051,1145 1993,1145 "/>
  <polygon id="7" class="fil3" points="2197,1302 2240,1302 2240,1031 2203,1031 2203,1193 2159,1031 2106,1031 2106,1302 2144,1302 2144,1106 "/>
  <path id="8" class="fil3" d="M2284 1302l68 0c42,0 63,-24 63,-67l0 -137c0,-43 -21,-67 -63,-67l-68 0 0 271zm67 -232c13,0 21,7 21,26l0 141c0,19 -8,26 -21,26l-24 0 0 -193 24 0z"/>
  <path id="9" class="fil3" d="M2549 1031l-62 0 -43 271 39 0 7 -49 52 0 8 49 43 0 -44 -271zm-33 48l20 137 -41 0 21 -137z"/>
  <line class="fil2 str0" x1="1750" y1="2333" x2="1750" y2= "1607" />
 </g>
</svg>
