<?xml version="1.0" encoding="UTF-8"?>
<!DOCTYPE svg PUBLIC "-//W3C//DTD SVG 1.0//EN" "http://www.w3.org/TR/2001/REC-SVG-20010904/DTD/svg10.dtd">
<!-- Creator: CorelDRAW X8 -->
<svg xmlns="http://www.w3.org/2000/svg" xml:space="preserve" width="100%" height="100%" version="1.0" style="shape-rendering:geometricPrecision; text-rendering:geometricPrecision; image-rendering:optimizeQuality; fill-rule:evenodd; clip-rule:evenodd"
viewBox="0 0 3500 2333"
 xmlns:xlink="http://www.w3.org/1999/xlink">
 <defs>
  <style type="text/css">
   <![CDATA[
    .str0 {stroke:#1A1A1A;stroke-width:6.94488}
    .fil3 {fill:none}
    .fil0 {fill:#FED242}
    .fil2 {fill:#1A1A1A;fill-rule:nonzero}
    .fil1 {fill:#1A1A1A;fill-rule:nonzero}
   ]]>
  </style>
 </defs>
 <g id="Layer_x0020_1">
  <metadata id="CorelCorpID_0Corel-Layer"/>
  <rect class="fil0" width="3500" height="2333"/>
  <path class="fil1" d="M1142 245l0 266 18 0 0 -110 33 0c42,0 61,-21 61,-63l0 -29c0,-39 -16,-64 -57,-64l-55 0zm18 140l0 -124 37 0c30,0 40,18 40,47l0 31c0,33 -13,46 -44,46l-33 0z"/>
  <path id="1" class="fil1" d="M1513 452l13 59 17 0 -59 -267 -25 0 -59 267 16 0 14 -59 83 0zm-42 -188l39 173 -78 0 39 -173z"/>
  <polygon id="2" class="fil1" points="1807,511 1825,511 1744,369 1820,245 1802,245 1715,385 1715,245 1698,245 1698,511 1715,511 1715,415 1733,386 "/>
  <polygon id="3" class="fil1" points="1997,368 1997,261 2084,261 2084,245 1979,245 1979,511 2084,511 2084,495 1997,495 1997,384 2069,384 2069,368 "/>
  <polygon id="4" class="fil1" points="2304,511 2304,261 2358,261 2358,245 2232,245 2232,261 2286,261 2286,511 "/>
  <path class="fil2" d="M1455 888l-57 0 0 240 60 0c37,0 57,-20 57,-57l0 -19c0,-26 -8,-44 -28,-52 17,-8 24,-24 24,-48l0 -9c0,-37 -17,-55 -56,-55zm-2 132c17,0 24,7 24,29l0 21c0,18 -7,24 -19,24l-22 0 0 -74 17 0zm1 -98c13,0 19,8 19,25l0 13c0,20 -8,26 -22,26l-15 0 0 -64 18 0z"/>
  <path id="1" class="fil2" d="M1584 943c0,-17 8,-24 20,-24 12,0 19,7 19,24l0 130c0,17 -7,24 -19,24 -12,0 -20,-7 -20,-24l0 -130zm-38 127c0,39 20,61 58,61 37,0 57,-22 57,-61l0 -124c0,-39 -20,-61 -57,-61 -38,0 -58,22 -58,61l0 124z"/>
  <path id="2" class="fil2" d="M1732 943c0,-17 7,-24 19,-24 12,0 20,7 20,24l0 130c0,17 -8,24 -20,24 -12,0 -19,-7 -19,-24l0 -130zm-38 127c0,39 20,61 57,61 37,0 58,-22 58,-61l0 -124c0,-39 -21,-61 -58,-61 -37,0 -57,22 -57,61l0 124z"/>
  <polygon id="3" class="fil2" points="1834,922 1873,922 1873,1128 1911,1128 1911,922 1950,922 1950,888 1834,888 "/>
  <polygon id="4" class="fil2" points="2016,1025 2059,1025 2059,1128 2098,1128 2098,888 2059,888 2059,991 2016,991 2016,888 1979,888 1979,1128 2016,1128 "/>
  <path id="5" class="fil2" d="M1259 1205l-56 0 0 240 38 0 0 -90 18 0c38,0 56,-21 56,-59l0 -31c0,-39 -18,-60 -56,-60zm0 35c12,0 19,5 19,22l0 36c0,17 -7,23 -19,23l-18 0 0 -81 18 0z"/>
  <path id="6" class="fil2" d="M1379 1260c0,-17 8,-23 20,-23 12,0 19,6 19,23l0 130c0,17 -7,24 -19,24 -12,0 -20,-7 -20,-24l0 -130zm-38 128c0,38 21,60 58,60 37,0 57,-22 57,-60l0 -125c0,-39 -20,-61 -57,-61 -37,0 -58,22 -58,61l0 125z"/>
  <path id="7" class="fil2" d="M1610 1445c-4,-9 -4,-17 -4,-29l0 -37c0,-25 -7,-43 -26,-51 17,-8 25,-24 25,-49l0 -19c0,-37 -17,-55 -56,-55l-57 0 0 240 38 0 0 -97 13 0c17,0 25,8 25,30l0 38c0,19 1,23 3,29l39 0zm-62 -205c14,0 19,7 19,24l0 24c0,19 -8,25 -22,25l-15 0 0 -73 18 0z"/>
  <polygon id="8" class="fil2" points="1631,1240 1670,1240 1670,1445 1708,1445 1708,1240 1748,1240 1748,1205 1631,1205 "/>
  <path id="9" class="fil2" d="M1847 1205l-56 0 -38 240 35 0 6 -43 46 0 7 43 38 0 -38 -240zm-30 43l18 121 -36 0 18 -121z"/>
  <path id="10" class="fil2" d="M1971 1205l-57 0 0 240 60 0c38,0 57,-19 57,-57l0 -19c0,-26 -8,-44 -28,-52 17,-7 24,-23 24,-48l0 -9c0,-37 -17,-55 -56,-55zm-2 132c17,0 24,7 24,29l0 21c0,18 -7,24 -19,24l-22 0 0 -74 17 0zm1 -97c14,0 20,7 20,24l0 14c0,19 -9,25 -23,25l-15 0 0 -63 18 0z"/>
  <polygon id="11" class="fil2" points="2066,1445 2165,1445 2165,1411 2103,1411 2103,1205 2066,1205 "/>
  <polygon id="12" class="fil2" points="2231,1240 2297,1240 2297,1205 2194,1205 2194,1445 2297,1445 2297,1411 2231,1411 2231,1341 2283,1341 2283,1306 2231,1306 "/>
  <rect class="fil3 str0" x="739" y="726" width="2022" height="881"/>
  <line class="fil3 str0" x1="1750" y1="2333" x2="1750" y2= "1607" />
 </g>
</svg>
