<?xml version="1.0" encoding="UTF-8"?>
<!DOCTYPE svg PUBLIC "-//W3C//DTD SVG 1.0//EN" "http://www.w3.org/TR/2001/REC-SVG-20010904/DTD/svg10.dtd">
<!-- Creator: CorelDRAW X8 -->
<svg xmlns="http://www.w3.org/2000/svg" xml:space="preserve" width="100%" height="100%" version="1.0" style="shape-rendering:geometricPrecision; text-rendering:geometricPrecision; image-rendering:optimizeQuality; fill-rule:evenodd; clip-rule:evenodd"
viewBox="0 0 3500 2333"
 xmlns:xlink="http://www.w3.org/1999/xlink">
 <defs>
  <style type="text/css">
   <![CDATA[
    .str0 {stroke:#1A1A1A;stroke-width:6.94488}
    .fil2 {fill:none}
    .fil0 {fill:#FECA20}
    .fil3 {fill:#1A1A1A;fill-rule:nonzero}
    .fil1 {fill:#1A1A1A;fill-rule:nonzero}
   ]]>
  </style>
 </defs>
 <g id="Layer_x0020_1">
  <metadata id="CorelCorpID_0Corel-Layer"/>
  <rect class="fil0" width="3500" height="2333"/>
  <path class="fil1" d="M1142 245l0 266 18 0 0 -110 33 0c42,0 61,-21 61,-63l0 -29c0,-39 -16,-64 -57,-64l-55 0zm18 140l0 -124 37 0c30,0 40,18 40,47l0 31c0,33 -13,46 -44,46l-33 0z"/>
  <path id="1" class="fil1" d="M1513 452l13 59 17 0 -59 -267 -25 0 -59 267 16 0 14 -59 83 0zm-42 -188l39 173 -78 0 39 -173z"/>
  <polygon id="2" class="fil1" points="1807,511 1825,511 1744,369 1820,245 1802,245 1715,385 1715,245 1698,245 1698,511 1715,511 1715,415 1733,386 "/>
  <polygon id="3" class="fil1" points="1997,368 1997,261 2084,261 2084,245 1979,245 1979,511 2084,511 2084,495 1997,495 1997,384 2069,384 2069,368 "/>
  <polygon id="4" class="fil1" points="2304,511 2304,261 2358,261 2358,245 2232,245 2232,261 2286,261 2286,511 "/>
  <rect class="fil2 str0" x="739" y="726" width="2022" height="881"/>
  <line class="fil2 str0" x1="1750" y1="2333" x2="1750" y2= "1607" />
  <path class="fil3" d="M1457 888l-57 0 0 240 60 0c37,0 57,-20 57,-57l0 -19c0,-26 -8,-44 -28,-52 17,-8 24,-24 24,-48l0 -9c0,-37 -17,-55 -56,-55zm-2 132c17,0 24,7 24,29l0 21c0,18 -7,24 -19,24l-22 0 0 -74 17 0zm1 -98c14,0 20,8 20,25l0 13c0,19 -9,26 -23,26l-15 0 0 -64 18 0z"/>
  <path id="1" class="fil3" d="M1586 943c0,-17 8,-24 20,-24 12,0 19,7 19,24l0 130c0,17 -7,23 -19,23 -12,0 -20,-6 -20,-23l0 -130zm-38 127c0,39 21,61 58,61 37,0 57,-22 57,-61l0 -124c0,-39 -20,-61 -57,-61 -37,0 -58,22 -58,61l0 124z"/>
  <path id="2" class="fil3" d="M1734 943c0,-17 7,-24 19,-24 12,0 20,7 20,24l0 130c0,17 -8,23 -20,23 -12,0 -19,-6 -19,-23l0 -130zm-38 127c0,39 20,61 57,61 37,0 58,-22 58,-61l0 -124c0,-39 -21,-61 -58,-61 -37,0 -57,22 -57,61l0 124z"/>
  <polygon id="3" class="fil3" points="1836,922 1875,922 1875,1128 1913,1128 1913,922 1952,922 1952,888 1836,888 "/>
  <polygon id="4" class="fil3" points="2018,1025 2061,1025 2061,1128 2100,1128 2100,888 2061,888 2061,991 2018,991 2018,888 1981,888 1981,1128 2018,1128 "/>
  <path id="5" class="fil3" d="M1301 1205l-56 0 0 240 38 0 0 -90 18 0c38,0 56,-21 56,-59l0 -32c0,-38 -18,-59 -56,-59zm0 34c12,0 18,6 18,23l0 36c0,17 -6,23 -18,23l-18 0 0 -82 18 0z"/>
  <path id="6" class="fil3" d="M1504 1445c-4,-9 -4,-17 -4,-29l0 -37c0,-25 -7,-43 -25,-51 16,-8 24,-24 24,-49l0 -19c0,-37 -17,-55 -56,-55l-57 0 0 240 38 0 0 -98 13 0c17,0 25,9 25,31l0 38c0,19 1,23 3,29l39 0zm-62 -206c14,0 19,8 19,25l0 24c0,19 -8,25 -22,25l-15 0 0 -74 18 0z"/>
  <polygon id="7" class="fil3" points="1574,1239 1639,1239 1639,1205 1536,1205 1536,1445 1639,1445 1639,1411 1574,1411 1574,1340 1626,1340 1626,1306 1574,1306 "/>
  <polygon id="8" class="fil3" points="1726,1205 1674,1205 1674,1445 1707,1445 1707,1275 1735,1445 1770,1445 1796,1273 1796,1445 1832,1445 1832,1205 1780,1205 1754,1375 "/>
  <polygon id="9" class="fil3" points="1871,1445 1909,1445 1909,1205 1871,1205 "/>
  <path id="10" class="fil3" d="M1947 1205l0 183c0,38 19,60 56,60 37,0 56,-22 56,-60l0 -183 -36 0 0 185c0,17 -7,24 -19,24 -12,0 -20,-7 -20,-24l0 -185 -37 0z"/>
  <polygon id="11" class="fil3" points="2149,1205 2096,1205 2096,1445 2129,1445 2129,1275 2157,1445 2193,1445 2219,1273 2219,1445 2255,1445 2255,1205 2202,1205 2177,1375 "/>
 </g>
</svg>
